<?xml version="1.0" standalone="no"?>
<!DOCTYPE svg PUBLIC "-//W3C//DTD SVG 1.1//EN" "http://www.w3.org/Graphics/SVG/1.1/DTD/svg11.dtd" >
<svg xmlns="http://www.w3.org/2000/svg" xmlns:xlink="http://www.w3.org/1999/xlink" version="1.1">
<metadata></metadata>
<defs>
<font id="db_helvethaicamon_x55_regular" horiz-adv-x="0" >
<font-face units-per-em="2048" ascent="1638" descent="-410" />
<missing-glyph horiz-adv-x="348" />
<glyph unicode="&#x2b;&#x2d;" horiz-adv-x="833" d="M472 492v-252q0 -12 -4 -21.5t-12 -17t-18 -11.5t-20 -4q-12 0 -22 4t-17 11.5t-11 17t-4 21.5v252h-252q-12 0 -22 4t-17 11t-11 17t-4 22q0 11 4 20.5t11 17.5t17 12t22 4h252v254q0 11 4 20.5t11 17.5t17 12t22 4q11 0 20.5 -4t17.5 -12t12 -18t4 -20v-254h250 q11 0 21 -4t17.5 -12t11.5 -18t4 -20q0 -12 -4 -22t-11.5 -17t-17.5 -11t-21 -4h-250zM112 0q-12 0 -22 4t-17 11.5t-11 17t-4 21.5q0 11 4 21t11 17.5t17 11.5t22 4h610q11 0 21 -4t17.5 -11.5t11.5 -17.5t4 -21q0 -12 -4 -21.5t-11.5 -17t-17.5 -11.5t-21 -4h-610z" />
<glyph unicode="&#x2e;&#x2e;&#x2e;" horiz-adv-x="1388" d="M136 84q0 20 7 38t20.5 31t31 21t37.5 8t38 -8t31 -21t20.5 -31t7.5 -38t-7.5 -37t-20.5 -30.5t-31 -21t-38 -7.5t-37.5 7.5t-31 21t-20.5 30.5t-7 37zM596 84q0 20 8 38t21 31t30.5 21t37.5 8t37.5 -8t30.5 -21t21 -31t8 -38t-8 -37t-21 -30.5t-30.5 -21t-37.5 -7.5 t-37.5 7.5t-30.5 21t-21 30.5t-8 37zM1060 84q0 20 7 38t20.5 31t31 21t37.5 8t38 -8t31 -21t20.5 -31t7.5 -38t-7.5 -37t-20.5 -30.5t-31 -21t-38 -7.5t-37.5 7.5t-31 21t-20.5 30.5t-7 37z" />
<glyph unicode="&#x3c;&#x3d;" horiz-adv-x="841" d="M196 554l538 -237q12 -5 22 -12t16 -16t8 -21q2 -10 -4 -24q-6 -16 -17 -23.5t-24 -9t-27 1.5t-26 9l-607 280q-14 7 -24.5 21t-10.5 31t10 31.5t24 20.5l606 279q16 8 31 11.5t28 1.5t23 -10q9 -10 14 -26q4 -13 2 -23.5t-8 -19.5t-15 -16t-19 -11zM731 0q21 0 35 14 t14 36q0 21 -14 35.5t-35 14.5h-641q-21 0 -35.5 -15t-14.5 -35q0 -21 14 -35.5t36 -14.5h641z" />
<glyph unicode="&#x3e;&#x3d;" horiz-adv-x="841" d="M105 792q-10 4 -19 11t-14.5 16t-7.5 20t2 23q5 16 14.5 25t22 11t28 -2t31.5 -11l605 -279q14 -7 24 -21t10 -31t-10 -32q-11 -14 -25 -20l-606 -280q-13 -6 -26.5 -9t-26.5 -1.5t-24 9t-17 23.5q-6 14 -4.5 25t8 20t16.5 16t21 12l538 237zM752 0q21 0 35.5 14t14.5 36 q0 21 -14.5 35.5t-35.5 14.5h-642q-21 0 -35 -15t-14 -35q0 -21 14.5 -35.5t34.5 -14.5h642z" />
<glyph unicode="&#xe4f;&#x22;" horiz-adv-x="1014" d="M62 418q0 -61 15.5 -117.5t44.5 -105.5t69.5 -89t90 -68.5t106 -44t118.5 -15.5q60 0 116 15.5t105 44t89 68.5t68 89t44 105.5t16 117.5t-16 117.5t-44 105t-68 89t-89 68.5t-105 44t-116 16q-62 0 -118.5 -16t-106 -44t-90 -68.5t-69.5 -89t-44.5 -105t-15.5 -117.5z M176 422q0 45 12 86.5t33 77.5t51 66t66.5 51t79 33t88.5 12q44 0 86 -12t78 -33t66 -51t51 -66t33 -77.5t12 -86.5t-12 -87t-33 -78.5t-51 -67t-66 -52t-78 -33.5t-86 -12q-46 0 -88.5 12t-79 33.5t-66.5 52t-51 67t-33 78.5t-12 87zM270 422q0 -48 19 -91t51 -74.5t75 -50 t91 -18.5q47 0 88.5 18.5t72.5 50t49.5 74.5t18.5 91q0 47 -18.5 89t-49.5 73.5t-72.5 50.5t-88.5 19q-48 0 -91 -19t-75 -50.5t-51 -73.5t-19 -89zM370 422q0 27 10.5 50.5t28.5 41.5t42.5 28.5t54.5 10.5q27 0 50.5 -10.5t41 -28.5t27.5 -41.5t10 -50.5q0 -28 -10 -53 t-27.5 -43t-41 -29t-50.5 -11q-30 0 -54.5 11t-42.5 29t-28.5 43t-10.5 53zM560 1161q0 27 16 45t43 18t43 -18t16 -45v-131q0 -27 -16 -44.5t-43 -17.5t-43 18t-16 44v131zM336 1161q0 27 16 45t42 18q27 0 43.5 -18t16.5 -45v-131q0 -27 -16 -44.5t-44 -17.5 q-27 0 -42.5 18t-15.5 44v131z" />
<glyph unicode="&#xe0e;&#xe3a;" horiz-adv-x="897" d="M643 -420q0 20 8 38t21.5 31.5t31.5 21t40 7.5q20 0 37.5 -7.5t31 -21t21.5 -31.5t8 -38t-8 -38.5t-21.5 -32t-31 -21.5t-37.5 -8q-21 0 -39.5 8t-32 21.5t-21.5 32t-8 38.5zM813 -195q0 -18 -6.5 -34t-18.5 -27.5t-28 -18.5t-34 -7q-20 0 -36 8t-30 21q-42 40 -88 58.5 t-102 18.5q-28 0 -52 -8t-46 -21.5t-42 -30.5q-18 -16 -36 -34q-7 -7 -16.5 -10.5t-20 -2.5t-20 5t-16.5 12q-14 18 -12 36q3 18 17 36q20 24 46.5 46t58.5 39t67.5 27t71.5 10q62 0 112 -16t94 -47v659q0 39 -12 77.5t-39 69.5t-73 50t-112 21q-39 0 -71 -7t-57.5 -19 t-45 -28t-32.5 -32t-20.5 -32t-8.5 -28q14 -8 25.5 -22.5t19.5 -33t12 -40.5q4 -24 4 -48v-400q0 -11 -4 -20.5t-11 -16.5t-17 -11t-20 -4h-128q-11 0 -20.5 4t-16.5 11t-11 16.5t-4 20.5t4 20.5t11 16.5t17 11t20 4h45v350q0 27 -5.5 54.5t-22.5 51.5q-10 14 -17.5 23 t-11.5 16.5t-3.5 17t6.5 24.5q16 42 45.5 81.5t73.5 69.5t105 48t139 18q71 0 126.5 -13.5t97 -37t70 -56.5t46.5 -72t25.5 -82.5t7.5 -88.5v-703z" />
<glyph unicode="&#xe0f;&#xe3a;" horiz-adv-x="897" d="M643 -420q0 20 8 38t21.5 31.5t31.5 21t40 7.5q20 0 37.5 -7.5t31 -21t21.5 -31.5t8 -38t-8 -38.5t-21.5 -32t-31 -21.5t-37.5 -8q-21 0 -39.5 8t-32 21.5t-21.5 32t-8 38.5zM813 -204q0 -16 -6.5 -30.5t-16.5 -25t-24 -16.5q-16 -6 -32 -6q-23 0 -41.5 12t-28.5 30 q-6 12 -14 23t-19.5 20t-26 14t-32.5 5t-33.5 -5t-27 -14t-19.5 -20t-13 -23q-7 -18 -23 -30t-37 -12t-37 12t-23 30q-4 11 -10.5 22.5t-17 20.5t-25 15t-34.5 6q-18 0 -30.5 -5t-22 -13.5t-16.5 -20t-10 -23.5q-4 -12 -12 -22t-18.5 -15.5t-22.5 -6.5q-14 -2 -26 2t-21 12 t-15 18.5t-8 23.5q-2 12 2 24q10 34 27.5 59t41 41t52.5 24t62 8q54 0 94.5 -23.5t62.5 -68.5q12 22 28 38.5t35 27t39 15.5t37 5q26 0 45.5 -6t35.5 -15t26.5 -19t17.5 -19v659q0 39 -12 77.5t-39 69.5t-73 50t-112 21q-39 0 -71 -7t-57.5 -19t-45 -28t-32.5 -32t-20.5 -32 t-8.5 -28q14 -8 25.5 -22.5t19.5 -33t12 -40.5q4 -24 4 -48v-400q0 -11 -4 -20.5t-11 -16.5t-17 -11t-20 -4h-128q-11 0 -20.5 4t-16.5 11t-11 16.5t-4 20.5t4 20.5t11 16.5t17 11t20 4h45v350q0 27 -5.5 54.5t-22.5 51.5q-10 14 -17.5 23t-11.5 16.5t-3.5 17t6.5 24.5 q16 42 45.5 81.5t73.5 69.5t105 48t139 18q71 0 126.5 -13.5t97 -37t70 -56.5t46.5 -72t25.5 -82.5t7.5 -88.5v-712z" />
<glyph unicode="&#xe0e;&#xe38;" horiz-adv-x="897" d="M813 -574q0 -14 -5 -26t-13.5 -21t-20.5 -13.5t-26 -4.5t-25 4.5t-20 13.5t-14 21t-5 26v144h-38q-10 0 -19 4t-16 11t-11 16t-4 19t4 19.5t11 16t16 10.5t19 4h116q10 0 19.5 -4t16.5 -10.5t11 -15.5q4 -10 4 -20v-194zM813 -195q0 -18 -6.5 -34t-18.5 -27.5t-28 -18.5 t-34 -7q-20 0 -36 8t-30 21q-42 40 -88 58.5t-102 18.5q-28 0 -52 -8t-46 -21.5t-42 -30.5q-18 -16 -36 -34q-7 -7 -16.5 -10.5t-20 -2.5t-20 5t-16.5 12q-14 18 -12 36q3 18 17 36q20 24 46.5 46t58.5 39t67.5 27t71.5 10q62 0 112 -16t94 -47v659q0 39 -12 77.5t-39 69.5 t-73 50t-112 21q-39 0 -71 -7t-57.5 -19t-45 -28t-32.5 -32t-20.5 -32t-8.5 -28q14 -8 25.5 -22.5t19.5 -33t12 -40.5q4 -24 4 -48v-400q0 -11 -4 -20.5t-11 -16.5t-17 -11t-20 -4h-128q-11 0 -20.5 4t-16.5 11t-11 16.5t-4 20.5t4 20.5t11 16.5t17 11t20 4h45v350 q0 27 -5.5 54.5t-22.5 51.5q-10 14 -17.5 23t-11.5 16.5t-3.5 17t6.5 24.5q16 42 45.5 81.5t73.5 69.5t105 48t139 18q71 0 126.5 -13.5t97 -37t70 -56.5t46.5 -72t25.5 -82.5t7.5 -88.5v-703z" />
<glyph unicode="&#xe0f;&#xe38;" horiz-adv-x="897" d="M813 -574q0 -14 -5 -26t-13.5 -21t-20.5 -13.5t-26 -4.5t-25 4.5t-20 13.5t-14 21t-5 26v144h-38q-10 0 -19 4t-16 11t-11 16t-4 19t4 19.5t11 16t16 10.5t19 4h116q10 0 19.5 -4t16.5 -10.5t11 -15.5q4 -10 4 -20v-194zM813 -204q0 -16 -6.5 -30.5t-16.5 -25t-24 -16.5 q-16 -6 -32 -6q-23 0 -41.5 12t-28.5 30q-6 12 -14 23t-19.5 20t-26 14t-32.5 5t-33.5 -5t-27 -14t-19.5 -20t-13 -23q-7 -18 -23 -30t-37 -12t-37 12t-23 30q-4 11 -10.5 22.5t-17 20.5t-25 15t-34.5 6q-18 0 -30.5 -5t-22 -13.5t-16.5 -20t-10 -23.5q-4 -12 -12 -22 t-18.5 -15.5t-22.5 -6.5q-14 -2 -26 2t-21 12t-15 18.5t-8 23.5q-2 12 2 24q10 34 27.5 59t41 41t52.5 24t62 8q54 0 94.5 -23.5t62.5 -68.5q12 22 28 38.5t35 27t39 15.5t37 5q26 0 45.5 -6t35.5 -15t26.5 -19t17.5 -19v659q0 39 -12 77.5t-39 69.5t-73 50t-112 21 q-39 0 -71 -7t-57.5 -19t-45 -28t-32.5 -32t-20.5 -32t-8.5 -28q14 -8 25.5 -22.5t19.5 -33t12 -40.5q4 -24 4 -48v-400q0 -11 -4 -20.5t-11 -16.5t-17 -11t-20 -4h-128q-11 0 -20.5 4t-16.5 11t-11 16.5t-4 20.5t4 20.5t11 16.5t17 11t20 4h45v350q0 27 -5.5 54.5 t-22.5 51.5q-10 14 -17.5 23t-11.5 16.5t-3.5 17t6.5 24.5q16 42 45.5 81.5t73.5 69.5t105 48t139 18q71 0 126.5 -13.5t97 -37t70 -56.5t46.5 -72t25.5 -82.5t7.5 -88.5v-712z" />
<glyph unicode="&#xe0e;&#xe39;" horiz-adv-x="897" d="M684 -384q0 14 5 25.5t14 20t21 13.5q10 5 24 5t26 -5t20.5 -13.5t13.5 -20t5 -25.5v-46q0 -40 -11 -76.5t-36.5 -63.5t-66 -42.5t-99.5 -15.5q-58 0 -99 14t-67 40t-37.5 63t-11.5 81h-38q-10 0 -19.5 4t-16.5 11t-11 16t-4 19t4 19.5t11 16t16 10.5t20 4h119 q10 0 19 -4t16 -10.5t11 -15.5q4 -10 4 -20v-50q0 -48 20 -72t64 -24q84 0 84 96v46zM813 -195q0 -18 -6.5 -34t-18.5 -27.5t-28 -18.5t-34 -7q-20 0 -36 8t-30 21q-42 40 -88 58.5t-102 18.5q-28 0 -52 -8t-46 -21.5t-42 -30.5q-18 -16 -36 -34q-7 -7 -16.5 -10.5t-20 -2.5 t-20 5t-16.5 12q-14 18 -12 36q3 18 17 36q20 24 46.5 46t58.5 39t67.5 27t71.5 10q62 0 112 -16t94 -47v659q0 39 -12 77.5t-39 69.5t-73 50t-112 21q-39 0 -71 -7t-57.5 -19t-45 -28t-32.5 -32t-20.5 -32t-8.5 -28q14 -8 25.5 -22.5t19.5 -33t12 -40.5q4 -24 4 -48v-400 q0 -11 -4 -20.5t-11 -16.5t-17 -11t-20 -4h-128q-11 0 -20.5 4t-16.5 11t-11 16.5t-4 20.5t4 20.5t11 16.5t17 11t20 4h45v350q0 27 -5.5 54.5t-22.5 51.5q-10 14 -17.5 23t-11.5 16.5t-3.5 17t6.5 24.5q16 42 45.5 81.5t73.5 69.5t105 48t139 18q71 0 126.5 -13.5t97 -37 t70 -56.5t46.5 -72t25.5 -82.5t7.5 -88.5v-703z" />
<glyph unicode="&#xe0f;&#xe39;" horiz-adv-x="897" d="M684 -384q0 14 5 25.5t14 20t21 13.5q10 5 24 5t26 -5t20.5 -13.5t13.5 -20t5 -25.5v-46q0 -40 -11 -76.5t-36.5 -63.5t-66 -42.5t-99.5 -15.5q-58 0 -99 14t-67 40t-37.5 63t-11.5 81h-38q-10 0 -19.5 4t-16.5 11t-11 16t-4 19t4 19.5t11 16t16 10.5t20 4h119 q10 0 19 -4t16 -10.5t11 -15.5q4 -10 4 -20v-50q0 -48 20 -72t64 -24q84 0 84 96v46zM813 -204q0 -16 -6.5 -30.5t-16.5 -25t-24 -16.5q-16 -6 -32 -6q-23 0 -41.5 12t-28.5 30q-6 12 -14 23t-19.5 20t-26 14t-32.5 5t-33.5 -5t-27 -14t-19.5 -20t-13 -23q-7 -18 -23 -30 t-37 -12t-37 12t-23 30q-4 11 -10.5 22.5t-17 20.5t-25 15t-34.5 6q-18 0 -30.5 -5t-22 -13.5t-16.5 -20t-10 -23.5q-4 -12 -12 -22t-18.5 -15.5t-22.5 -6.5q-14 -2 -26 2t-21 12t-15 18.5t-8 23.5q-2 12 2 24q10 34 27.5 59t41 41t52.5 24t62 8q54 0 94.5 -23.5t62.5 -68.5 q12 22 28 38.5t35 27t39 15.5t37 5q26 0 45.5 -6t35.5 -15t26.5 -19t17.5 -19v659q0 39 -12 77.5t-39 69.5t-73 50t-112 21q-39 0 -71 -7t-57.5 -19t-45 -28t-32.5 -32t-20.5 -32t-8.5 -28q14 -8 25.5 -22.5t19.5 -33t12 -40.5q4 -24 4 -48v-400q0 -11 -4 -20.5t-11 -16.5 t-17 -11t-20 -4h-128q-11 0 -20.5 4t-16.5 11t-11 16.5t-4 20.5t4 20.5t11 16.5t17 11t20 4h45v350q0 27 -5.5 54.5t-22.5 51.5q-10 14 -17.5 23t-11.5 16.5t-3.5 17t6.5 24.5q16 42 45.5 81.5t73.5 69.5t105 48t139 18q71 0 126.5 -13.5t97 -37t70 -56.5t46.5 -72 t25.5 -82.5t7.5 -88.5v-712z" />
<glyph unicode="&#xd;" horiz-adv-x="395" />
<glyph unicode=" "  horiz-adv-x="348" />
<glyph unicode="&#x09;" horiz-adv-x="348" />
<glyph unicode="&#xa0;" horiz-adv-x="348" />
<glyph unicode="!" horiz-adv-x="473" d="M310 664l-38 -380q-2 -18 -12 -25t-22 -7t-22 7q-12 7 -14 26v-1l-37 380v256q0 42 16.5 63.5t56.5 21.5t56 -21.5t16 -63.5v-256zM150 82q0 -18 7 -34t18.5 -27.5t27 -18t33.5 -6.5t34 6.5t28 18t18.5 27.5t6.5 34t-6.5 34t-18.5 27.5t-28 18t-34 6.5t-33.5 -6.5 t-27 -18t-18.5 -27.5t-7 -34z" />
<glyph unicode="&#x22;" horiz-adv-x="592" d="M147 950q0 26 14.5 41.5t38.5 15.5t38 -16q14 -15 14 -41v-254q0 -26 -14 -42t-38 -16t-38.5 16t-14.5 42v254zM342 950q0 26 14 41.5t38 15.5t38 -16q15 -15 15 -41v-254q0 -26 -14.5 -42t-38.5 -16t-38 16t-14 42v254z" />
<glyph unicode="#" horiz-adv-x="772" d="M294 389h166l27 201h-162zM548 289l-34 -248q-2 -10 -6 -19.5t-10.5 -16.5t-17 -11t-25.5 -4q-10 0 -18.5 3t-15.5 9t-11 13.5t-2 16.5l36 257h-162l-36 -249q-2 -10 -5 -19t-10 -16t-18 -11t-25 -4q-9 0 -18.5 3t-16 8.5t-10 13t-2.5 17.5l35 257h-88q-14 0 -25 4.5 t-17 11.5t-9 16t-3 18q0 10 3 18.5t9 15.5t16 11q12 5 26 5h104l26 201h-95q-14 0 -24.5 4t-17 11t-9 16t-2.5 19t2.5 19t9 16t16.5 11t25 4h110l35 250q2 10 5.5 19t10 16t17 11t25.5 4q9 0 18 -3t15.5 -9t10.5 -13.5t2 -16.5l-36 -258h166l33 250q2 20 15.5 35t43.5 15 q9 0 18 -3t15.5 -9t10.5 -13.5t2 -16.5l-34 -258h79q14 0 24.5 -4t16.5 -11t9 -16t3 -19t-3 -19t-9 -16t-16 -11t-25 -4h-91l-30 -201h86q14 0 24 -4.5t16.5 -11.5t9.5 -16t3 -18q0 -10 -3 -18.5t-9.5 -15.5t-16.5 -11.5t-24 -4.5h-102z" />
<glyph unicode="$" horiz-adv-x="772" d="M360 434q-71 15 -127.5 39.5t-95.5 59.5t-60 81t-21 104q0 71 25 125t67 90.5t97 56.5t115 22v96q0 14 9 26t19 12q11 0 20 -12q8 -12 8 -26v-96q25 -1 57.5 -7.5t66.5 -18t66.5 -28.5t58 -39.5t41.5 -50.5t16 -61q0 -18 -6 -32.5t-15 -24.5t-22 -15t-27 -5 q-11 0 -20.5 4.5t-17.5 12.5t-16 18.5t-16 20.5q-12 17 -25.5 35t-32.5 32.5t-45.5 24.5t-62.5 10v-300q42 -10 82.5 -22t76 -28.5t65 -39t51 -54t33.5 -73t12 -94.5q0 -70 -23 -123t-65 -89.5t-101 -56.5t-131 -26v-102q0 -14 -8 -25t-20 -11q-11 0 -19.5 11t-8.5 25v102 q-54 2 -99 14t-81 31t-63 44t-45 53t-27 57t-9 57q0 38 18 58t50 20q21 0 34.5 -6t22 -17t14 -25t9.5 -30q6 -22 15.5 -45t28 -41.5t49.5 -31t83 -15.5v329zM360 888q-38 -1 -69 -12.5t-52.5 -30.5t-33 -43t-11.5 -50q0 -60 41 -97t125 -56v289zM416 104q34 2 66.5 12.5 t58 29t41.5 47.5t16 69t-17 68t-43.5 46t-59 29t-62.5 19v-320z" />
<glyph unicode="%" horiz-adv-x="1388" d="M248 731q0 -37 5 -69.5t17 -57t31 -38.5t49 -14q29 0 48.5 14t31.5 38.5t17 57t5 69.5q0 34 -5 66.5t-17 57.5t-31.5 40t-48.5 15q-30 0 -49 -15t-31 -40t-17 -57.5t-5 -66.5zM936 244q0 -37 5 -69.5t17 -57t31 -38.5t49 -14q29 0 48.5 14t31.5 38.5t17 56.5t5 70 q0 34 -5 66t-17 57t-31.5 40t-48.5 15q-30 0 -49 -15t-31 -40t-17 -57t-5 -66zM136 731q0 52 12 97.5t38 79.5t66 53.5t98 19.5t98 -19.5t66 -53.5t38 -79.5t12 -97.5t-12 -97.5t-38 -79.5t-66 -53t-98 -19t-98 19t-66 53t-38 79.5t-12 97.5zM824 244q0 52 12 97t38 79 t66 54t98 20t98 -20t66 -54t38 -79t12 -97t-12 -98t-38 -79.5t-66 -53t-98 -19.5t-98 19.5t-66 53t-38 79.5t-12 98zM898 977q7 13 17.5 23t26.5 10q9 0 17 -3t14 -8t9.5 -12t3.5 -13q0 -9 -4 -19.5t-10 -22.5l-486 -918q-6 -11 -17 -21.5t-27 -10.5q-9 0 -16.5 3t-13.5 8 t-9 11.5t-3 13.5q0 10 3 20t10 22z" />
<glyph unicode="&#x26;" horiz-adv-x="874" d="M643 308q15 16 26.5 32t21 31t17.5 31t18 33q8 15 21 23t27 8q11 0 21.5 -4.5t19.5 -11.5t14 -16.5t5 -21.5q0 -16 -10 -40t-25 -50.5t-35 -52.5q-20 -25 -40 -45l104 -129q8 -10 10.5 -20.5t1 -21.5t-7.5 -21t-14 -18q-26 -23 -52 -19.5t-48 30.5l-86 103 q-37 -38 -74.5 -64t-77 -42t-81 -24t-84.5 -8q-73 0 -125 23t-86 59.5t-50 82t-16 91.5q0 52 18 97.5t49 83.5t73 69t90 56q-22 26 -42 52t-35 52.5t-24 53.5q-9 28 -9 56q0 54 19.5 96t53 71t78 44t93.5 15q48 0 86 -10t66 -26.5t47.5 -38t31.5 -46.5t17.5 -50t5.5 -49 q0 -38 -16 -73t-44 -65.5t-64 -56.5t-76 -46zM282 783q0 -29 9.5 -53t25 -45t35 -42t39.5 -45q22 14 47.5 30t48.5 38t38 50t15 64q0 25 -10 47.5t-27.5 39.5t-41 27t-51.5 10t-51.5 -9.5t-40.5 -26t-26.5 -38t-9.5 -47.5zM329 484q-33 -21 -62 -43.5t-51.5 -48.5t-35.5 -57 t-13 -69t14.5 -69t39 -52t56 -32.5t66.5 -11.5q61 0 115 25.5t96 83.5z" />
<glyph unicode="'" horiz-adv-x="385" d="M140 950q0 26 14 41.5t38 15.5t38 -16q15 -15 15 -41v-254q0 -26 -14.5 -42t-38.5 -16t-38 16t-14 42v254z" />
<glyph unicode="(" horiz-adv-x="360" d="M59 376q0 54 7 111t20 115t32 116q19 60 43 116q26 62 45.5 101t34 61t26.5 30t24 8q18 0 29.5 -9t11.5 -23q0 -13 -9.5 -41.5t-22.5 -64.5q-16 -44 -34.5 -101t-34.5 -124t-26.5 -142t-10.5 -153q0 -79 10.5 -154t26.5 -141.5t35 -124.5q18 -56 34 -100 q13 -37 22.5 -65.5t9.5 -42.5q0 -13 -11.5 -22t-29.5 -9q-12 0 -23.5 6.5t-26.5 27.5t-34 60t-46 105q-24 57 -42.5 115.5t-32 117t-20.5 116t-7 111.5z" />
<glyph unicode=")" horiz-adv-x="360" d="M298 376q0 -54 -7 -111.5t-20 -116t-32 -116.5t-43 -116q-28 -66 -46.5 -105t-33 -60t-26.5 -27q-12 -7 -24 -7q-18 0 -29 9.5t-11 21.5q0 13 9 41.5t23 66.5q16 44 34 101t34 123.5t27 141t11 154.5q0 79 -11 153.5t-27 141.5t-34 124t-34 101q-13 37 -22.5 65.5 t-9.5 40.5q0 13 11 22.5t29 9.5q12 0 24 -8t27 -30t34 -61t45 -101q24 -56 43 -115t32 -117t20 -115t7 -111z" />
<glyph unicode="*" horiz-adv-x="487" d="M186 771q-14 4 -32.5 9.5t-38 11.5t-39 11t-34.5 10q-16 6 -26 15q-10 10 -10 22t4.5 20t10.5 13t12.5 8t11.5 3t13.5 -3t15.5 -5l130 -46v146q0 21 10 32.5t30 11.5q19 0 29 -12t10 -32v-146l129 46q10 4 21 5t20 -1t15.5 -8t9.5 -16q6 -21 -4 -34.5t-29 -18.5l-144 -42 l99 -131q6 -7 8 -14.5t1 -15.5t-6 -15.5t-13 -12.5q-14 -8 -31.5 -4t-27.5 18l-87 132l-88 -132q-10 -14 -28 -18t-32 4q-8 5 -13 12.5t-6 15.5t1 16t8 14z" />
<glyph unicode="+" horiz-adv-x="833" d="M471 322v-252q0 -12 -4.5 -21.5t-11.5 -17t-17 -11.5t-22 -4t-21 4t-16.5 11.5t-12 17t-4.5 21.5v252h-252q-12 0 -21 4t-16.5 11t-12 17t-4.5 22q0 11 4.5 20.5t12 17.5t17.5 12q8 4 20 4h252v254q0 11 4.5 20.5t12 17.5t17.5 12q8 4 20 4q11 0 21.5 -4t17.5 -12 t11.5 -18t4.5 -20v-254h250q11 0 21 -4t17 -12t11.5 -18t4.5 -20q0 -12 -4.5 -22t-11.5 -17t-17 -11t-21 -4h-250z" />
<glyph unicode="," horiz-adv-x="385" d="M88 84q0 20 7.5 37.5t21 30.5t30.5 20.5t37 7.5q29 0 51 -11t36.5 -30.5t21.5 -46.5q7 -26 7 -58q0 -27 -3 -52.5t-10 -49t-19 -45t-30 -42.5q-12 -13 -26 -25t-29 -21t-30 -15t-29 -6q-16 0 -23.5 8t-7.5 18q0 12 12.5 21.5t28.5 19.5t33 24t30 34t21 46.5t8 62.5 q-14 -13 -29 -15.5t-26 -2.5q-20 0 -35.5 7.5t-26 20t-16 28.5t-5.5 34z" />
<glyph unicode="-" horiz-adv-x="643" d="M534 430q11 0 20.5 -4t17 -12t12 -18t4.5 -20q0 -12 -4.5 -22t-12 -17t-17.5 -11t-20 -4h-424q-12 0 -21 4t-16.5 11t-12 17t-4.5 22q0 11 4.5 20.5t12 17.5t17.5 12q8 4 20 4h424z" />
<glyph unicode="." horiz-adv-x="385" d="M92 84q0 21 8 39.5t21.5 32t32 21.5t38.5 8q21 0 39.5 -8t32.5 -21.5t22 -32t8 -39.5t-8 -39.5t-22 -32t-32 -21.5t-40 -8q-21 0 -39 8t-31.5 21.5t-21.5 32t-8 39.5z" />
<glyph unicode="/" horiz-adv-x="463" d="M366 984q2 6 6 13t10 13t16 10t24 4q8 0 17 -3t16 -8.5t12 -14t5 -18.5q0 -7 -3.5 -17.5t-7.5 -18.5l-365 -925q-2 -6 -5.5 -13t-9.5 -13t-15.5 -10t-25.5 -4q-8 0 -16.5 3t-16 8.5t-11.5 13.5t-4 19q0 8 3 17.5t7 19.5z" />
<glyph unicode="0" horiz-adv-x="772" d="M186 490q0 -36 1 -80t7 -87t18 -84t34 -73t56 -51t83 -19q50 0 84 19t56.5 51t34.5 73t18 84t7 87t1 80t-1 78.5t-7 86t-18 83.5t-34.5 71.5t-57 50t-83.5 18.5q-48 0 -82 -18.5t-56 -50t-34.5 -71.5t-18 -83.5t-7 -86t-1.5 -78.5zM53 490q0 40 1.5 82.5t6.5 85.5 t15 84.5t27 78.5t41 69t58.5 55t79.5 36t103 13q78 0 133 -23t92 -61t58.5 -88.5t33 -106.5t14.5 -114.5t3 -110.5q0 -42 -1.5 -86t-6.5 -88t-15 -85t-27 -78t-41.5 -68t-59 -54t-79.5 -35t-104 -12q-77 0 -132 22t-92 59t-58 87.5t-32 106.5t-14.5 115.5t-3.5 115.5z" />
<glyph unicode="1" horiz-adv-x="772" d="M382 944q6 18 21 30.5t35 12.5q12 0 23 -4.5t19 -12.5t13 -19t5 -23v-876q0 -14 -5 -25t-14 -19.5t-20 -13t-24 -4.5t-24 4.5t-20 13t-14 19.5t-5 25v677q-42 -28 -92 -41.5t-114 -16.5q-12 -1 -23 3t-19.5 11t-14 17t-6.5 22t2.5 23t10.5 20t17.5 14t22.5 7 q41 4 76.5 11.5t64.5 25t50.5 46t34.5 73.5z" />
<glyph unicode="2" horiz-adv-x="772" d="M130 0q-19 0 -34 8.5t-24.5 22t-12.5 31.5t1 36q16 60 44.5 106.5t63 83t74.5 66.5t80 58q64 43 110 75.5t75 64.5t43 68q15 34 15 82q0 40 -14 72t-38.5 54t-57.5 34t-70 12q-43 0 -76.5 -15.5t-57 -42t-36.5 -61.5t-17 -74q-1 -14 -7.5 -25t-15.5 -19.5t-22 -12.5 t-26 -3q-14 1 -25 7t-19.5 16t-12.5 22t-3 26q4 65 28.5 119.5t66.5 94t100 61.5t129 22q64 0 121 -19.5t99.5 -56t66.5 -90t24 -123.5q0 -45 -10 -82.5t-27 -69.5t-40.5 -59t-50 -50t-55.5 -42t-56 -37q-44 -28 -88 -57t-80.5 -59.5t-61.5 -63t-30 -66.5h444q12 0 22.5 -4 t18.5 -12t12 -18.5t4 -22.5t-4 -22.5t-12 -18t-18.5 -12t-22.5 -4.5h-517z" />
<glyph unicode="3" horiz-adv-x="772" d="M346 456q-24 0 -38.5 15t-14.5 37t14.5 37.5t38.5 15.5h12q36 0 69 10t57.5 29.5t39 48.5t14.5 68t-12.5 69t-35 50t-53.5 30t-69 10q-40 0 -70.5 -13t-52 -36t-33.5 -54t-16 -67q-2 -13 -8 -24t-15 -19.5t-21 -12.5t-26 -2q-14 1 -25 7t-19 15.5t-12 21.5t-3 25 q7 60 30.5 110t62 86t90.5 56t118 20q65 0 120.5 -17t96.5 -51t64 -85.5t23 -120.5q0 -32 -10 -61.5t-26.5 -54.5t-40 -45t-50.5 -36q43 -10 74.5 -32t52 -53t30.5 -70t10 -85q0 -47 -12 -87.5t-33 -73.5t-50 -59t-62 -44q-19 -10 -41 -16t-46 -10t-48 -5q-26 -1 -50 -1 q-68 0 -124 17t-98 50t-69 82t-34 113q-2 14 2.5 26t12.5 22t20 16t25 7q14 1 26 -3t21.5 -12.5t15.5 -20t8 -24.5q6 -37 21 -67t40 -52t59 -34q32 -12 74 -12q46 0 84.5 13t66 37t42.5 58t15 78q0 46 -15.5 79.5t-42.5 56t-64.5 33.5t-80.5 11h-29z" />
<glyph unicode="4" horiz-adv-x="772" d="M475 754l-307 -416h307v416zM600 52q0 -14 -5 -25t-13.5 -19.5t-20 -13t-23.5 -4.5q-13 0 -24.5 4.5t-20 13t-13.5 19.5t-5 25v171h-361q-17 0 -32 6.5t-25.5 17t-17 25t-6.5 32.5q0 13 3.5 24.5t11.5 21.5l433 610q9 12 23 19.5t30 7.5q14 0 26 -5.5t21 -14.5t14 -21 t5 -25v-583h87q13 0 23.5 -4.5t18 -12.5t11.5 -18.5t4 -22.5t-4 -22t-11 -18t-18 -12.5t-24 -4.5h-87v-171z" />
<glyph unicode="5" horiz-adv-x="772" d="M162 931q4 20 19 33t36 13h402q12 0 22.5 -4.5t18.5 -12.5t12 -18t4 -22q0 -24 -15 -40t-42 -16h-351l-47 -268q17 17 38 28.5t43.5 19t47 11t48.5 3.5q68 0 126 -21.5t101.5 -64t68.5 -106.5q25 -62 25 -148q0 -42 -9.5 -83.5t-28.5 -78t-48 -67.5t-68 -53.5t-87 -35.5 q-50 -12 -108 -12q-55 0 -105 13.5t-91 41t-70 67.5q-30 41 -42 95q-3 13 -0.5 26t8.5 24t16 19t24 11q13 4 25.5 2t23.5 -8.5t19 -16.5t12 -24q8 -31 24 -56.5t40.5 -44.5t56.5 -29t70 -10q42 0 79 14.5t64.5 43t43.5 71.5t16 101q0 48 -16 88t-44 69t-68 45q-40 17 -88 17 q-28 0 -51 -6.5t-44 -17.5t-39 -26t-36 -33q-11 -11 -25.5 -15.5t-30.5 -2.5q-13 2 -24.5 9t-18.5 16.5t-10 22t0 27.5z" />
<glyph unicode="6" horiz-adv-x="772" d="M398 528q-48 0 -86 -17t-63.5 -46t-39 -69t-13.5 -84q0 -46 14 -86t39.5 -68.5t63 -45t85.5 -16.5q46 0 82 17t61 46t38 68t13 82q0 46 -12 85.5t-36 69.5t-60.5 47t-85.5 17zM564 770q-16 53 -54 80q-36 28 -102 28q-47 0 -82.5 -15.5t-60.5 -42t-41 -62t-26 -75 t-14 -80.5t-6 -79q20 28 46 50t57 37t65.5 23.5t71.5 8.5q73 0 129.5 -25.5t95.5 -69t59 -102.5q21 -58 21 -126q0 -38 -7 -77t-22.5 -77t-41 -71t-62.5 -58t-86.5 -39t-112.5 -14q-74 0 -128.5 21t-92.5 56.5t-61.5 83t-37 100.5t-18 108.5t-4.5 107.5q0 68 7.5 134.5 t24.5 125.5t45 109t68.5 86t95 57t126.5 21q106 0 175 -49t95 -143q4 -12 2 -25t-8.5 -23t-16.5 -18q-11 -8 -23 -11q-14 -4 -25.5 -2t-22 8.5t-17.5 16.5t-11 22z" />
<glyph unicode="7" horiz-adv-x="772" d="M116 856q-12 0 -23 5t-19.5 13t-13 19t-4.5 23t4.5 23.5t13 20t19.5 13t23 4.5h536q14 0 26.5 -5.5t22 -14.5t14.5 -22t5 -27t-5 -26t-14 -21q-47 -46 -90 -103t-80.5 -122.5t-69 -136.5t-56.5 -145.5t-41 -150.5t-24 -150q-2 -15 -9 -27t-17 -20.5t-24 -12.5 q-14 -5 -28 -3q-15 2 -27.5 9t-20.5 17t-12 24t-3 28q14 116 46.5 224t81 207.5t110.5 188.5q63 90 135 168h-456z" />
<glyph unicode="8" horiz-adv-x="772" d="M217 731q0 -38 14.5 -66.5t38.5 -47.5t55 -29t66 -10q34 0 63 10t50 30t33 48.5t12 64.5q0 37 -12 65t-33.5 46t-51.5 27t-65 9q-32 0 -62.5 -9t-54.5 -27t-38.5 -45.5t-14.5 -65.5zM86 738q0 63 24 110.5t65 79.5t94 49t110 17q80 0 137.5 -22t94.5 -58t54 -82t17 -94 q0 -33 -9 -63.5t-25.5 -56.5t-40 -47t-52.5 -37q39 -16 70 -40.5t53 -56t33.5 -69.5t11.5 -82q0 -73 -26.5 -129.5t-71.5 -94.5t-106 -58t-128 -20q-72 0 -133.5 19t-107.5 57t-72.5 95t-26.5 131q0 43 10.5 81.5t30.5 69.5t50 55q31 24 71 40q-30 14 -53.5 36t-39.5 49 t-25 58t-9 63zM184 282q0 -44 15.5 -78.5t43 -58t65.5 -36.5t83 -13q44 0 80.5 14t62.5 39t40 59t14 76q0 38 -16 72t-43 58.5t-63 38.5t-77 14q-42 0 -79.5 -12.5t-65 -36.5t-44 -58.5t-16.5 -77.5z" />
<glyph unicode="9" horiz-adv-x="772" d="M374 448q48 0 85.5 17t63 46.5t38.5 69t13 85.5t-13 85t-39 68t-64 45q-36 16 -84 16q-46 0 -83 -16.5t-61.5 -45.5t-37.5 -67.5t-13 -82.5q0 -46 12 -86t36.5 -69.5t61 -47t85.5 -17.5zM206 208q16 -53 54 -81.5t104 -28.5q47 0 81.5 16t59.5 43t41 62t26 74t15 80t6 79 q-20 -28 -46.5 -49.5t-57 -37t-65 -23.5t-71.5 -8q-73 0 -130 25t-96 69t-59 103t-20 127q0 38 7 77t23 76t41 70t62 58t86 40t113 15q74 0 128 -21t92 -57t62 -83.5t37 -101t18 -108.5t5 -107q0 -68 -7.5 -134t-24.5 -125.5t-44.5 -109.5t-68.5 -86.5t-96 -56.5t-125 -20 q-106 0 -176 48q-69 50 -95 144q-4 12 -1.5 24t8.5 23t16 18.5t22 10.5q14 4 26 2t22 -8t17 -16t11 -22z" />
<glyph unicode=":" horiz-adv-x="385" d="M92 84q0 21 8 39.5t21.5 32t32 21.5t38.5 8q21 0 39.5 -8t32.5 -21.5t22 -32t8 -39.5t-8 -39.5t-22 -32t-32 -21.5t-40 -8q-21 0 -39 8t-31.5 21.5t-21.5 32t-8 39.5zM92 642q0 21 8 39t21.5 31.5t32 21.5t38.5 8q21 0 39.5 -8t32.5 -21.5t22 -32t8 -38.5q0 -21 -8 -39.5 t-22 -32.5t-32 -22t-40 -8q-21 0 -39 8t-31.5 22t-21.5 32.5t-8 39.5z" />
<glyph unicode=";" horiz-adv-x="385" d="M92 642q0 21 8 39t21.5 31.5t32 21.5t38.5 8q21 0 39.5 -8t32.5 -21.5t22 -32t8 -38.5q0 -21 -8 -39.5t-22 -32.5t-32 -22t-40 -8q-21 0 -39 8t-31.5 22t-21.5 32.5t-8 39.5zM88 84q0 20 7.5 37.5t21 30.5t30.5 20.5t37 7.5q29 0 51 -11t36.5 -30.5t21.5 -46.5 q7 -26 7 -58q0 -27 -3 -52.5t-10 -49t-19 -45t-30 -42.5q-12 -13 -26 -25t-29 -21t-30 -15t-29 -6q-16 0 -23.5 8t-7.5 18q0 12 12.5 21.5t28.5 19.5q15 9 31.5 22.5t30 33.5t22 47t8.5 64q-14 -13 -29 -15.5t-26 -2.5q-20 0 -35.5 7.5t-26 20t-16 28.5t-5.5 34z" />
<glyph unicode="&#x3c;" horiz-adv-x="833" d="M190 380l538 -238q12 -5 22 -12t16 -16t8 -20q2 -12 -4 -25q-6 -16 -17 -23.5t-24 -8.5t-27 2t-27 9l-607 279q-14 7 -24 21t-10 32q0 17 10 31t24 21l605 278q16 8 31.5 11.5t28.5 1.5t22 -10.5t15 -24.5q4 -13 2 -23.5t-8 -19.5t-15 -16t-19 -11z" />
<glyph unicode="=" horiz-adv-x="833" d="M722 568q11 0 20.5 -4.5t17 -12t12 -17.5t4.5 -21q0 -12 -4.5 -21.5t-12 -16.5t-17.5 -11.5t-20 -4.5h-612q-12 0 -21 4.5t-16.5 11.5t-12 17t-4.5 21t4.5 21t12 17.5t17.5 12.5q8 4 20 4h612zM722 293q11 0 20.5 -4.5t17 -11.5t12 -17t4.5 -22t-4.5 -21t-12 -16.5 t-17.5 -12t-20 -4.5h-612q-12 0 -21 4.5t-16.5 12t-12.5 17.5q-4 8 -4 20q0 11 4.5 21.5t12 17.5t17.5 11q8 5 20 5h612z" />
<glyph unicode="&#x3e;" horiz-adv-x="833" d="M103 618q-10 4 -19.5 11t-15.5 15.5t-8 19.5q0 11 4 24q6 16 15 24.5t22 10.5t28 -1.5t31 -11.5l605 -278q14 -7 24 -21.5t10 -30.5q0 -17 -10 -32q-11 -14 -25 -21l-606 -279q-13 -6 -26.5 -9t-26.5 -2t-24 8.5t-17 23.5q-6 14 -4.5 25t8 20t16.5 16.5t21 11.5l538 238z " />
<glyph unicode="?" horiz-adv-x="772" d="M88 774q0 47 23.5 90t63 75.5t91.5 52.5t108 20q40 0 78.5 -7t73 -20t64.5 -34t51.5 -50t34 -66t12.5 -83q0 -42 -16 -80t-41 -71.5t-56 -63t-62 -53.5q-17 -14 -32 -30t-27 -35.5t-19 -43t-9 -53.5q0 -10 -5 -19.5t-13 -18t-19 -13.5t-25 -5t-25 6t-18.5 15.5 t-10.5 21.5q-4 11 -4 23q0 34 10 66t26.5 59.5t37 51t41.5 41.5q23 20 46 42t41 47t30 53t12 60q0 36 -12 65t-34 49t-53 30t-69 10t-65.5 -9.5t-47 -26.5t-32.5 -39.5t-21 -46.5q-4 -14 -10 -26t-14 -21t-20 -15q-10 -5 -26 -5q-12 0 -22.5 3.5t-18.5 10.5t-12.5 18 t-4.5 25zM281 82q0 -18 6.5 -34t18.5 -27.5t28 -18t34 -6.5t33.5 6.5t27 18t18.5 27.5t7 34t-7 34t-18.5 27.5t-27 18t-33.5 6.5t-34 -6.5t-28 -18t-18.5 -27.5t-6.5 -34z" />
<glyph unicode="@" horiz-adv-x="1110" d="M407 464q0 -36 9.5 -62.5t26.5 -45t41 -28t52 -9.5q34 0 61.5 13.5t47.5 38.5t31 57q12 34 12 72q0 32 -8 58t-24 44.5t-39 29t-54 10.5q-34 0 -62.5 -14.5t-49.5 -39t-32.5 -56.5t-11.5 -68zM762 364q0 -22 10 -35.5t36 -13.5q22 0 46 16.5t45.5 47.5t35.5 75t14 100 q0 91 -28 159.5t-78.5 115t-119.5 70t-153 23.5q-52 0 -102 -15t-94.5 -42.5t-82 -66t-64.5 -85.5t-42 -101.5t-15 -113.5q0 -64 15 -120.5t41.5 -104t64 -84.5t83 -63t97.5 -39.5t108 -13.5q54 0 94.5 7.5t70.5 18.5t52 24t38 23l21 14t17 6q12 0 21.5 -10t9.5 -24 q0 -17 -13.5 -34.5t-37.5 -33.5t-56 -31t-68 -25.5t-74 -17t-75 -6.5q-74 0 -140.5 17.5t-124 50t-104 78t-79 103t-50 124.5t-17.5 141t17.5 140.5t50 123.5t78.5 103.5t102.5 78.5t122 50t136.5 18q62 0 121.5 -12t111.5 -36.5t96 -62t76 -87.5t49.5 -113t17.5 -140 q0 -65 -14 -116.5t-38 -91t-55.5 -66.5t-66.5 -45t-72 -26t-71 -8q-15 0 -29 5t-24.5 16t-17.5 27t-7 38q-14 -20 -31.5 -33.5t-37 -22t-40.5 -12t-44 -3.5q-40 0 -75.5 17.5t-61.5 48.5t-42 73t-16 90q0 68 20 122t54.5 91.5t79 57.5t94.5 20q28 0 54 -7t48.5 -21.5 t40 -35.5t27.5 -49l14 78q2 10 7 16.5t11.5 10.5t14 5.5t13.5 1.5q16 0 24 -5t12 -13.5t4 -19t-2 -20.5z" />
<glyph unicode="A" horiz-adv-x="901" d="M610 416l-156 446l-156 -446h312zM160 38q-6 -16 -16 -26t-23 -15.5t-27 -5.5t-29 5q-14 5 -25.5 14.5t-17.5 21.5t-7 26t5 28l332 860q6 16 15 27t19.5 17t22 8t24.5 2h41q28 0 46 -12t29 -40l331 -868q5 -13 5 -25.5t-4.5 -24.5t-14 -21t-22.5 -13q-13 -5 -26.5 -4.5 t-26.5 5.5t-22 14t-15 23l-98 265h-404z" />
<glyph unicode="B" horiz-adv-x="952" d="M500 574q56 0 95 11t64 32t37 51t12 70q0 35 -7 58.5t-19 39.5t-30 24.5t-40.5 12.5t-48 4.5t-53.5 0.5h-262v-304h252zM178 0q-14 0 -27 5.5t-22 15t-15 22.5t-6 27v860q0 14 6 27t15 22t22 15t27 6h332q81 0 143.5 -10t105.5 -37t65 -77t22 -128q0 -80 -34 -133 t-102 -85q44 -12 77.5 -34t56 -53t34 -70t11.5 -84q0 -54 -20 -105.5t-58.5 -92.5t-95.5 -66t-131 -25h-406zM565 119q44 0 78.5 12t58.5 34.5t36 55.5t12 74q0 47 -19 77.5t-49 48t-68 24.5t-76 7h-290v-333h317z" />
<glyph unicode="C" horiz-adv-x="1003" d="M802 336q2 14 10 25t19 18.5t24 10t27 0.5q14 -3 25 -11t18 -18.5t10 -24.5q3 -12 1 -26q-16 -80 -51 -141.5t-87.5 -103.5t-123 -63.5t-156.5 -21.5q-115 0 -201 39.5t-143.5 109t-85.5 163.5t-28 204q0 74 13 141.5t40 126t66.5 106.5t91.5 82t116.5 53t140.5 19 q68 0 130 -16t113 -48t88 -78.5t59 -107.5q4 -14 3 -27t-7 -25t-16 -21t-24 -13t-28 -3t-25.5 7t-20.5 16t-13 24q-14 44 -38.5 76t-58 54t-75 32.5t-89.5 10.5q-57 0 -103 -15.5t-82.5 -42.5t-63.5 -65t-44 -82t-26 -93.5t-9 -100.5q0 -84 19.5 -158t60 -130t102.5 -89 t148 -33q58 0 104.5 18t81 50t57 76t31.5 96z" />
<glyph unicode="D" horiz-adv-x="979" d="M454 119q16 0 39.5 1.5t50 8t54.5 18t55 30.5t51.5 47.5t42.5 68t28.5 92t10.5 119.5q0 90 -17 160t-56 117.5t-101.5 72t-152.5 24.5h-211v-759h206zM178 0q-14 0 -27 5.5t-22 15t-15 22.5t-6 27v860q0 14 6 27t15 22t22 15t27 6h266q115 0 204.5 -29.5t150.5 -89 t93 -148.5t32 -209q0 -126 -28 -223.5t-86 -164t-149 -101.5t-217 -35h-266z" />
<glyph unicode="E" horiz-adv-x="848" d="M248 452v-333h499q13 0 24 -4.5t19 -12.5t12 -19t4 -23t-4 -23t-12 -19t-19 -13t-24 -5h-569q-14 0 -27 5.5t-22 15t-15 22.5t-6 27v860q0 14 6 27t15 22t22 15t27 6h569q14 0 24.5 -5t18.5 -13t12 -19t4 -24q0 -12 -4 -23.5t-12 -19.5t-19 -13t-24 -5h-499v-304h458 q13 0 24 -5t18.5 -13t12.5 -19t5 -24q0 -12 -5 -23.5t-12.5 -19.5t-18.5 -13t-24 -5h-458z" />
<glyph unicode="F" horiz-adv-x="796" d="M248 452v-392q0 -16 -5.5 -29t-15 -22t-22.5 -14t-27 -5t-27 5t-22 14t-15 22t-6 29v870q0 14 6 27t15 22t22 15t27 6h532q14 0 25 -5t19 -13t12 -19t4 -24q0 -12 -4 -23.5t-12 -19.5t-19 -13t-25 -5h-462v-304h397q13 0 24 -5t19 -13t12 -19t4 -24q0 -12 -4 -23.5 t-12 -19.5t-19 -13t-24 -5h-397z" />
<glyph unicode="G" horiz-adv-x="1054" d="M968 52q0 -14 -5 -26t-13 -20t-19.5 -12t-24.5 -4t-24.5 4t-19.5 12.5t-13 20t-5 25.5v64q-30 -36 -66 -62t-77 -42t-84 -24t-85 -8q-74 0 -138 18.5t-116 52t-93 80t-69 102t-42 119.5t-14 130q0 72 13 140t39 128t65.5 110.5t92 87t118.5 56.5t144 20q68 0 133 -14.5 t119.5 -46t95 -80.5t60.5 -119q4 -14 3 -27t-7 -25t-16 -21t-24 -13t-27 -3t-25 7t-21 16t-13 24q-13 48 -40.5 82t-64.5 57t-81 33.5t-92 10.5q-59 0 -106.5 -16.5t-84.5 -45.5t-64 -68t-44 -85.5t-26 -97.5q-9 -50 -9 -102t10 -101t29 -93t47 -80.5t65 -63t83 -41.5 t100 -15q48 0 91 11t78 31t62 48t45 63t27 75q9 42 7 86h-263q-14 0 -25.5 4.5t-19 13t-12 19.5t-4.5 23t4.5 23t12 19.5t19 13t25.5 4.5h327q13 0 24.5 -4t19.5 -12t13 -20t5 -26v-416z" />
<glyph unicode="H" horiz-adv-x="1003" d="M895 60q0 -16 -5.5 -29t-15 -22t-22 -14t-27.5 -5q-14 0 -27 5t-22.5 14t-14.5 22t-5 29v392h-508v-392q0 -16 -5.5 -29t-15 -22t-22.5 -14t-27 -5t-27 5t-22 14t-15 22t-6 29v880q0 16 6 29t15 22t22 14t27 5t27 -5t22.5 -14t15 -22t5.5 -29v-366h508v366q0 16 5 29 t14.5 22t22 14t27.5 5q14 0 27 -5t22.5 -14t15 -22t5.5 -29v-880z" />
<glyph unicode="I" horiz-adv-x="385" d="M262 60q0 -16 -5 -29t-15 -22t-22 -14q-14 -5 -28 -5t-27 5t-22 14t-15 22t-6 29v880q0 16 6 28.5t15 22t22 14.5t27 5t27 -5t23 -14.5t15 -22.5q5 -12 5 -28v-880z" />
<glyph unicode="J" horiz-adv-x="721" d="M172 276q0 -34 6 -66.5t22 -57.5t46 -40.5t78 -15.5q43 0 71.5 12.5t45.5 35t24.5 54.5t7.5 72v670q0 16 5.5 28.5t14.5 22t22 14.5t27 5t27 -5t23 -14.5t15 -22.5q5 -12 5 -28v-688q0 -36 -6 -70t-19 -64t-35.5 -55.5t-55 -44t-76.5 -28.5t-100 -10q-142 0 -217 74 t-75 222q0 16 6 29t16 22t23 14t27 5t27 -5t23 -14t16 -22t6 -29z" />
<glyph unicode="K" horiz-adv-x="906" d="M402 498l-154 -146v-292q0 -16 -5.5 -29t-15 -22t-22.5 -14t-27 -5t-27 5t-22 14t-15 22t-6 29v880q0 16 6 28.5t15 22t22 14.5t27 5t27 -5t22.5 -14.5t14.5 -22.5q6 -12 6 -28v-430l484 482q9 8 19.5 12.5t22.5 4.5t23 -4.5t19 -12.5q9 -8 13.5 -20t4.5 -23t-4.5 -22.5 t-13.5 -20.5l-320 -310l368 -500q8 -11 11 -24t1 -25.5t-9 -24t-18 -19.5t-24 -11t-25 -1t-23.5 8.5t-19.5 18.5z" />
<glyph unicode="L" horiz-adv-x="764" d="M178 0q-14 0 -27 5t-22 14t-15 22t-6 29v870q0 16 6 28.5t15 22t22 14.5t27 5t27 -5t22.5 -14.5t14.5 -22.5q6 -12 6 -28v-821h456q27 0 43.5 -17.5t16.5 -41.5q0 -25 -16 -42.5t-44 -17.5h-526z" />
<glyph unicode="M" horiz-adv-x="1204" d="M1096 60q0 -16 -6 -29t-15 -22t-22 -14t-27 -5t-27 5t-22.5 14t-15 22t-5.5 29v766l-282 -784q-8 -22 -27 -37t-45 -15q-25 0 -44 14q-20 16 -28 38l-282 786v-768q0 -16 -5.5 -29t-15 -22t-22.5 -14t-27 -5t-27 5t-22 14t-15 22t-6 29v858q0 25 8 41t21.5 25t30 12.5 t33.5 3.5h37q20 0 34.5 -5t26 -14t19.5 -24t16 -36l266 -755l268 755q8 21 16 36t19.5 24t26 14t34.5 5h39q17 0 33.5 -3.5t30 -12.5t21.5 -25t8 -41v-858z" />
<glyph unicode="N" horiz-adv-x="1007" d="M899 89q0 -25 -7.5 -43.5t-21 -31t-31 -18.5t-38.5 -6q-27 0 -49.5 13t-35.5 34l-468 770v-747q0 -16 -5.5 -29t-15 -22t-22.5 -14t-27 -5t-27 5t-22 14t-15 22t-6 29v850q0 24 8 43t21 31.5t31 19t38 6.5q27 0 49.5 -13t35.5 -35l469 -774v752q0 16 5 28.5t14.5 22 t22 14.5t27.5 5q14 0 27 -5t22.5 -14.5t15.5 -22.5q5 -12 5 -28v-851z" />
<glyph unicode="O" horiz-adv-x="1057" d="M192 500q0 -50 8.5 -99t26 -94t44 -83.5t64 -67t85.5 -44.5q46 -16 106 -16t109 16t86.5 44.5t64.5 67t44.5 83.5t25.5 94t8 99t-8 99t-25.5 94t-44.5 84t-64.5 67t-85.5 44q-50 17 -110 17t-107 -16.5t-84.5 -44.5t-64 -67t-44 -84t-26 -94t-8.5 -99zM53 500 q0 68 13 133.5t39.5 124t65.5 107.5t91.5 84t118.5 55q65 20 145 20t146.5 -20t119.5 -55t92.5 -84t66 -107.5t40 -124t13.5 -133.5t-13.5 -134t-40 -123.5t-66 -106t-92.5 -83.5t-119.5 -54t-146.5 -19t-145.5 19t-118 54t-91.5 83.5t-65.5 106t-39.5 123.5t-13 134z" />
<glyph unicode="P" horiz-adv-x="901" d="M494 526q110 -2 162 44t52 132t-52 131t-162 45h-246v-352h246zM248 60q0 -16 -5.5 -29t-15 -22t-22.5 -14t-27 -5t-27 5t-22 14t-15 22t-6 29v870q0 14 6 27t15 22t22 15t27 6h360q77 0 134.5 -20t96.5 -58t58 -94t19 -126t-19 -125t-58 -93t-96 -58t-135 -18h-290v-348 z" />
<glyph unicode="Q" horiz-adv-x="1057" d="M760 192q28 29 47.5 65t32 75.5t18.5 81.5t6 86q0 50 -8 99t-25.5 94t-44.5 84t-64.5 67t-85.5 44q-50 17 -110 17t-107 -16.5t-84.5 -44.5t-64 -67t-44 -84t-26.5 -95q-8 -48 -8 -98t8.5 -99t26 -94t44 -83.5t64 -67t85.5 -44.5q46 -16 106 -16q40 0 74 6.5t64 20.5 l-67 55q-10 8 -15 18t-6.5 20.5t1.5 21t11 20.5t17.5 15t20.5 6t22 -2q10 -3 20 -11zM768 39q-51 -30 -110.5 -44.5t-131.5 -14.5q-80 0 -145.5 19t-118 54t-91.5 83.5t-65.5 106t-39.5 123.5t-13 134t13 133.5t39.5 124t65.5 107.5t91.5 84t118.5 55q65 20 145 20 t146.5 -20t119.5 -55t92.5 -84t66 -107.5t40 -124t13.5 -133.5q0 -56 -9 -110t-27 -104t-44 -94t-62 -82l98 -76q10 -8 15 -18t6.5 -21.5t-1.5 -22.5q-2 -11 -10 -20q-8 -10 -18.5 -15t-22 -6t-22.5 2t-21 11z" />
<glyph unicode="R" horiz-adv-x="952" d="M876 79q6 -16 4.5 -29.5t-8 -24.5t-17.5 -19t-24 -13q-14 -4 -27 -2.5t-24.5 7.5t-20.5 16t-15 24q-8 22 -11.5 48t-5 54l-3 56t-5.5 54q-6 34 -13.5 66t-24.5 56t-46 38t-76 14h-311v-364q0 -16 -5.5 -29t-15 -22t-22.5 -14t-27 -5t-27 5t-22 14t-15 22t-6 29v870 q0 14 6 27t15 22t22 15t27 6h394q72 0 128.5 -18t96 -52t59.5 -83.5t20 -111.5q0 -44 -8.5 -84t-28 -72.5t-49.5 -57.5t-73 -39q42 -10 67 -30t39.5 -47t20.5 -60t10 -69q3 -38 4.5 -67.5t3.5 -53t5 -42t9 -34.5zM512 540q44 0 84.5 8t72 28t50.5 54t19 87q0 36 -10.5 65.5 t-32 51t-54.5 33t-78 11.5h-315v-338h264z" />
<glyph unicode="S" horiz-adv-x="896" d="M54 265q-2 14 0.5 26.5t9 23.5t16.5 19t24 11t27 1t24 -8.5t18.5 -17t9.5 -24.5q7 -52 32 -90t62 -62t84 -36t99 -12q30 0 60 3.5t57 11t51 20.5t41 33t27 46t10 62q0 46 -23 76t-61 50t-88 32t-104 24l-86 20t-82.5 24t-72.5 34t-58 47t-39 64t-14 86q0 50 14 92 t38 74.5t58 57t74 40t85 23.5t91 8q68 0 127 -15t105.5 -45t78 -77t45.5 -112q2 -14 0 -26.5t-9 -23.5t-17 -19t-24 -12q-14 -3 -27 -0.5t-24 9t-19 17t-11 24.5q-10 42 -30 73t-49.5 50t-67.5 29q-38 9 -84 9q-40 0 -79 -8.5t-69 -27.5t-49 -51t-19 -78q0 -39 21 -65.5 t55.5 -44.5t80.5 -30q45 -12 97 -22q44 -10 89 -20t86.5 -25t78 -36t63 -51.5t42 -72t15.5 -97.5q0 -54 -16 -97t-44 -76t-65 -56.5t-80 -38t-90 -21.5t-93 -7q-76 0 -144 16t-122 51t-90 89t-46 129z" />
<glyph unicode="T" horiz-adv-x="801" d="M61 878q-14 0 -24.5 5t-18.5 13t-12 19t-4 24q0 12 4 23.5t12 19.5t19 13t24 5h679q14 0 24.5 -5t18.5 -13t12.5 -19t4.5 -24q0 -12 -4.5 -23.5t-12 -19.5t-18.5 -13t-25 -5h-273v-818q0 -16 -5.5 -29t-15 -22t-22 -14t-27.5 -5q-14 0 -27 5t-22.5 14t-14.5 22t-5 29v818 h-267z" />
<glyph unicode="U" horiz-adv-x="1016" d="M248 362q0 -266 268 -266q252 0 252 266v578q0 16 5.5 28.5t15 22t21.5 14.5q14 5 28 5t27 -5t22 -14.5t15 -22.5q6 -12 6 -28v-578q0 -96 -26 -167.5t-76 -119.5t-123 -71.5t-167 -23.5q-97 0 -172.5 22t-127.5 69t-80 119t-28 172v578q0 16 6 28.5t15 22t22 14.5t27 5 t27 -5t22.5 -14.5t14.5 -22.5q6 -12 6 -28v-578z" />
<glyph unicode="V" horiz-adv-x="848" d="M514 41q-6 -16 -14 -26t-20 -15.5t-26 -8t-32 -2.5t-33 2.5t-26 8t-19 15.5t-14 26l-305 875q-6 16 -4.5 30t7.5 26t16 21t24 13q29 10 54.5 0t37.5 -44l266 -808l266 809q5 15 13.5 25.5t20.5 16t26 6.5t28 -4q14 -4 24 -13.5t16 -21t7 -25.5t-4 -29z" />
<glyph unicode="W" horiz-adv-x="1286" d="M1020 60q-6 -20 -13 -33t-17 -21.5t-25 -12t-35 -3.5q-21 0 -35.5 4t-25 13.5t-17 23t-11.5 33.5l-204 755l-205 -760q-6 -20 -13 -33t-17 -21.5t-24 -11.5t-34 -3q-21 0 -35.5 4t-24.5 13t-16 23q-8 14 -12 32l-230 860q-4 15 -2 29.5t9 25.5t17.5 19t24.5 12t27.5 2 t25.5 -9t20 -18t12 -25l194 -770l196 755q4 15 10 27t15.5 21t25 14t37.5 5q26 0 43 -4.5t27 -13t16 -20.5q6 -14 10 -30l198 -756l198 773q4 14 12 25t19.5 17.5t25 8.5t27.5 -2t24 -12t16.5 -18.5t8 -24t-2.5 -28.5z" />
<glyph unicode="X" horiz-adv-x="799" d="M400 404l-255 -384q-8 -12 -18.5 -19t-23 -10t-25 -1t-24.5 10q-12 7 -19 17.5t-10 23.5t-1 25t10 24l282 424l-264 388q-8 12 -10 26t1 27t11 25q8 10 20 18t25.5 10.5t27 -0.5t24.5 -10.5t19 -20.5l232 -363l238 366q8 12 19 19t23 10t25 1t24 -10q12 -7 19.5 -18 t10 -23.5t-0.5 -24.5q-2 -12 -9 -24l-267 -396l280 -414q8 -12 10.5 -26.5t-0.5 -28t-11 -24.5t-20 -19q-13 -8 -27 -10t-27 1t-25 11q-11 8 -19 20z" />
<glyph unicode="Y" horiz-adv-x="843" d="M492 60q0 -16 -5.5 -29t-15 -22t-22.5 -14t-28 -5q-14 0 -27 5t-22.5 14t-15 22t-5.5 29v350l-319 492q-8 12 -10 26t1 27t11 25q8 10 20 18t25.5 10.5t27 -0.5t24.5 -10.5t19 -20.5l276 -445l272 446q8 12 19 20t23.5 11t25.5 1q14 -2 26 -10t19 -19t10 -23.5t1 -25.5 t-10 -25l-320 -497v-350z" />
<glyph unicode="Z" horiz-adv-x="890" d="M110 0q-16 0 -29 6t-22 17t-14 25t-5 31q0 27 16 48l598 751h-507q-14 0 -24.5 5t-18.5 13t-12 19t-4 24q0 12 4 23.5t12 19.5t19 13t24 5h615q16 0 29 -6.5t22 -17t14 -24.5q5 -16 5 -32q0 -28 -16 -48l-594 -751h569q14 0 24.5 -4.5t18.5 -13t12 -19.5q4 -12 4 -24 t-4 -23t-12 -19t-19 -13t-24 -5h-681z" />
<glyph unicode="[" horiz-adv-x="364" d="M215 -182h81q24 0 40 -10t16 -35t-16 -35t-40 -10h-122q-16 0 -31 3t-27 11.5t-19 25t-7 44.5v1128q0 28 7 44.5t19 25t27 11.5t31 3h122q24 0 40 -10t16 -35t-16 -35t-40 -10h-81v-1116z" />
<glyph unicode="\" horiz-adv-x="463" d="M462 60q4 -10 7 -19t3 -18q0 -10 -5 -18.5t-12 -14t-16 -8.5t-17 -3q-15 0 -24.5 4t-15.5 10t-9.5 13t-5.5 13l-365 925q-4 9 -7 19t-3 17q0 10 4.5 18.5t12 14t15.5 8.5q10 3 18 3q14 0 23.5 -4t16 -10t9.5 -13t6 -13z" />
<glyph unicode="]" horiz-adv-x="364" d="M150 934h-82q-24 0 -39.5 10t-15.5 35t15.5 35t39.5 10h122q16 0 31.5 -3t27 -11.5t18.5 -25t7 -44.5v-1128q0 -28 -7 -44.5t-18.5 -25t-27 -11.5t-31.5 -3h-122q-24 0 -39.5 10t-15.5 35q0 24 15.5 34.5t39.5 10.5h82v1116z" />
<glyph unicode="^" horiz-adv-x="833" d="M416 864l-206 -377q-13 -24 -30 -33t-41 -9q-21 0 -32 6.5t-13.5 16.5t1.5 23q3 13 11 27l241 436q16 28 32.5 37t36.5 9t37 -9t33 -37l240 -436q8 -15 12 -28.5t1 -23.5t-13 -16t-30 -6q-24 0 -42 8t-32 34z" />
<glyph unicode="_" horiz-adv-x="702" d="M40 -176q-8 0 -15 3t-13 8.5t-9 13t-3 16.5q0 8 3 15.5t9 13.5t13 9t15 3h623q8 0 15.5 -3t12.5 -9t8 -13t3 -16q0 -8 -3 -16t-8 -13.5t-12.5 -8.5t-15.5 -3h-623z" />
<glyph unicode="`" horiz-adv-x="349" d="M274 878q6 -9 11 -19.5t6 -21.5t-2 -21.5t-13 -18.5q-10 -9 -21.5 -10t-22.5 3.5t-20.5 12t-16.5 13.5l-105 115q-12 12 -20 24.5t-10.5 24.5t2 23.5t18.5 23.5q18 14 33 15.5t28 -5.5t25 -19l22 -28z" />
<glyph unicode="a" horiz-adv-x="745" d="M316 96q57 0 96.5 16t65 39t37 51t11.5 52v118q-16 -10 -38.5 -17t-50 -12t-57 -9t-58 -10.5t-54.5 -16t-45.5 -24t-31 -36t-11.5 -51.5q0 -28 11 -47t30 -31t43.5 -17t51.5 -5zM730 60q4 -22 -2.5 -37t-20 -23.5t-31.5 -12t-37 -3.5q-22 0 -41.5 7t-33.5 21t-22 35 t-8 49q-21 -28 -48 -49t-59 -35t-67 -21t-71 -7q-50 0 -93.5 11t-76 36t-51.5 63t-19 94q0 42 9.5 73t26 54t39 38t49.5 25.5t56 18t60 13.5q22 4 48.5 8t52.5 9t51 11t44 16t30 25t11 35q0 38 -13.5 61t-35 35t-49.5 16.5t-56 4.5q-31 0 -58 -4.5t-48.5 -15.5t-36.5 -30 t-21 -47q-3 -13 -10.5 -23.5t-17.5 -17t-22 -9t-25 -0.5q-13 3 -23 10.5t-17 17.5t-9 22q-2 14 0 26q11 50 39.5 85t68.5 57t89 32t102 10q32 0 64.5 -3t62.5 -11.5t56 -23t46 -37t31 -54t11 -75.5v-368v-33.5t3 -22t9.5 -12.5t19.5 -6q36 -2 44 -38z" />
<glyph unicode="b" horiz-adv-x="823" d="M637 366q0 48 -12 95.5t-38 85t-66.5 61t-98.5 23.5t-99 -23.5t-66 -61.5t-37 -86q-11 -48 -11 -96q0 -52 11.5 -100t38 -85.5t69 -60t102.5 -22.5q59 0 98.5 23t63.5 60t34.5 86t10.5 101zM88 946q0 14 5 26t13.5 20t20 13t25.5 5q13 0 24.5 -5t20 -13t13.5 -20t5 -26 v-312q18 26 43 46.5t54 34.5t61.5 21.5t64.5 7.5q55 0 101.5 -15t83.5 -40.5t65 -61t47 -78t28 -90t9 -97.5q0 -78 -21 -147t-62 -120.5t-103 -81t-144 -29.5q-26 0 -56.5 4.5t-61 16.5t-59.5 32t-50 51v-34q0 -14 -5 -26t-13.5 -20.5t-20.5 -13t-24 -4.5q-13 0 -25 4.5 t-20.5 13t-13.5 20.5t-5 26v892z" />
<glyph unicode="c" horiz-adv-x="735" d="M688 198q-16 -52 -43 -92t-64.5 -67t-86 -41t-109.5 -14q-84 0 -146.5 27.5t-104.5 77t-63.5 117.5t-21.5 148t20.5 151.5t62.5 124t106 83.5t151 31q52 0 98.5 -11t85 -33.5t67 -56t44.5 -79.5q4 -13 3 -25.5t-6 -23.5t-14 -20t-21 -13t-25 -4t-24.5 5.5t-20.5 14.5 q-10 10 -14 22q-18 54 -58 82.5t-104 28.5q-63 0 -105.5 -23t-67.5 -61.5t-36 -88.5t-11 -104q0 -33 5 -64.5t15.5 -60.5t27 -53t39 -42t52 -28t66.5 -10q77 0 122 36t62 105q4 12 12.5 21.5t19 15.5t23 7t24.5 -3t21.5 -12t15 -19t6.5 -24t-3 -25z" />
<glyph unicode="d" horiz-adv-x="821" d="M184 366q0 -52 10 -101t34 -86t64 -60t99 -23q60 0 102.5 22.5t68.5 60t38 85.5t12 100q0 48 -11 96t-37 86t-66 61.5t-99 23.5q-58 0 -98.5 -23.5t-66.5 -61t-38 -85t-12 -95.5zM733 54q0 -14 -5 -26t-13.5 -20.5t-20.5 -13t-24 -4.5q-13 0 -25 4.5t-20.5 13t-13.5 20.5 t-5 26v34q-22 -31 -50 -51t-59 -32t-62 -16.5t-57 -4.5q-82 0 -143.5 29.5t-103 81t-62 120.5t-20.5 147q0 50 9.5 97.5t28 90t46.5 78t65 61t83 40.5q45 15 101 15q32 0 65 -7.5t62 -21t54 -34t43 -46.5v311q0 14 5 26t13.5 20t20 13t25.5 5q13 0 24.5 -5t20 -13t13.5 -20 t5 -26v-892z" />
<glyph unicode="e" horiz-adv-x="745" d="M381 631q-44 0 -80 -15.5t-61.5 -42t-41 -62t-18.5 -75.5h402q0 44 -14 80t-40 62t-63.5 39.5t-83.5 13.5zM180 326q0 -47 13 -88.5t40.5 -73t69 -50t97.5 -18.5q60 0 105 26.5t67 83.5q10 26 31 35t45 1q12 -4 21 -13t14 -19t5 -22t-4 -24q-18 -44 -46 -78t-65 -57 t-82 -34t-95 -11q-87 0 -151.5 28t-107 79t-63.5 121q-22 70 -25 154q0 82 24.5 151t69.5 119t107 79t137 29q58 0 105 -14.5t83.5 -39.5t62.5 -59t43 -74t25 -83.5t8 -88.5q0 -12 -5 -23t-13 -19t-20 -13q-12 -4 -24 -4h-472z" />
<glyph unicode="f" horiz-adv-x="418" d="M262 54q0 -14 -5 -26t-14 -20.5t-20 -13t-25 -4.5q-13 0 -24.5 4.5t-20 13t-13.5 20.5t-5 26v558h-67q-12 0 -22.5 5t-18 12.5t-11.5 18t-4 22.5t4 22t11.5 18t18 12.5t22.5 4.5h67v99q0 50 17.5 87t49.5 60t76 31t98 2q26 -2 40 -19t12 -41t-19 -38t-42 -11q-20 2 -39 0 t-33.5 -10.5t-23.5 -24.5t-9 -42v-93h88q12 0 22.5 -4.5t18 -12.5t11.5 -18t4 -22t-4 -22.5t-11.5 -18t-18 -12.5t-22.5 -5h-88v-558z" />
<glyph unicode="g" horiz-adv-x="798" d="M377 104q39 0 69.5 11t54 31t39.5 46t26 56t15 63t5 66q0 30 -5 61t-15 59.5t-25.5 52.5t-37.5 42t-50.5 28.5t-65.5 10.5q-56 0 -95.5 -21t-64.5 -56.5t-36 -82.5t-11 -99q0 -48 10 -95t33 -86t60.5 -63t93.5 -24zM210 -100q9 -23 27.5 -40t42.5 -27.5t51 -15.5t52 -5 q57 0 97 19.5t65 55t36 84.5t11 107v38q-16 -30 -40 -52.5t-53.5 -38t-62 -23.5t-66.5 -8q-80 0 -140.5 29t-100.5 79.5t-60 117t-20 140.5q0 42 7 87.5t23 88t41.5 80.5t62.5 66t87 45t113 17q65 0 119 -29.5t90 -83.5v47q0 14 5 24t13 18t18.5 12.5t22.5 4.5t23 -4.5 t19 -12t13 -18.5q4 -10 4 -24v-612q0 -89 -20 -156.5t-61 -112.5t-105 -67.5t-152 -22.5q-40 0 -82 8.5t-80 25.5t-69 45t-47 66q-5 12 -5 24.5t4.5 23.5t13.5 20t21 14t24 4.5t23.5 -5t20.5 -13t14 -20.5z" />
<glyph unicode="h" horiz-adv-x="774" d="M686 54q0 -14 -5 -26t-14 -20.5t-20 -13t-25 -4.5q-13 0 -24.5 4.5t-20 13t-13.5 20.5t-5 26v436q0 66 -35.5 103.5t-103.5 37.5q-52 0 -90 -17.5t-64 -47t-38 -69.5q-13 -39 -13 -85v-358q0 -14 -5 -26t-13.5 -20.5t-20.5 -13t-24 -4.5q-13 0 -25 4.5t-20.5 13 t-13.5 20.5t-5 26v892q0 14 5 26t13.5 20t20 13t25.5 5q13 0 24.5 -5t20 -13t13.5 -20t5 -26v-318q16 26 42.5 47t57 36t63 24t60.5 9q73 0 121 -20t76.5 -56t39.5 -85t11 -106v-423z" />
<glyph unicode="i" horiz-adv-x="319" d="M226 54q0 -14 -5 -26t-14 -20.5t-20.5 -13t-24.5 -4.5t-24.5 4.5t-20.5 13t-14 20.5t-5 26v620q0 14 5 25.5t14 20t20.5 13t24.5 4.5t24.5 -4.5t20.5 -12.5t14 -20t5 -26v-620zM92 931q0 14 5 26.5t14 22t21 14.5q14 6 28 6t26 -5.5t22 -15t15 -22t5 -26.5t-5 -26.5 t-15 -21.5t-22 -14.5t-26 -5.5t-27 5.5t-22 14.5t-14 21.5t-5 26.5z" />
<glyph unicode="j" horiz-adv-x="315" d="M92 931q0 14 5 26.5t14 22t21 14.5q14 6 28 6t26 -5.5t22 -15t15 -22t5 -26.5t-5 -26.5t-15 -21.5t-22 -14.5t-26 -5.5t-27 5.5t-22 14.5t-14 21.5t-5 26.5zM26 -162q22 -2 36 3t21.5 16t10 30t2.5 45v742q0 14 5 25.5t13.5 20t20 13t25.5 4.5q13 0 24.5 -4.5t20 -12.5 t13.5 -20t5 -26v-760q0 -49 -12.5 -84.5t-35.5 -58.5t-56 -33t-74 -10q-12 0 -25.5 2.5t-24 9t-17 17.5t-6.5 27q0 12 3 22t10 17.5t17 11t24 3.5z" />
<glyph unicode="k" horiz-adv-x="683" d="M414 461l246 -369q8 -12 10 -24.5t0 -25t-9 -22.5t-19 -18q-11 -8 -23.5 -10t-24.5 0t-23 9t-18 19l-235 350l-103 -94v-222q0 -14 -5 -26t-13.5 -20.5t-20.5 -13t-24 -4.5q-13 0 -25 4.5t-20.5 13t-13.5 20.5t-5 26v892q0 14 5 26t13.5 20t20 13t25.5 5q13 0 24.5 -5 t20 -13t13.5 -20t5 -26v-528l317 304q8 8 18.5 12t21 3.5t20.5 -5t18 -12.5t12 -19t4 -22t-5 -21t-13 -18z" />
<glyph unicode="l" horiz-adv-x="317" d="M222 54q0 -14 -5 -26t-13.5 -20.5t-20 -13t-24.5 -4.5t-25 4.5t-20 13t-13 20.5t-5 26v892q0 14 5 26t13 20t20 13t25 5t24.5 -5t20 -13t13.5 -20t5 -26v-892z" />
<glyph unicode="m" horiz-adv-x="1183" d="M88 676q0 14 5 25t13 19t19 12.5t25 4.5q12 0 23 -4.5t20 -12.5t13.5 -19t4.5 -25v-50q40 62 95 90t130 28q32 0 63 -7t57.5 -21.5t47 -37t33.5 -54.5q40 63 94 91.5t123 28.5q56 0 100 -12.5t76 -39t49 -66.5t17 -98v-474q0 -14 -5 -26t-14 -20.5t-20.5 -13t-24.5 -4.5 t-24.5 4.5t-20.5 13t-14 20.5t-5 26v421q0 32 -5 60.5t-19.5 49.5t-40.5 33q-25 13 -67 13t-76 -12.5t-57 -36.5t-35 -57t-12 -75v-396q0 -14 -5 -26t-14 -20.5t-20.5 -13t-24.5 -4.5t-24.5 4.5t-20.5 13t-14 20.5t-5 26v421q0 33 -5 61.5t-19.5 49.5t-39 33t-62.5 12 q-35 0 -62.5 -9.5t-48.5 -25t-35 -35t-23 -39.5t-13.5 -39t-4.5 -33v-396q0 -14 -5 -26t-13.5 -20.5t-20.5 -13t-24 -4.5q-13 0 -25 4.5t-20.5 13t-13.5 20.5t-5 26v622z" />
<glyph unicode="n" horiz-adv-x="774" d="M88 676q0 14 5 25t13 19t19 12.5t25 4.5q12 0 23 -4.5t20 -12.5t13.5 -19t4.5 -25v-58q37 64 93 95t134 31q73 0 121 -20t76.5 -55t39.5 -82t11 -103v-430q0 -14 -5 -26t-14 -20.5t-20 -13t-25 -4.5q-13 0 -24.5 4.5t-20 13t-13.5 20.5t-5 26v430q0 76 -35.5 111.5 t-103.5 35.5q-52 0 -90 -17.5t-64 -47t-38 -69.5q-13 -39 -13 -85v-358q0 -14 -5 -26t-13.5 -20.5t-20.5 -13t-24 -4.5q-13 0 -25 4.5t-20.5 13t-13.5 20.5t-5 26v622z" />
<glyph unicode="o" horiz-adv-x="796" d="M180 362q0 -66 17 -115.5t46.5 -83t70 -50.5t86.5 -17q44 0 83 17t69 50.5t47 83t17 115.5q0 64 -17 114t-47 84.5t-70 52.5q-38 18 -82 18q-46 0 -86.5 -18t-70 -52.5t-46.5 -84.5t-17 -114zM49 362q0 80 22.5 150t66.5 121.5t109 81t153 29.5q86 0 151 -29.5t109 -81 t67 -121.5t23 -150q0 -79 -23 -148t-67 -120.5t-109 -80.5t-151 -29q-87 0 -152.5 29t-109.5 80.5t-66.5 120.5t-22.5 148z" />
<glyph unicode="p" horiz-adv-x="823" d="M637 361q0 52 -10.5 100.5t-34.5 86t-63.5 60t-98.5 22.5q-60 0 -102.5 -22t-69 -59.5t-38 -86t-11.5 -100.5q0 -32 5 -64.5t15.5 -62t27.5 -55t40.5 -44.5t54.5 -29.5t70 -10.5q58 0 98.5 23t66.5 61t38 85.5t12 95.5zM88 674q0 14 5 25.5t13.5 20t20 13t25.5 4.5 q13 0 24.5 -4.5t20 -12.5t13.5 -20t5 -26v-36q22 30 50.5 51t59 33t61 16.5t56.5 4.5q82 0 144 -29.5t103 -81.5t62 -121t21 -147q0 -50 -9 -97t-28 -90t-47 -78t-65 -61t-83 -40.5t-102 -14.5q-72 0 -129 26.5t-94 82.5v-312q0 -14 -5 -26t-13.5 -20t-20.5 -12.5t-24 -4.5 q-13 0 -25 4.5t-20.5 13t-13.5 20t-5 25.5v894z" />
<glyph unicode="q" horiz-adv-x="819" d="M182 361q0 -48 11 -95.5t36.5 -85.5t66.5 -61t101 -23q39 0 70 10.5t54.5 29.5t40.5 44.5t27.5 55t15.5 62t5 64.5q0 52 -12 100.5t-38 86t-68 59.5t-103 22q-58 0 -97.5 -23.5t-63.5 -61.5t-35 -86t-11 -98zM731 -220q0 -14 -5 -25.5t-13.5 -20t-20.5 -13t-24 -4.5 q-13 0 -25 4.5t-20.5 12.5t-13.5 20t-5 26v312q-37 -56 -94.5 -82.5t-129.5 -26.5q-56 0 -101.5 14.5t-82.5 40.5t-65 61t-46.5 78t-28 90t-9.5 97q0 78 20.5 147t62 121t103 81.5t143.5 29.5q26 0 57 -4.5t62 -16.5t59 -32q28 -22 50 -52v36q0 14 5 26t13.5 20t20 12.5 t25.5 4.5q13 0 24.5 -4.5t20 -13t13.5 -20t5 -25.5v-894z" />
<glyph unicode="r" horiz-adv-x="473" d="M396 738q14 2 26 -1t23 -10t18 -18t9 -25t-1 -26.5t-10 -23t-18 -17.5t-25 -9q-57 -7 -96 -29.5t-62.5 -58.5t-33.5 -86q-11 -48 -11 -110v-270q0 -14 -5 -26t-13.5 -20.5t-20.5 -13t-24 -4.5q-13 0 -25 4.5t-20.5 13t-13.5 20.5t-5 26v622q0 14 5 25t13 19t19 12.5 t25 4.5q12 0 23 -4.5t20 -12.5t13.5 -19t4.5 -25v-86q34 64 77.5 101t107.5 47z" />
<glyph unicode="s" horiz-adv-x="694" d="M52 162q-4 12 -2 25t8 23.5t15 18.5t23 12q12 4 24.5 2.5t23 -7.5t18.5 -16t12 -22q8 -29 25 -48.5t41 -31.5t54 -17q28 -5 60 -5q27 0 56.5 4t53.5 15t40 31t16 52q0 30 -16 49.5t-42 32t-61 21.5t-73 19q-32 8 -64.5 16t-62.5 19t-56.5 26.5t-46.5 37t-31 49.5t-11 66 q0 56 24 95.5t62.5 65t87 37.5t98.5 12t96 -8t83 -27t64 -50t40 -78q4 -12 2.5 -24.5t-7.5 -23.5t-16 -19t-22 -12t-25 -2t-23.5 7.5t-19 15t-11.5 22.5q-8 24 -23.5 40.5t-36.5 26.5t-45 14.5t-48 4.5t-50.5 -4t-48 -14t-35.5 -27.5t-14 -43.5q0 -24 15 -41t39.5 -29 t56.5 -21q31 -9 67 -17q67 -16 120.5 -34t90.5 -43t57 -59t20 -83q0 -45 -13 -80t-34 -60t-51 -43t-63.5 -28.5t-70.5 -15t-74 -4.5q-54 0 -101.5 9t-86 30.5t-66.5 55.5t-42 83z" />
<glyph unicode="t" horiz-adv-x="438" d="M258 727h88q12 0 22.5 -4.5t18 -12.5t11.5 -18t4 -22t-4 -22t-11.5 -18t-18 -13t-22.5 -5h-88v-438q0 -26 8 -41t22.5 -23t34 -9t40.5 1q12 2 23 -1t19 -10t13 -17q4 -8 6 -20q2 -24 -12 -41t-40 -20q-57 -6 -101.5 1.5t-75.5 29.5t-47.5 58t-16.5 86v444h-67 q-12 0 -22.5 5t-18 13t-11.5 18t-4 22t4 22t11.5 18t18 12.5t22.5 4.5h67v161q0 14 5 26t13.5 20t20.5 13t24 5q13 0 24.5 -5t20.5 -13t14 -20t5 -26v-161z" />
<glyph unicode="u" horiz-adv-x="778" d="M690 52q0 -14 -5 -26t-13 -20t-20 -12t-24 -4q-13 0 -23.5 4.5t-19.5 12.5t-13.5 19.5t-4.5 25.5v56q-37 -64 -93 -94t-134 -30q-73 0 -121.5 20t-77.5 55t-41 82t-12 101v432q0 14 5 26t13.5 20t20 12.5t25.5 4.5q13 0 24.5 -4.5t20 -13t13.5 -20t5 -25.5v-436 q0 -38 9.5 -65.5t28 -44t45 -24.5t60.5 -8q52 0 90 17t64 47t38.5 70t12.5 86v358q0 14 5 26t13.5 20t20.5 12.5t24 4.5q13 0 24.5 -4.5t20.5 -13t14 -20t5 -25.5v-622z" />
<glyph unicode="v" horiz-adv-x="694" d="M428 36q-4 -12 -10 -21t-14.5 -15t-22 -9t-33.5 -3t-33 3t-22 9t-15 15t-10 21l-225 612q-5 13 -4 26.5t6 25t15 20.5q10 10 23 14t26 3t25 -6.5t21 -15t13 -23.5l188 -550l178 554q4 12 12.5 21t19.5 14.5t23.5 6t25.5 -3.5q12 -4 21.5 -13t14.5 -19.5t5 -23.5 q0 -12 -4 -24z" />
<glyph unicode="w" horiz-adv-x="1052" d="M813 35q-4 -12 -9 -20.5t-13.5 -14t-21.5 -8t-32 -2.5q-20 0 -32.5 2.5t-21.5 8t-14 14.5t-8 21l-137 519l-130 -519q-3 -12 -8.5 -21t-14.5 -14.5t-23 -8.5q-12 -2 -32 -2t-33 3t-22 8.5t-15 14.5q-4 8 -8 20l-196 612q-4 14 -2.5 27.5t7 25t15.5 20.5t24 13t27 3t25 -7 t20.5 -16t12.5 -24l147 -536l132 533q6 23 22 37q18 14 56 14q19 0 32.5 -4t22.5 -10t14 -15t9 -21l138 -536l147 542q4 12 11.5 22t18.5 15t24 6t25 -2q12 -4 21.5 -12.5t15 -19t6.5 -23t-3 -24.5z" />
<glyph unicode="x" horiz-adv-x="666" d="M332 291l-186 -275q-8 -11 -18 -17.5t-22 -8.5t-24 1t-23 10q-10 7 -16.5 17.5t-8.5 22t0 23.5t10 23l208 294l-185 253q-8 11 -10.5 23.5t-0.5 25.5t9 23t17 18q11 8 24 11t25.5 1t23.5 -9t19 -19l158 -229l160 231q8 11 18 17.5t22 8.5t24 0t23 -10q10 -8 16.5 -18 t9 -22t0 -24t-10.5 -23l-183 -248l211 -298q8 -12 10.5 -24.5t0 -24.5t-9 -23t-17.5 -19t-23.5 -10.5t-25 0t-23.5 8.5q-10 6 -18 18z" />
<glyph unicode="y" horiz-adv-x="694" d="M164 -286q-16 0 -34 2t-33 9t-25 19t-8 34q1 12 5.5 22.5t12.5 18t19 10.5t25 1q6 -1 12 -1.5t12 -0.5q32 0 57 15t37 47l47 120l-253 639q-5 12 -4.5 25.5t6 25t14.5 20.5q10 10 22 14q12 5 25 4.5t25 -5.5t21 -15t13 -22l198 -546l186 550q4 12 12 20.5t19 13t24 4.5 t25 -4t20 -12.5t13 -19t5 -23.5t-4 -25l-283 -748q-20 -52 -41 -88.5t-46 -59.5t-55.5 -33.5t-68.5 -10.5z" />
<glyph unicode="z" horiz-adv-x="667" d="M80 0q-26 0 -41.5 18t-15.5 44q0 22 14 39l422 511h-351q-12 0 -22.5 5t-18 13t-11.5 18t-4 22t4 22t11.5 18t18 12.5t22.5 4.5h476q24 0 37 -16.5t13 -39.5q0 -20 -12 -35l-430 -524h380q26 0 41 -16t15 -40t-16 -40q-14 -16 -40 -16h-492z" />
<glyph unicode="{" horiz-adv-x="463" d="M298 541q0 -40 -8.5 -67.5t-24 -46.5t-37 -31t-46.5 -20q24 -8 45.5 -20t37 -32t24.5 -48q9 -26 9 -66v-308q0 -32 5 -49.5t16 -26t27 -9.5t40 -1h30q14 0 25.5 -12t11.5 -34q0 -20 -11.5 -31t-25.5 -11h-87q-78 0 -116.5 38t-38.5 120v324q0 44 -10 70t-25 39t-34 17 t-39 4q-19 0 -27.5 11t-8.5 25q0 13 8.5 24.5t27.5 11.5q20 0 39 4t34 17t25 39t10 70v323q0 82 38.5 120.5t116.5 38.5h87q14 0 25.5 -12t11.5 -30q0 -22 -11.5 -34t-25.5 -12h-30q-23 0 -39.5 -2t-27.5 -10t-16 -25t-5 -49v-309z" />
<glyph unicode="|" horiz-adv-x="307" d="M102 1058q0 21 15 34t37 13t37 -13t15 -34v-1311q0 -21 -15 -34t-37 -13t-37 13t-15 34v1311z" />
<glyph unicode="}" horiz-adv-x="463" d="M164 850q0 32 -5 49t-15 25t-27 10t-39 2h-31q-14 0 -25.5 12t-11.5 34q0 18 11 30t26 12h87q78 0 117 -38t39 -121v-323q0 -44 9 -70t24.5 -39t35 -17t38.5 -4t28 -11t9 -25t-9 -25t-28 -11q-20 0 -39 -4t-34.5 -17t-24.5 -39t-9 -70v-324q0 -82 -39 -120t-117 -38h-87 q-14 0 -25.5 11t-11.5 31q0 22 11 34t26 12h31q23 0 39.5 1t26.5 9.5t15 26t5 49.5v308q0 40 9 67t25 47t37 32t46 20q-25 8 -46 20t-37 31t-25 47t-9 67v309z" />
<glyph unicode="~" horiz-adv-x="833" d="M746 404q0 -27 -12 -55t-35 -50.5t-55 -37.5t-74 -15q-35 0 -69.5 12t-68 26t-66.5 28t-65.5 18.5t-64.5 -4t-64 -38.5q-12 -12 -24 -21t-25 -9q-10 0 -16.5 3.5t-11 10t-6 13.5t-1.5 15q0 27 11.5 55t33.5 50.5t53.5 37t69.5 14.5q36 0 71 -11.5t70 -25.5t68.5 -28 t66.5 -18.5t65.5 4t64.5 38.5q12 12 24 21t25 9q10 0 16.5 -3.5t11 -10t6 -13.5t1.5 -15z" />
<glyph unicode="&#xa2;" horiz-adv-x="772" d="M74 488q0 70 18 130.5t55.5 106t93 74.5t128.5 35v104q0 11 8 18.5t19 7.5q10 0 18 -8t8 -18v-101q53 -3 96.5 -17t74.5 -35.5t49 -48.5q18 -26 20 -54q2 -23 -9 -38.5t-39 -21.5q-14 -3 -24.5 0.5t-19 9.5t-15.5 14t-11 15l-17 25.5t-23 24.5t-33 18t-49 9v-472 q28 4 47 12.5t32 19t22 22.5q9 14 19 26q6 10 12 18t13.5 14t17 9t22.5 3q11 0 21 -4.5t17.5 -12t12 -16.5t4.5 -19q0 -25 -14.5 -52.5t-44 -52.5t-74.5 -42t-107 -21v-110q0 -10 -8 -18t-18 -8q-12 0 -19.5 7.5t-7.5 18.5v110q-76 4 -131.5 30t-92 68.5t-54 98.5t-17.5 121 zM210 488q0 -42 10 -78t30 -65t50 -49t69 -28v469q-34 -4 -63.5 -22.5t-50.5 -50t-33 -76t-12 -100.5z" />
<glyph unicode="&#xa3;" horiz-adv-x="772" d="M458 516q25 0 37.5 -8t12.5 -25q0 -33 -50 -33h-147q10 -24 16 -47q7 -23 7 -34q3 -70 -30.5 -132.5t-103.5 -126.5q38 15 73 21.5t68 6.5t65.5 -5t67.5 -12q24 -5 48 -11t52 -6q15 0 28.5 3t26.5 7.5t26 8t25 3.5q21 0 34 -16t13 -40t-11 -40t-28.5 -27t-40 -16 t-44.5 -5q-27 0 -57 6q-30 7 -70 18q-45 12 -90.5 22t-95.5 10q-41 0 -76.5 -10t-65.5 -31q-10 -7 -20 -9.5t-18 -2.5q-22 0 -35.5 16.5t-13.5 45.5q0 22 14.5 44.5t36.5 45.5q17 18 37 39t37.5 46t29.5 54.5t12 63.5q0 24 -8 52.5t-19 57.5h-121q-17 0 -27.5 8t-10.5 25 q0 16 7 24.5t22 8.5h103q-20 28 -34.5 58t-25 58.5t-15.5 55t-5 48.5q0 60 23.5 110.5t65 87t97.5 57.5t120 21q54 0 98 -9.5t80 -26t62 -38t44 -46t26.5 -50.5t8.5 -50q0 -32 -18.5 -48t-48.5 -16q-12 0 -20 4t-14 12t-10 17t-9 20q-10 22 -22.5 44.5t-33 41.5t-51.5 31 t-77 12q-37 0 -70.5 -12.5t-59 -37t-40.5 -59t-15 -78.5q0 -24 4.5 -50t12.5 -52.5t18.5 -53.5t24.5 -51h168z" />
<glyph unicode="&#xa5;" horiz-adv-x="823" d="M683 538q14 0 23.5 -9t9.5 -23t-9.5 -24t-23.5 -10h-176l-21 -36v-72h197q15 0 24 -10.5t9 -22.5t-9 -22.5t-24 -10.5h-197v-232q0 -34 -19 -55t-55 -21t-56 20q-20 22 -20 56v232h-195q-16 0 -24.5 10t-8.5 23t9 23t24 10h195v72l-20 36h-175q-15 0 -24 10t-9 24t9 23 t24 9h137l-212 366q-7 12 -10.5 22t-3.5 20q0 14 6 25.5t17 20t27 12.5q16 5 34 5q14 0 24.5 -5.5t18 -12.5t12.5 -15t8 -14l213 -420l212 421q2 5 7.5 13t13 15.5t18.5 13t25 5.5q18 0 34 -5t27 -14t17 -20t6 -25q0 -10 -4 -20q-3 -10 -10 -22l-212 -366h137z" />
<glyph unicode="&#xa9;" horiz-adv-x="1114" d="M144 494q0 -92 30 -171t85 -136t130.5 -89t165.5 -32q58 0 111 14.5t98.5 41.5t83 65.5t64 86t40.5 103t14 117.5t-14 117t-40.5 102t-64 85t-83 64.5t-98.5 41t-111 14.5q-60 0 -113.5 -14.5t-99.5 -41t-83 -64.5t-62.5 -85t-39 -102t-13.5 -117zM33 494q0 72 19 139 t53.5 124t82 104t105.5 80.5t124.5 52t137.5 18.5t137 -18.5t124 -52t106 -80.5t82 -104t52.5 -124t18.5 -139q0 -74 -18.5 -142t-52.5 -125.5t-82 -104t-106 -79.5t-124 -50t-137 -17t-137.5 17t-124.5 50t-105.5 79.5t-82 104t-53.5 125t-19 142.5zM280 490q0 66 19 122 t55 97.5t88 65t118 23.5q54 0 96.5 -15.5t72 -39t45.5 -52.5t16 -55q0 -14 -5 -24t-11 -16t-13 -9t-11 -3q-12 0 -20 3.5t-14 9t-10.5 13t-8.5 15.5q-8 16 -18 30.5t-25.5 26.5t-38.5 20t-55 8q-37 0 -68.5 -15t-53.5 -43t-35 -68t-13 -90q0 -48 13 -89t35.5 -70t54 -46 t69.5 -17q30 0 52 8t37 20t26 27t20 29q5 9 10.5 17.5t12 14.5t15.5 10t20 4q18 0 29 -11t11 -32q0 -16 -7 -34.5t-20.5 -38t-33.5 -38t-45.5 -32.5t-57 -23t-69.5 -9q-64 0 -116 24t-89 65t-57 97t-20 120z" />
<glyph unicode="&#xab;" horiz-adv-x="643" d="M400 389l140 -95q14 -9 23.5 -22.5t9.5 -29.5q0 -9 -3.5 -17.5t-8.5 -15.5t-13 -11t-16 -4q-11 0 -19.5 4t-15.5 10h1h-2l-138 100q-19 14 -28.5 35.5t-9.5 45.5t10 45.5t28 35.5l138 100q7 5 16.5 9.5t19.5 4.5q9 0 16.5 -4t12.5 -11t9 -15q3 -8 3 -18q0 -16 -9.5 -29 t-24.5 -23zM130 389l139 -95q14 -9 23.5 -22.5t9.5 -29.5q0 -9 -3 -17.5t-8.5 -15.5t-13 -11t-16.5 -4q-11 0 -19 4t-16 10h1h-1l-138 100q-19 14 -29 35.5t-10 45.5t10.5 45.5t28.5 35.5l138 100q7 5 16 9.5t19 4.5q9 0 16.5 -4t13 -11t8.5 -15t3 -18q0 -16 -10 -29 t-24 -23z" />
<glyph unicode="&#xad;" horiz-adv-x="643" d="M534 430q11 0 20.5 -4t17 -12t12 -18t4.5 -20q0 -12 -4.5 -22t-12 -17t-17.5 -11t-20 -4h-424q-12 0 -21 4t-16.5 11t-12 17t-4.5 22q0 11 4.5 20.5t12 17.5t17.5 12q8 4 20 4h424z" />
<glyph unicode="&#xae;" horiz-adv-x="1108" d="M144 494q0 -92 30 -171t85 -136t130.5 -89t165.5 -32q58 0 111 14.5t98.5 41.5t83 65.5t64 86t40.5 103t14 117.5t-14 117t-40.5 102t-64 85t-83 64.5t-98.5 41t-111 14.5q-60 0 -113.5 -14.5t-99.5 -41t-83 -64.5t-62.5 -85t-39 -102t-13.5 -117zM33 494q0 72 19 139 t53.5 124t82 104t105.5 80.5t124.5 52t137.5 18.5t137 -18.5t124 -52t106 -80.5t82 -104t52.5 -124t18.5 -139q0 -74 -18.5 -142t-52.5 -125.5t-82 -104t-106 -79.5t-124 -50t-137 -17t-137.5 17t-124.5 50t-105.5 79.5t-82 104t-53.5 125t-19 142.5zM353 712q0 14 4.5 24 t12.5 17t18 10.5t20 3.5h184q46 0 83 -8t63 -27t40 -51q14 -33 14 -81q0 -38 -12.5 -66.5t-33 -48t-46.5 -29.5q-24 -10 -52 -12l104 -143q16 -22 17.5 -42.5t-19.5 -38.5q-14 -12 -27 -14t-25 2.5t-23 14t-19 21.5l-140 200h-53v-182q0 -30 -16 -44q-17 -13 -39 -13t-38 14 q-17 13 -17 43v450zM463 528h131q18 0 34 3t28 12t19 24t7 39t-7 38.5t-19 23t-28 11.5t-34 3h-131v-154z" />
<glyph unicode="&#xbb;" horiz-adv-x="643" d="M104 484q-14 10 -24 23t-10 29q0 10 3 18t9 15t13 11t17 4t19 -5t15 -9l138 -100q18 -13 29 -34.5t11 -46.5q0 -24 -10 -46q-10 -21 -30 -35l-138 -100v0v0q-7 -6 -15.5 -10t-18.5 -4q-9 0 -16.5 4t-13.5 11t-9 15.5t-3 17.5q0 16 10 30q10 13 24 22l139 95zM374 484 q-14 10 -24 23t-10 29q0 10 3.5 18t9 15t13 11t16.5 4q10 0 19 -5t16 -9l138 -100q18 -13 28.5 -34.5t10.5 -46.5q0 -24 -10 -46q-10 -21 -29 -35l-138 -100h-1v0q-7 -6 -15 -10t-19 -4q-9 0 -16.5 4t-13 11t-9 15.5t-3.5 17.5q0 16 10 29.5t24 22.5l140 95z" />
<glyph unicode="&#xbc;" horiz-adv-x="1167" d="M922 206h-172l172 232v-232zM1007 126h48q18 0 29 12t11 28t-11 28t-29 12h-48v349q0 18 -12.5 31.5t-32.5 13.5q-12 0 -21 -5t-15 -13l-263 -370q-9 -14 -9 -32q0 -23 15 -38.5t39 -15.5h214v-98q0 -19 12 -31t30 -12t30.5 12t12.5 31v98zM260 956q-8 -26 -20.5 -42 t-29 -26t-37.5 -15t-45 -7q-8 -1 -15 -5t-11.5 -10t-7 -13.5t-1.5 -15.5q1 -17 14 -27t29 -9q36 2 65 9t53 21v-396q0 -19 12 -30q12 -12 30 -12t30.5 11.5t12.5 30.5v524q0 8 -3.5 15.5t-9 13t-13 9t-15.5 3.5q-14 0 -24 -8.5t-14 -20.5zM826 976q9 18 24 26q14 6 30 0 q10 -4 14 -11t5 -15t-1 -16t-6 -16l-492 -930q-10 -18 -26 -24t-33 3q-8 4 -11.5 10.5t-4 13.5t1.5 15q1 8 5 14z" />
<glyph unicode="&#xbd;" horiz-adv-x="1167" d="M260 956q-8 -26 -20.5 -42t-29 -26t-37.5 -15t-45 -7q-8 -1 -15 -5t-11.5 -10t-7 -13.5t-1.5 -15.5q1 -17 14 -27t29 -9q36 2 65 9t53 21v-396q0 -19 12 -30q12 -12 30 -12t30.5 11.5t12.5 30.5v524q0 8 -3.5 15.5t-9 13t-13 9t-15.5 3.5q-14 0 -24 -8.5t-14 -20.5z M806 976q9 18 24 26q14 6 30 0q10 -4 14 -11t5 -15t-1 -16t-6 -16l-492 -930q-10 -18 -26 -24t-33 3q-8 4 -11.5 10.5t-4 13.5t1.5 15q1 8 5 14zM1086 0q8 0 15 3t12 8t8 12t3 15t-3 15t-8 13t-12 9t-15 3h-258q5 18 20.5 36t36 35t45.5 33q24 16 49 32t51 35t46.5 43t34 55 t13.5 72q0 42 -15 74.5t-41 55t-60 33.5q-34 12 -74 12q-43 0 -78.5 -13t-61.5 -37t-40 -58q-15 -32 -17 -72q0 -9 2.5 -17.5t8 -14.5t13 -10t15.5 -5q18 -1 32 11t16 28q2 22 10 42t21.5 35t32 24.5t42.5 9.5q21 0 39.5 -6.5t32.5 -19.5t22 -31t8 -40q0 -27 -9 -47.5 t-26 -38.5t-44 -38t-63 -44q-24 -16 -48 -34t-45 -40t-38 -50t-26 -64q-4 -12 -1.5 -23.5t8.5 -20.5t16 -14.5t23 -5.5h307z" />
<glyph unicode="&#xbe;" horiz-adv-x="1167" d="M305 658q24 0 45.5 -6t36.5 -19t24 -32t9 -45q0 -25 -8.5 -44.5t-24 -32.5t-37.5 -20t-48 -7q-24 0 -42 7t-32.5 19t-23.5 29q-8 17 -12 38q-2 17 -16 29t-31 11q-10 -1 -17.5 -5t-13.5 -11t-8.5 -15t-1.5 -16q5 -39 21.5 -69.5t41.5 -50.5t59 -30q34 -11 76 -11 q41 0 78.5 10.5t66.5 32t46 56t17 82.5q0 52 -22.5 90t-69.5 54q30 19 49 48.5t19 65.5q0 42 -14 74t-39 53t-59 31t-73 10q-40 0 -72.5 -12t-55.5 -34t-37 -52q-14 -32 -18 -68q-1 -9 1.5 -16.5t8 -14.5t13 -11t15.5 -4q19 -2 32.5 10t15.5 29q2 19 9.5 36.5t20 31t29 21.5 t38.5 8q21 0 38.5 -6t30 -17.5t20 -28t7.5 -38.5t-8.5 -38t-22.5 -27.5t-32 -17t-39 -5.5h-7q-17 0 -27 -10t-10 -26q0 -15 9.5 -25.5t27.5 -10.5h17zM966 206h-172l172 232v-232zM1052 126h48q18 0 29 12t11 28t-11 28t-29 12h-48v349q0 18 -13 31.5t-31 13.5q-12 0 -21 -5 t-15 -13l-264 -370q-10 -14 -10 -32q0 -23 16 -38q14 -16 38 -16h214v-98q0 -19 13 -31t31 -12t30 12t12 31v98zM890 977q10 18 26 27t34 1q11 -5 16.5 -12.5t7 -16t-1 -18.5t-6.5 -18l-492 -928q-10 -20 -28 -27t-38 3q-9 5 -12.5 12.5t-4.5 15.5t1 16t6 16z" />
<glyph unicode="&#xd7;" horiz-adv-x="717" d="M360 298l-223 -222q-8 -8 -18 -12t-20.5 -4t-20.5 3.5t-18 11.5t-12 18t-4 20.5t4 20.5t12 18l223 223l-224 223q-8 8 -12 18t-4 20.5t4 20.5t12 18t18 12t20.5 4t20.5 -3.5t18 -11.5l224 -224l224 225q8 8 18 12t21 4t21 -3.5t18 -11.5t11.5 -18t3.5 -21t-3.5 -21 t-11.5 -18l-226 -225l225 -225q8 -8 12 -18t4 -20t-4 -20t-12 -18t-18 -12t-20.5 -4t-20.5 4t-18 12z" />
<glyph unicode="&#xf7;" horiz-adv-x="833" d="M324 88q0 20 7 37t20 30.5t29 20.5q18 8 36 8q20 0 36.5 -7.5t29.5 -21t20.5 -30.5t7.5 -37q0 -17 -7.5 -32.5t-20 -28t-29.5 -20t-35 -7.5t-35 7t-30.5 19t-21 28t-7.5 34zM324 662q0 19 7 36t20 29.5t29 20.5q18 8 36 8q20 0 36.5 -8t29.5 -20.5t20.5 -30t7.5 -35.5 t-7.5 -35t-20 -30t-29.5 -20t-35 -7t-35 7t-30.5 20t-21 30t-7.5 35zM721 430q11 0 21 -4t17 -12t11.5 -18t4.5 -20q0 -12 -4.5 -22t-11.5 -17t-17 -11t-21 -4h-611q-12 0 -21 4t-16.5 11t-12 17t-4.5 22q0 11 4.5 20.5t12 17.5t17.5 12q8 4 20 4h611z" />
<glyph unicode="&#xe01;" horiz-adv-x="860" d="M778 58q0 -16 -5.5 -28.5t-15 -21t-21.5 -13.5t-26 -5t-27 5t-22 13t-14.5 21t-5.5 29v466q0 39 -11.5 77.5t-39.5 69.5t-73 50t-111 21q-39 0 -71.5 -7t-58 -19t-45 -28t-32.5 -32t-20 -32t-9 -28q14 -8 26 -22.5t19.5 -33t12.5 -40.5q4 -24 4 -48v-394 q0 -16 -5.5 -28.5t-15 -21t-21.5 -13.5t-26 -5t-26 5t-21.5 13t-15 21t-5.5 29v396q0 27 -5.5 54.5t-22.5 51.5q-10 14 -18 23t-11.5 16.5t-3 17t6.5 24.5q16 42 45 81.5t73.5 69.5t105 48t140.5 18q71 0 126 -13.5t96.5 -37t70 -56.5t46 -72t25.5 -82.5t8 -88.5v-450z" />
<glyph unicode="&#xe02;" horiz-adv-x="726" d="M398 130l144 664q7 32 28.5 46t49.5 8q14 -2 25.5 -9t19 -17t10.5 -23t-1 -29l-158 -688q-4 -20 -15.5 -37t-27.5 -29.5t-36 -19.5q-19 -6 -41 -6t-41.5 7t-35 19.5t-27.5 29.5q-12 18 -16 38l-151 654h-65q-10 0 -20 4t-17 11t-11 16t-4 19t4 20t11 17t17 11t20 4h144 q21 0 33.5 -15t16.5 -37z" />
<glyph unicode="&#xe03;" horiz-adv-x="774" d="M306 803q8 20 25.5 33.5t40.5 13.5q14 0 27 -6t23 -15t15 -22t5 -28v-103q0 -28 -9 -50t-25 -41.5t-36 -38.5t-42 -42q-20 -22 -35 -40t-25 -37t-15 -39t-5 -46v-56q0 -44 11 -78t32 -58t49 -36q30 -12 64 -12q32 0 59.5 9t48 29.5t32.5 53.5q11 32 11 80v508 q0 16 5.5 28.5t14.5 21t21 13.5t26 5t26.5 -5t22 -14t14.5 -21t5 -28v-522q0 -72 -23.5 -125t-63 -87.5t-91.5 -51t-108 -16.5q-58 0 -112 18t-94.5 53t-65 87.5t-24.5 121.5v41q0 34 2 60t6 46.5t11.5 37.5t19 33t28 31t38.5 33q12 10 30.5 23t34.5 32t26 43q12 24 8 56 q-4 -10 -15 -18t-26 -15t-31.5 -11.5t-32.5 -4.5t-40.5 4.5t-48.5 17t-45 36t-31 61.5q-4 12 -2 25.5t7.5 24t15 19t22.5 12.5q12 4 24.5 3.5t23.5 -6.5t19 -16q10 -10 14 -24q7 -22 23.5 -36t44.5 -14q26 0 44 13.5t26 35.5z" />
<glyph unicode="&#xe04;" horiz-adv-x="868" d="M449 379q-62 -6 -106 -28.5t-72 -60.5t-41 -90t-13 -116v-26q0 -16 -5.5 -28.5t-14.5 -21t-21 -13.5t-26 -5t-26.5 5t-22 13t-14.5 21t-5 29v444q0 45 6.5 88.5t22 83.5t42 73.5t65.5 58t92.5 38.5t123.5 14t123 -14t92 -38.5t65.5 -58t42.5 -73.5t22.5 -83.5t6.5 -88.5 v-444q0 -16 -5 -28.5t-15 -21t-22 -13.5t-26 -5t-27 5t-22 13t-14.5 21t-5.5 29v462q0 26 -4.5 52t-14.5 51t-27 46.5t-41 37.5t-55.5 25.5t-72.5 9.5t-73 -9.5t-56 -25.5t-40.5 -37.5t-27.5 -46.5t-15.5 -51t-4.5 -52v-188q36 70 90.5 111t130.5 50q12 2 23.5 -1.5 t20 -10.5t13.5 -17.5t6 -22.5t-2.5 -22.5t-10.5 -19t-17 -14t-22 -6.5z" />
<glyph unicode="&#xe05;" horiz-adv-x="876" d="M794 58q0 -16 -5 -28.5t-15 -21t-22 -13.5t-26 -5t-27 5t-22 13t-14 21t-5 29v466q0 26 -4 56.5t-14.5 58t-28 49.5t-43.5 31l-114 -117q-3 -3 -6.5 -5.5t-9.5 -2.5t-10.5 2.5t-7.5 5.5l-115 117q-26 -10 -42.5 -32t-26.5 -49.5t-14.5 -57.5t-4.5 -56v-192 q36 70 90.5 111t130.5 50q12 2 23.5 -1.5t20 -10.5t13.5 -17.5t6 -22.5t-2.5 -22.5t-10.5 -19t-17 -14t-22 -6.5q-62 -6 -106 -28.5t-72 -60.5t-41 -90t-13 -116v-26q0 -16 -5.5 -28.5t-14.5 -21t-21 -13.5t-26 -5t-26.5 5t-22 13t-14.5 21t-5 29v455q0 52 8 101.5t29 93 t56 77t89 53.5q7 2 18 5t23.5 3t24.5 -4q12 -5 24 -17l84 -87l79 88q10 11 22.5 15.5t25.5 4.5t24 -3t19 -5q56 -19 92 -52t57 -75.5t29 -93t8 -104.5v-455z" />
<glyph unicode="&#xe06;" horiz-adv-x="866" d="M442 676q0 -37 -12 -65t-30 -49.5t-38 -38.5q-18 -17 -34 -31q-22 -20 -37 -36t-24 -33t-13 -41q-4 -22 -4 -58q0 -42 18 -82t50 -71t77 -50t99 -19q36 0 65 12.5t48.5 35t30 53.5t10.5 69v510q0 16 5 28.5t14.5 21t22 13.5t26.5 5t26.5 -5t22 -14t14.5 -21t5 -28v-500 q0 -59 -15 -113.5t-49 -96.5t-88 -67t-130 -25q-90 0 -153 38t-105 117v-79q0 -14 -5.5 -26t-14.5 -21t-21.5 -14t-25.5 -5q-14 0 -26 5t-21 14t-14 21q-6 12 -6 26v239q0 32 1 56.5t3.5 44.5t8 36t16.5 32t27 32q17 16 41 36q26 22 45 37t32.5 31.5t19.5 38.5q6 21 5 57 q-4 -10 -14.5 -18t-24 -15t-29.5 -11.5t-32 -4.5t-40.5 4.5t-48.5 17t-45 36t-31 61.5q-4 12 -2 25.5t7.5 24t15 19t22.5 12.5q12 4 24.5 3.5t23.5 -6.5t19 -16q10 -10 14 -24q7 -22 23.5 -36t44.5 -14q26 0 44 13t26 36q8 20 25.5 33.5t40.5 13.5q14 0 27 -6t23 -15t15 -22 t5 -28v-103z" />
<glyph unicode="&#xe07;" horiz-adv-x="637" d="M555 182q0 -54 -15.5 -92t-42.5 -63t-64 -36t-79 -11t-73 10.5t-54.5 31t-40 49t-28.5 64.5l-98 279q-4 12 -3 25.5t6 25t15 20.5t22 13t25.5 4t25 -5.5t20.5 -15t13 -23.5l113 -318q9 -22 25 -33t34 -11q30 0 47 18t17 42v574h-72q-11 0 -21 4t-17.5 11t-12 17t-4.5 22 t4.5 22.5t11.5 18t17 11.5t22 4h155q11 0 20.5 -4.5t16.5 -11.5t11 -16.5t4 -20.5v-605z" />
<glyph unicode="&#xe08;" horiz-adv-x="786" d="M272 492q18 0 30 -10t18 -26l112 -335q13 30 28 66t30 74.5t29.5 78t25.5 77.5t17 73q8 35 8 65q2 93 -45 140t-142 47q-66 0 -109 -28q-44 -30 -64 -84q-6 -14 -16 -24t-24 -15t-29.5 -4.5t-30.5 7.5q-14 6 -23 17t-12.5 24.5t-2.5 28t8 27.5q20 38 50 68.5t70.5 51.5 t90.5 33q51 12 109 12q37 0 74.5 -5.5t73 -18.5t66.5 -34.5t53.5 -53.5t35.5 -76t12 -100q-1 -50 -14 -107t-34 -119t-48 -126t-55 -128q-10 -22 -22 -40t-28 -31t-36 -20t-44 -7t-44 7t-36.5 21t-28.5 32q-11 18 -19 40l-103 297h-67q-22 0 -37 15t-15 37q0 11 4 20.5 t11 16.5t16.5 11.5t20.5 4.5h136z" />
<glyph unicode="&#xe09;" horiz-adv-x="860" d="M214 634q-6 -14 -15 -23t-21.5 -14t-26.5 -5q-13 0 -27 5q-14 6 -24 15.5t-15 21.5t-5 26t6 27q16 36 43 67.5t68 54.5t96.5 36t126.5 13q72 0 126 -13.5t94 -37t66.5 -56.5t42.5 -72t22.5 -82.5t6.5 -88.5v-452q0 -14 -5 -26t-14 -21t-21 -14t-26 -5t-26 5t-21 14 t-15 21q-5 12 -5 26v79q-42 -79 -110.5 -117t-164.5 -38q-84 0 -139 22.5t-88 63t-47 97.5t-14 126v123q0 14 5.5 26t15 21t21.5 14.5t26 5.5t26 -5.5t21 -14.5t14.5 -21t5.5 -26v-140q0 -88 41.5 -129t121.5 -41q63 0 111.5 20t81.5 55.5t50.5 84t17.5 104.5v158 q0 39 -10.5 78t-35.5 70t-68 50.5t-107 19.5q-49 0 -84.5 -9t-59.5 -24t-39 -35t-23 -40z" />
<glyph unicode="&#xe0a;" horiz-adv-x="766" d="M422 482q-12 0 -22.5 4t-18 12t-12.5 18t-5 23q0 24 16 39q16 16 42 18q67 7 99.5 56.5t39.5 135.5q2 16 8.5 28t16.5 20t23 11t27 2q14 -2 26 -8.5t20 -16.5t12 -23q6 -13 4 -27q-4 -42 -15.5 -80t-34 -69t-57.5 -53t-88 -30q41 -4 70 -16.5t49 -30t32 -39t18 -44 t8 -43.5t2 -39v-70q0 -72 -25 -125t-66 -87.5t-94 -51t-110 -16.5q-58 0 -112.5 18t-97 53t-68 87.5t-25.5 121.5v70q0 33 2 57t5.5 42.5t9.5 33.5t15 29.5t20.5 30t27.5 34.5q13 17 23.5 31t18 27t12.5 26q6 13 8 27q6 38 -12 59t-54 21q-20 0 -37 -6t-32 -10 q-10 -3 -19 -1.5t-17 5.5t-14 12t-9 16q-3 10 -2.5 20t4.5 18t11.5 15t16.5 11q17 6 34.5 11t34 8t30 4t21.5 1q44 0 79.5 -10.5t59.5 -32t35 -53.5q10 -32 6 -76q-4 -30 -13.5 -53.5t-24 -46t-32 -46.5t-36.5 -52q-14 -22 -21 -39t-10.5 -34t-4 -36t-1.5 -43v-44 q0 -44 13.5 -78t36.5 -58t53 -36t65 -12q33 0 62 9t51 29.5t34 53.5q13 32 13 80v56q0 48 -9 77t-25.5 45t-39.5 22t-51 8z" />
<glyph unicode="&#xe0b;" horiz-adv-x="786" d="M710 260q0 -48 -11 -87.5t-31.5 -71t-48.5 -54.5t-61 -38t-69.5 -22t-74.5 -7q-58 0 -113 18t-97 53t-68 87.5t-26 121.5q0 51 2 91.5t10 74t26 62t52 54.5q8 6 19 14.5t22.5 18.5t22.5 22.5t19.5 27.5t12.5 33t1 38q-4 -10 -15 -18t-25.5 -15t-31 -11.5t-32.5 -4.5 t-40.5 4.5t-48.5 17t-45 36t-31 61.5q-4 12 -2 25.5t7.5 24t15 19t22.5 12.5q12 4 24.5 3.5t23.5 -6.5t19 -16q10 -10 14 -24q7 -22 23.5 -36t44.5 -14q26 0 44 13t26 36q8 20 25.5 33.5t40.5 13.5q14 0 27 -6t22.5 -15t15 -22t5.5 -28v-103q0 -28 -9 -50t-25 -41.5 t-36 -38.5t-42 -42q-21 -22 -34 -48t-20 -55t-9.5 -58t-2.5 -57q0 -44 13 -78t36 -58t53 -36t64 -12q33 0 62 9t50.5 29.5t34.5 53.5q13 32 13 80v56q0 44 -6.5 73t-20 46t-33.5 25q-20 6 -49 8q-12 0 -22.5 4t-18 12t-12 18t-4.5 23q0 24 15 39.5t42 17.5q34 4 56.5 19 t36.5 39.5t21 58t11 75.5q2 16 8 28t16.5 20t23 11t27.5 2q14 -2 25.5 -8.5t20 -16.5t13 -23t2.5 -27q-4 -42 -13.5 -80t-30 -69t-54.5 -53t-86 -30q41 -4 69.5 -16.5t47 -30t29 -39t15.5 -44t6 -43.5t1 -39v-70z" />
<glyph unicode="&#xe0c;" horiz-adv-x="1300" d="M744 366q0 -57 13 -105t39 -83.5t64.5 -55.5t87.5 -20q30 0 55 9t42.5 29t26.5 52q10 32 10 80v510q0 16 5 28.5t14.5 21t22 13.5t26.5 5t26.5 -5t22 -14t14.5 -21t5 -28v-493q0 -74 -12 -131.5t-41 -97t-78 -60t-121 -20.5q-40 0 -74 12.5t-63 34t-51 49.5t-38 59v-79 q0 -14 -5.5 -26t-14.5 -21t-21.5 -14t-26.5 -5t-26 5t-21 14t-14 21t-5 26v468q0 39 -11 77.5t-36 69.5t-67 50t-103 21q-52 0 -91.5 -13t-66.5 -35t-42 -48t-19 -50q14 -8 26 -22.5t19.5 -33t12.5 -40.5q4 -24 4 -48v-348h52q11 0 20.5 -4t16.5 -11t11 -16.5t4 -20.5 t-4 -20.5t-11 -16.5t-16.5 -11t-20.5 -4h-135q-11 0 -20.5 4t-17 11t-11.5 16.5t-4 20.5v402q0 27 -5.5 54.5t-22.5 51.5q-10 13 -17 21.5t-11 16.5t-4 18t6 25q16 42 45 81.5t71 69.5t99 48t131 18q68 0 121 -13.5t92.5 -37t67 -56.5t44 -72t24 -82.5t7.5 -88.5v-142z" />
<glyph unicode="&#xe0d;" horiz-adv-x="1300" d="M744 344q0 -48 9 -80t26 -52t42 -29t55 -9q49 0 87.5 20t64.5 56t40 84t14 104v344q0 16 5 28.5t14.5 21t22 13.5t26.5 5t26.5 -5t22 -14t14.5 -21t5 -28v-608q0 -58 -5.5 -102t-15 -77.5t-21.5 -57.5q-12 -23 -25 -41q-24 -36 -54.5 -60.5t-65.5 -40t-73 -22.5 q-40 -7 -80 -7q-46 0 -90 10t-81 30t-65 50t-44 70q-4 12 -4 25t5 23.5t14.5 19t21.5 12.5q24 9 46.5 -0.5t33.5 -35.5q10 -24 27.5 -43t39.5 -31t46 -18q24 -7 48 -7q40 0 71 9.5t54.5 25.5t39.5 38t26 47t14.5 52t4.5 53v111q-16 -31 -39 -59t-51.5 -49t-63 -33.5 t-74.5 -12.5q-72 0 -120.5 20.5t-78 59.5t-41.5 97q-12 56 -12 130v164q0 39 -11 77.5t-36 69.5t-67 50t-103 21q-52 0 -91.5 -13t-67 -34t-42.5 -47t-18 -52q14 -8 26 -22.5t19.5 -33t12.5 -40.5q4 -24 4 -48v-348h52q11 0 20.5 -4t16.5 -11t11 -16.5t4 -20.5t-4 -20.5 t-11 -16.5t-16.5 -11t-20.5 -4h-135q-11 0 -20.5 4t-17 11t-11.5 16.5t-4 20.5v402q0 27 -5.5 54.5t-22.5 51.5q-10 13 -17 21.5t-11 16.5t-4 18t6 25q16 42 45 81.5t71 69.5t99 48t131 18q68 0 121 -13.5t92.5 -37t67 -56.5t44 -72t24 -82.5t7.5 -88.5v-164z" />
<glyph unicode="&#xe0e;" horiz-adv-x="895" d="M813 -195q0 -18 -6.5 -34t-18.5 -27.5t-28 -18.5t-34 -7q-20 0 -36 8t-30 21q-42 40 -88 58.5t-102 18.5q-28 0 -52 -8t-46 -21.5t-42 -30.5q-18 -16 -36 -34q-7 -7 -16.5 -10.5t-20 -2.5t-20 5t-16.5 12q-14 18 -12 36q3 18 17 36q20 24 46.5 46t58.5 39t67.5 27 t71.5 10q62 0 112 -16t94 -47v659q0 39 -12 77.5t-39 69.5t-73 50t-112 21q-39 0 -71 -7t-57.5 -19t-45 -28t-32.5 -32t-20.5 -32t-8.5 -28q14 -8 25.5 -22.5t19.5 -33t12 -40.5q4 -24 4 -48v-400q0 -11 -4 -20.5t-11 -16.5t-17 -11t-20 -4h-128q-11 0 -20.5 4t-16.5 11 t-11 16.5t-4 20.5t4 20.5t11 16.5t17 11t20 4h45v350q0 27 -5.5 54.5t-22.5 51.5q-10 14 -17.5 23t-11.5 16.5t-3.5 17t6.5 24.5q16 42 45.5 81.5t73.5 69.5t105 48t139 18q71 0 126.5 -13.5t97 -37t70 -56.5t46.5 -72t25.5 -82.5t7.5 -88.5v-703z" />
<glyph unicode="&#xe0f;" horiz-adv-x="895" d="M813 -204q0 -16 -6.5 -30.5t-16.5 -25t-24 -16.5q-16 -6 -32 -6q-23 0 -41.5 12t-28.5 30q-6 12 -14 23t-19.5 20t-26 14t-32.5 5t-33.5 -5t-27 -14t-19.5 -20t-13 -23q-7 -18 -23 -30t-37 -12t-37 12t-23 30q-4 11 -10.5 22.5t-17 20.5t-25 15t-34.5 6q-18 0 -30.5 -5 t-22 -13.5t-16.5 -20t-10 -23.5q-4 -12 -12 -22t-18.5 -15.5t-22.5 -6.5q-14 -2 -26 2t-21 12t-15 18.5t-8 23.5q-2 12 2 24q10 34 27.5 59t41 41t52.5 24t62 8q54 0 94.5 -23.5t62.5 -68.5q12 22 28 38.5t35 27t39 15.5t37 5q26 0 45.5 -6t35.5 -15t26.5 -19t17.5 -19v659 q0 39 -12 77.5t-39 69.5t-73 50t-112 21q-39 0 -71 -7t-57.5 -19t-45 -28t-32.5 -32t-20.5 -32t-8.5 -28q14 -8 25.5 -22.5t19.5 -33t12 -40.5q4 -24 4 -48v-400q0 -11 -4 -20.5t-11 -16.5t-17 -11t-20 -4h-128q-11 0 -20.5 4t-16.5 11t-11 16.5t-4 20.5t4 20.5t11 16.5 t17 11t20 4h45v350q0 27 -5.5 54.5t-22.5 51.5q-10 14 -17.5 23t-11.5 16.5t-3.5 17t6.5 24.5q16 42 45.5 81.5t73.5 69.5t105 48t139 18q71 0 126.5 -13.5t97 -37t70 -56.5t46.5 -72t25.5 -82.5t7.5 -88.5v-712z" />
<glyph unicode="&#xe10;" horiz-adv-x="782" d="M272 492q18 0 30 -10t18 -26l112 -335q13 30 28 66t30 74.5t29.5 78t25.5 77.5t17 73q8 35 8 65q2 93 -45 140t-142 47q-66 0 -109 -28q-44 -30 -64 -84q-6 -14 -16 -24t-24 -15t-29.5 -4.5t-30.5 7.5q-14 6 -23 17t-12.5 24.5t-2.5 28t8 27.5q20 38 50 68.5t70.5 51.5 t90.5 33q51 12 109 12q34 0 69 -5t69 -15q34 2 53 18t27 38q6 14 17.5 25.5t26 17t30.5 3.5t32 -13q12 -8 19 -20t9 -25.5t-2 -27.5q-4 -12 -12 -24q-14 -20 -36 -36t-54 -24q32 -34 50 -83t17 -117q-1 -50 -14 -107t-34 -119t-48 -126t-55 -128q-10 -22 -22 -40t-28 -31 t-36 -20t-44 -7t-44 7t-36.5 21t-28.5 32q-11 18 -19 40l-103 297h-67q-22 0 -37 15t-15 37q0 11 4 20.5t11 16.5t16.5 11.5t20.5 4.5h136zM502 -128q0 14 5 26t15 22t22 15t26 5t27 -5t22 -15t14.5 -22t5.5 -26v-82q0 -16 -6.5 -30.5t-16.5 -25t-24.5 -16.5t-30.5 -6 q-22 0 -40.5 11.5t-28.5 30.5q-20 39 -62 39q-28 0 -45 -14.5t-21 -36.5q-3 -13 -13.5 -21.5t-25.5 -8.5q-14 0 -24.5 8t-14.5 22q-5 22 -19.5 36.5t-40.5 14.5q-21 0 -33.5 -12.5t-18.5 -30.5q-5 -20 -22.5 -31t-37.5 -7q-20 5 -30 22.5t-6 37.5q6 36 22 60t36 38t40.5 20 t36.5 6q19 0 35 -4.5t29 -11.5t23 -16q10 -10 18 -20q10 16 22 26t24 15.5t23 8t21 2.5q16 0 30 -4t26 -9t22 -12t16 -15v16z" />
<glyph unicode="&#xe11;" horiz-adv-x="866" d="M784 58q0 -16 -5 -28.5t-15 -21t-22 -13.5t-26 -5t-27 5t-22 13t-14.5 21t-5.5 29v573q0 19 -0.5 36.5t-3.5 31t-10 21t-21 7.5q-17 0 -41.5 -13.5t-55.5 -37.5t-65.5 -59t-70.5 -79q-26 -32 -46.5 -55t-35 -42t-24 -35t-15.5 -34t-8 -39t-2 -51v-224q0 -16 -5.5 -28.5 t-15 -21t-21.5 -13.5t-26 -5t-27 5t-22 13t-15 21t-6 29v208q0 32 1 56t4 43.5t9 36t15.5 33.5t24 35t34.5 42q23 26 45.5 48t38.5 43t24 43t3 50q-4 -10 -14.5 -18t-24 -15t-29.5 -11.5t-32 -4.5t-40.5 4.5t-48.5 17t-45 36t-31 61.5q-4 12 -2 25.5t7.5 24t15 19t22.5 12.5 q12 4 24.5 3.5t23.5 -6.5t19 -16q10 -10 14 -24q7 -22 23.5 -36t44.5 -14q26 0 44 13t26 36q8 20 25.5 33.5t40.5 13.5q14 0 27 -6t23 -15t15 -22t5 -28v-21q34 29 67 48.5t62 31.5t54 17t45 5q36 0 58 -12.5t35 -35.5t17 -55.5t4 -72.5v-626z" />
<glyph unicode="&#xe12;" horiz-adv-x="1335" d="M778 366q0 -57 13.5 -105t40 -83.5t64.5 -55.5t87 -20q32 0 56.5 9t41.5 29t26 52t9 80v510q0 16 5.5 28.5t15 21t22 13.5t26.5 5t26.5 -5t21.5 -14t15 -21t6 -28v-493q0 -74 -12.5 -131.5t-42 -97t-77.5 -60t-120 -20.5q-40 0 -75 12.5t-63 34t-51 49.5t-39 59v-79 q0 -14 -5 -26t-14 -21t-21 -14t-26 -5t-26 5t-21 14t-15 21q-5 12 -5 26v482q0 26 -2.5 54t-11 53t-24.5 45t-42 29l-115 -117q-2 -3 -6 -5.5t-10 -2.5t-11 2.5t-7 5.5l-115 117q-26 -10 -41.5 -30t-24 -45t-11.5 -52.5t-3 -53.5v-372l177 227h-41q-22 0 -37 15t-15 37 q0 11 4 20.5t11 16.5t16.5 11.5t20.5 4.5h127q13 0 24.5 -5t20.5 -14t14 -20.5t5 -24.5q0 -24 -15 -41l-295 -373q-12 -14 -29 -22t-37 -8q-18 0 -33.5 5.5t-27 16t-18.5 26.5t-7 38v437q0 52 6.5 101.5t26 93t53.5 77t88 53.5l17.5 5t23 3t25 -4.5t24.5 -16.5l84 -87l78 88 q10 11 23 15.5t25.5 4.5t24 -3t19.5 -5q56 -19 90.5 -52t54 -75.5t26.5 -93t7 -104.5v-147z" />
<glyph unicode="&#xe13;" horiz-adv-x="1300" d="M744 272q0 -48 9 -80t26 -52t42 -29t55 -9q49 0 87.5 20t64.5 55.5t40 84t14 104.5v416q0 16 5 28.5t14.5 21t22 13.5t26.5 5t26.5 -5t22 -14t14.5 -21t5 -28v-726q0 -14 -5 -26t-14 -21t-21 -14t-26 -5t-26 5t-21 14t-14 21t-5 26v79q-16 -31 -39 -59t-51.5 -49.5 t-63 -34t-74.5 -12.5q-72 0 -120.5 20.5t-78 60t-41.5 97t-12 131.5v235q0 39 -11 77.5t-36 69.5t-67 50t-103 21q-52 0 -91.5 -13t-67 -34t-42.5 -47t-18 -52q14 -8 26 -22.5t19.5 -33t12.5 -40.5q4 -24 4 -48v-348h52q11 0 20.5 -4t16.5 -11t11 -16.5t4 -20.5t-4 -20.5 t-11 -16.5t-16.5 -11t-20.5 -4h-135q-11 0 -20.5 4t-17 11t-11.5 16.5t-4 20.5v402q0 27 -5.5 54.5t-22.5 51.5q-10 13 -17 21.5t-11 16.5t-4 18t6 25q16 42 45 81.5t71 69.5t99 48t131 18q68 0 121 -13.5t92.5 -37t67 -56.5t44 -72t24 -82.5t7.5 -88.5v-236z" />
<glyph unicode="&#xe14;" horiz-adv-x="876" d="M794 58q0 -16 -5 -28.5t-15 -21t-22 -13.5t-26 -5t-27 5t-22 13t-14 21t-5 29v464q0 26 -4 52t-13.5 50.5t-26 46t-40.5 37t-58 24.5q-34 10 -78 10q-45 0 -78.5 -9.5t-58.5 -25t-41 -37t-26 -46t-13.5 -50.5t-3.5 -52v-356l191 227h-42q-22 0 -37 15t-15 37q0 11 4 20.5 t11 16.5t17 11.5t20 4.5h128q13 0 24.5 -5t20.5 -14t14 -20.5t5 -24.5q0 -24 -16 -41l-308 -373q-12 -14 -29 -22t-37 -8q-18 0 -33.5 5t-27 16t-18.5 27t-7 38v428q0 45 6.5 88.5t22.5 83t42.5 73t66 57.5t93.5 38q53 14 125 14q70 0 124 -14t93.5 -38t66 -57.5t42.5 -73 t23 -83t7 -88.5v-446z" />
<glyph unicode="&#xe15;" horiz-adv-x="882" d="M801 58q0 -16 -5.5 -28.5t-14.5 -21t-21.5 -13.5t-26.5 -5t-26.5 5t-21.5 13t-14 21t-5 29v472q0 26 -5 56t-16 58t-29 49.5t-44 30.5l-113 -117q-4 -3 -8 -5q-5 -3 -9 -3q-6 0 -10.5 2.5t-7.5 5.5l-115 117q-26 -10 -43.5 -32t-28 -49t-15.5 -57t-5 -56v-364l191 227 h-42q-22 0 -37 15t-15 37q0 11 4 20.5t11 16.5t17 11.5t20 4.5h128q13 0 24.5 -5t20.5 -14t14 -20.5t5 -24.5q0 -24 -16 -41l-308 -373q-12 -14 -29 -22t-37 -8q-18 0 -33.5 5t-27 16t-18.5 27t-7 38v437q0 52 9 101.5t30 93t57 77t90 53.5q7 2 18 5t23.5 3t24.5 -4 q12 -5 24 -17l84 -87l79 88q10 11 22.5 15.5t25.5 4.5t24 -3t19 -5q56 -19 92.5 -52.5t58 -77t30 -93.5t8.5 -102v-455z" />
<glyph unicode="&#xe16;" horiz-adv-x="844" d="M762 58q0 -16 -5 -28.5t-14.5 -21t-22 -13.5t-26.5 -5t-26 5t-21.5 13t-15 21t-5.5 29v466q0 39 -10.5 77.5t-37 69.5t-70.5 50t-110 21q-41 0 -73.5 -7t-57.5 -19.5t-43 -28t-30 -32.5t-17.5 -32t-6.5 -27q14 -8 26 -22.5t19.5 -33t12.5 -40.5q4 -24 4 -48v-348h52 q11 0 20.5 -4t16.5 -11t11 -16.5t4 -20.5t-4 -20.5t-11 -16.5t-16.5 -11t-20.5 -4h-135q-11 0 -20.5 4t-17 11t-11.5 16.5t-4 20.5v402q0 27 -5.5 54.5t-22.5 51.5q-10 14 -18 23t-11.5 16.5t-3 17t6.5 24.5q16 42 44 81.5t71 69.5t102 48t139 18q71 0 125.5 -13.5t95 -37 t68 -56.5t44.5 -72t24 -82.5t7 -88.5v-450z" />
<glyph unicode="&#xe17;" horiz-adv-x="860" d="M778 58q0 -16 -5.5 -28.5t-15 -21t-21.5 -13.5t-26 -5t-27 5t-22 13t-14.5 21t-5.5 29v510q0 39 -12 70.5t-34.5 53.5t-54 34t-71.5 12q-63 0 -110 -20t-78 -55.5t-46.5 -83.5t-15.5 -104v-417q0 -16 -5.5 -28.5t-14.5 -21t-22 -13.5t-27 -5t-26 5t-21.5 13t-15 21 t-5.5 29v727q0 14 5 25.5t14 20.5t21 14q10 5 24 5t26 -5t20.5 -14t13.5 -21t5 -25v-79q44 78 113 116q70 38 164 38q84 0 140 -23t89 -63t47 -97t14 -124v-495z" />
<glyph unicode="&#xe18;" horiz-adv-x="815" d="M82 358q0 14 5 26t14.5 21.5t22 15t26.5 5.5t26 -5.5t21 -15t14.5 -21.5t5.5 -26v-118q0 -40 17.5 -67t44.5 -44t61 -24t68 -7q30 0 63.5 6t62 21.5t47.5 43t19 71.5q0 24 -2 42.5t-10 35t-24 30.5t-42 27.5t-65 28t-95 30.5q-33 10 -66.5 19.5t-65.5 21.5t-59 27.5 t-47 36t-31.5 48t-10.5 65.5q1 36 14.5 65.5t35.5 52t51 39t62 27t67 15.5t67 5q60 0 113 -10t95.5 -31t71.5 -55t43 -81q4 -14 2 -28t-9 -25.5t-18 -20.5t-25 -13t-27.5 -2t-25 9t-20.5 18t-13 25q-7 27 -22.5 45.5t-38.5 30.5t-52 18t-62 6q-34 0 -65.5 -4t-55.5 -14 t-38.5 -26t-14.5 -38q0 -19 10 -33.5t27 -26.5t39.5 -20.5t48.5 -16.5t53 -15.5t53 -15.5q48 -16 89 -30t73 -31.5t56.5 -38.5t41 -48.5t24.5 -62.5t8 -81t-13 -83t-35.5 -65.5t-53.5 -49t-68 -33.5t-78.5 -19t-83.5 -6q-44 0 -85 6t-77 19t-66 34t-52 49t-34 65t-12 83v118 z" />
<glyph unicode="&#xe19;" horiz-adv-x="860" d="M778 56q0 -15 -5 -27t-14 -20.5t-21 -13.5t-26 -5t-26 5t-21 14t-14.5 21t-5.5 26v79q-42 -79 -110.5 -117t-164.5 -38q-84 0 -139 22.5t-88 63t-46 97.5t-13 126v493q0 16 5 28.5t14.5 21t22 13.5t26.5 5t26.5 -5t22 -14t14.5 -21t5 -28v-510q0 -38 9 -69t28 -53.5 t49 -35t72 -12.5q63 0 111.5 20t82.5 55.5t51.5 84t17.5 104.5v416q0 16 5.5 28.5t14.5 21t22 13.5t27 5t26 -5t21.5 -14t15 -21t5.5 -28v-726z" />
<glyph unicode="&#xe1a;" horiz-adv-x="860" d="M778 338q0 -45 -6.5 -89t-22 -83.5t-41.5 -73.5t-64 -58.5t-91 -38t-123 -13.5t-123 13.5t-92 38t-64.5 58.5t-41 73.5t-21.5 83.5t-6 89v444q0 16 5.5 28.5t15 21t21.5 13.5t26 5t27 -5t22 -14t14.5 -21t5.5 -28v-460q0 -26 4.5 -53t14 -52t25.5 -46.5t39.5 -37.5 t55 -25.5t72.5 -9.5t72.5 9.5t55 25.5t39.5 37.5t25.5 46.5t14 52t4.5 53v460q0 16 5.5 28.5t14.5 21t22 13.5t27 5t26 -5t21.5 -14t15 -21t5.5 -28v-444z" />
<glyph unicode="&#xe1b;" horiz-adv-x="860" d="M778 338q0 -45 -6.5 -89t-22 -83.5t-41.5 -73.5t-64 -58.5t-91 -38t-123 -13.5t-123 13.5t-92 38t-64.5 58.5t-41 73.5t-21.5 83.5t-6 89v444q0 16 5.5 28.5t15 21t21.5 13.5t26 5t27 -5t22 -14t14.5 -21t5.5 -28v-460q0 -26 4.5 -53t14 -52t25.5 -46.5t39.5 -37.5 t55 -25.5t72.5 -9.5t72.5 9.5t55 25.5t39.5 37.5t25.5 46.5t14 52t4.5 53v827q0 16 5.5 28.5t14.5 21t22 13t27 4.5t26 -4.5t21.5 -13t15 -21.5t5.5 -28v-811z" />
<glyph unicode="&#xe1c;" horiz-adv-x="923" d="M219 730v-464q0 -88 21.5 -128t64.5 -40q33 0 51 16t26 43.5t10 64.5t2 79v63q0 16 5 29t14.5 21t22 13t26.5 5t26.5 -5t22 -13.5t14.5 -21t5 -28.5v-63q0 -42 2 -79t11.5 -64.5t28 -43.5t52.5 -16q42 0 61 40t19 128v516q0 16 6 28.5t15 21t21.5 13.5t26.5 5t26.5 -5 t21.5 -14t15 -21t6 -28v-550q0 -64 -14 -111t-40 -77.5t-62 -45t-81 -14.5q-66 0 -114.5 32t-71.5 92q-19 -60 -63 -92t-112 -32q-46 0 -83 14.5t-63.5 45t-41 77.5t-14.5 111v555q0 11 4 20.5t11 16.5t16.5 11.5t20.5 4.5h156q11 0 20.5 -4t17.5 -11.5t12 -18t4 -22.5 t-4.5 -22t-12 -17t-17.5 -11t-20 -4h-71z" />
<glyph unicode="&#xe1d;" horiz-adv-x="923" d="M219 730v-464q0 -88 21.5 -128t64.5 -40q33 0 51 16t26 43.5t10 64.5t2 79v63q0 16 5 29t14.5 21t22 13t26.5 5t26.5 -5t22 -13.5t14.5 -21t5 -28.5v-63q0 -42 2 -79t11.5 -64.5t28 -43.5t52.5 -16q42 0 61 40t19 128v883q0 16 6 28.5t15 21t21.5 13t26.5 4.5t26.5 -4.5 t21.5 -13t15 -21.5t6 -28v-917q0 -64 -14 -111t-40 -77.5t-62 -45t-81 -14.5q-66 0 -114.5 32t-71.5 92q-19 -60 -63 -92t-112 -32q-46 0 -83 14.5t-63.5 45t-41 77.5t-14.5 111v555q0 11 4 20.5t11 16.5t16.5 11.5t20.5 4.5h156q11 0 20.5 -4t17.5 -11.5t12 -18t4 -22.5 t-4.5 -22t-12 -17t-17.5 -11t-20 -4h-71z" />
<glyph unicode="&#xe1e;" horiz-adv-x="1087" d="M860 62q-8 -34 -32.5 -53t-56.5 -19q-16 0 -30.5 5t-26.5 14t-21 22t-12 31l-137 622l-138 -622q-4 -17 -12 -30.5t-20 -22.5t-27 -14t-31 -5q-32 0 -56 19t-32 53l-178 700q-3 14 -0.5 28.5t9 26t17.5 19.5q12 9 26 12t28 1.5t26 -8.5t21 -19t13 -30l132 -634l134 620 q3 15 11 28.5t19.5 22.5t26 15t30.5 6t30.5 -6t26.5 -15t20 -22.5t12 -28.5l134 -620l132 634q4 18 12.5 30t20.5 19t26.5 8.5t28.5 -1.5t25.5 -11.5t18.5 -20t9 -25.5q3 -15 -1 -29z" />
<glyph unicode="&#xe1f;" horiz-adv-x="1087" d="M860 62q-8 -34 -32.5 -53t-56.5 -19q-16 0 -30.5 5t-26.5 14t-21 22t-12 31l-137 622l-138 -622q-4 -17 -12 -30.5t-20 -22.5t-27 -14t-31 -5q-32 0 -56 19t-32 53l-178 700q-3 14 -0.5 28.5t9 26t17.5 19.5q12 9 26 12t28 1.5t26 -8.5t21 -19t13 -30l132 -634l134 620 q3 15 11 28.5t19.5 22.5t26 15t30.5 6t30.5 -6t26.5 -15t20 -22.5t12 -28.5l134 -620l193 1002q4 18 12.5 30t20.5 18.5t26 8t29 -1.5q14 -3 25.5 -11.5t18.5 -20t9 -25.5t-2 -28z" />
<glyph unicode="&#xe20;" horiz-adv-x="895" d="M813 58q0 -16 -5.5 -28.5t-14.5 -21t-22 -13.5t-27 -5t-26 5t-21.5 13t-15 21t-5.5 29v466q0 39 -12 77.5t-39 69.5t-73 50t-112 21q-39 0 -71 -7t-57.5 -19t-45 -28t-32.5 -32t-20.5 -32t-8.5 -28q14 -8 25.5 -22.5t19.5 -33t12 -40.5q4 -24 4 -48v-400q0 -11 -4 -20.5 t-11 -16.5t-17 -11t-20 -4h-128q-11 0 -20.5 4t-16.5 11t-11 16.5t-4 20.5t4 20.5t11 16.5t17 11t20 4h45v350q0 27 -5.5 54.5t-22.5 51.5q-10 14 -17.5 23t-11.5 16.5t-3.5 17t6.5 24.5q16 42 45.5 81.5t73.5 69.5t105 48t139 18q71 0 126.5 -13.5t97 -37t70 -56.5 t46.5 -72t25.5 -82.5t7.5 -88.5v-450z" />
<glyph unicode="&#xe21;" horiz-adv-x="860" d="M84 782q0 16 5 28t14.5 21t22 14t26.5 5t26.5 -5t22 -13.5t14.5 -21t5 -28.5v-416q0 -57 18 -105t51.5 -83.5t82.5 -55.5t112 -20q42 0 72 12.5t49 35t27.5 53.5t8.5 69v510q0 16 5.5 28t14.5 21t22 14t27 5t26 -5t21.5 -13.5t15 -21t5.5 -28.5v-493q0 -68 -13.5 -125.5 t-46.5 -98t-88.5 -63t-138.5 -22.5q-96 0 -164.5 38t-110.5 117v-79q0 -14 -5 -26t-14 -21t-21 -14t-26 -5t-26 5t-21 13.5t-14 21t-5 26.5v726z" />
<glyph unicode="&#xe22;" horiz-adv-x="837" d="M756 291q0 -76 -27 -134.5t-73.5 -97.5t-108 -59t-131.5 -20q-44 0 -87 7t-81 22t-71.5 38t-57.5 54t-37.5 70t-13.5 87q0 36 5.5 66.5t19 56t35.5 44.5t54 31q-37 14 -59 36t-34 47t-15.5 51t-3.5 51q0 40 10 69.5t27 51.5t39 37t47 24t51 13t49 4h68q12 0 22.5 -5 t18.5 -13t12 -18t4 -22t-4 -22t-12 -18t-18.5 -12.5t-22.5 -4.5h-33q-13 0 -33 -1.5t-38.5 -10.5t-32 -27t-13.5 -51q0 -37 9.5 -60t26.5 -36t40.5 -18t50.5 -7h23q12 0 22.5 -4.5t18.5 -12t12 -17.5t4 -22t-4 -22.5t-12 -18t-18.5 -11.5t-22.5 -4h-23q-28 -2 -52 -7 t-40 -19t-25.5 -40t-9.5 -72q0 -42 17 -73.5t45.5 -52.5t65.5 -31.5t77 -10.5q44 0 81 12t64 38.5t42 69t15 104.5v462q0 16 6 28t15 21t21.5 14t26.5 5t26.5 -5t21.5 -13.5t15 -21t6 -28.5v-491z" />
<glyph unicode="&#xe23;" horiz-adv-x="721" d="M188 218q14 -62 59 -91t121 -29q17 0 36 2.5t37 8t34.5 14.5t29.5 23.5t20 34.5q7 21 7 47q0 30 -11 50.5t-34 37.5t-58 32.5t-83 34.5q-39 16 -74.5 30.5t-66 30.5t-55 34t-42.5 40.5t-28 50.5t-10 64q0 39 10.5 70.5t30 56t46.5 43t57.5 30t63.5 17.5t66 6q56 0 104 -9 t86 -30t65 -55.5t40 -85.5q4 -14 1.5 -27t-9.5 -25t-17.5 -20t-24.5 -12t-27.5 -2t-25 9t-20 18t-12.5 25q-8 28 -21 48t-32 32t-43 18t-52 6q-24 0 -50 -6t-47 -19t-34.5 -34t-13.5 -52q0 -30 12.5 -48.5t37 -33.5t59.5 -28q36 -13 80 -29q54 -20 95 -39t71 -38t50 -39 t32 -43t17 -49t5 -58q0 -68 -24 -115.5t-66 -76.5t-98 -41.5t-122 -12.5q-56 0 -105 11t-89 35t-68.5 62t-43.5 92q-4 14 -2 27t9 25t18 20t25 12t27.5 2t25 -9t19.5 -18t12 -25z" />
<glyph unicode="&#xe24;" horiz-adv-x="844" d="M762 -215q0 -16 -5 -28.5t-14.5 -21t-22 -13t-26.5 -4.5t-26 4.5t-21.5 13t-15 21t-5.5 28.5v739q0 39 -10.5 77.5t-37 69.5t-70.5 50t-110 21q-41 0 -73.5 -7t-57.5 -19.5t-43 -28t-30 -32.5t-17.5 -32t-6.5 -27q14 -8 26 -22.5t19.5 -33t12.5 -40.5q4 -24 4 -48v-348 h52q11 0 20.5 -4t16.5 -11t11 -16.5t4 -20.5t-4 -20.5t-11 -16.5t-16.5 -11t-20.5 -4h-135q-11 0 -20.5 4t-17 11t-11.5 16.5t-4 20.5v402q0 27 -5.5 54.5t-22.5 51.5q-10 14 -18 23t-11.5 16.5t-3 17t6.5 24.5q16 42 44 81.5t71 69.5t102 48t139 18q71 0 125.5 -13.5 t95 -37t68 -56.5t44.5 -72t24 -82.5t7 -88.5v-723z" />
<glyph unicode="&#xe25;" horiz-adv-x="839" d="M621 434q-20 -14 -49.5 -22.5t-63 -14t-69.5 -9.5t-70.5 -10t-66 -16t-55 -27.5t-37.5 -44t-14 -64.5q0 -40 18.5 -66.5t47.5 -41t64 -18.5q36 -4 72 0q11 2 21.5 -1t18.5 -9t13.5 -16t6.5 -22t-2 -22.5t-9.5 -19t-15.5 -14t-19 -7.5q-19 -4 -37.5 -5.5t-40.5 -1.5 q-56 0 -106 12t-88 40t-60 72.5t-22 108.5q0 48 11 84t30.5 62.5t46 45t58.5 31t66 21.5t70 16q31 6 64.5 9.5t64.5 8.5t59 11.5t49 18t33 30t12 45.5q0 32 -7.5 55t-21 39t-31.5 25.5t-38.5 15t-43 7.5t-44.5 2q-38 0 -71.5 -6.5t-59.5 -21t-44 -37.5t-26 -58 q-4 -14 -12.5 -24.5t-20.5 -17.5t-25 -9t-27 2t-25 12.5t-18 20t-9 25.5t2 28q16 56 49 94t79 61.5t102 34t116 10.5q37 0 74.5 -4.5t72.5 -15.5t65 -29t52 -45t35 -64q13 -38 13 -86v-554q0 -16 -5.5 -28.5t-15 -21t-21.5 -13.5t-26 -5t-27 5t-22 13t-14.5 21t-5.5 29v376z " />
<glyph unicode="&#xe26;" horiz-adv-x="895" d="M813 -215q0 -16 -5.5 -28.5t-14.5 -21t-22 -13t-27 -4.5t-26 4.5t-21.5 13t-15 21t-5.5 28.5v739q0 39 -12 77.5t-39 69.5t-73 50t-112 21q-39 0 -71 -7t-57.5 -19t-45 -28t-32.5 -32t-20.5 -32t-8.5 -28q14 -8 25.5 -22.5t19.5 -33t12 -40.5q4 -24 4 -48v-400 q0 -11 -4 -20.5t-11 -16.5t-17 -11t-20 -4h-128q-11 0 -20.5 4t-16.5 11t-11 16.5t-4 20.5t4 20.5t11 16.5t17 11t20 4h45v350q0 27 -5.5 54.5t-22.5 51.5q-10 14 -17.5 23t-11.5 16.5t-3.5 17t6.5 24.5q16 42 45.5 81.5t73.5 69.5t105 48t139 18q71 0 126.5 -13.5t97 -37 t70 -56.5t46.5 -72t25.5 -82.5t7.5 -88.5v-723z" />
<glyph unicode="&#xe27;" horiz-adv-x="762" d="M66 209q-4 15 -2 29t8.5 25t17 19t24.5 12t28 3t26 -8t20.5 -18t11.5 -25q7 -37 22.5 -65t37.5 -46.5t50 -28.5q26 -10 58 -10q46 0 82 19t61 59t38.5 101t13.5 145t-13.5 145t-38.5 101t-61 60t-82 20q-31 0 -58.5 -9.5t-49.5 -28t-37.5 -46.5t-22.5 -66q-2 -14 -11 -25 t-21 -17.5t-26 -8t-28 2.5t-24.5 12t-17 19.5t-8.5 25t2 28.5q14 50 41 92t65.5 72t88 46.5t107.5 16.5q87 0 150.5 -32t105.5 -89.5t62 -138.5t20 -180t-20 -180t-62 -138.5t-105 -88.5t-151 -31q-58 0 -108 16t-89 46t-66 71.5t-39 93.5z" />
<glyph unicode="&#xe28;" horiz-adv-x="868" d="M449 379q-62 -6 -106 -28.5t-72 -60.5t-41 -90t-13 -116v-26q0 -16 -5.5 -28.5t-14.5 -21t-21 -13.5t-26 -5t-26.5 5t-22 13t-14.5 21t-5 29v444q0 45 6.5 88.5t22 83.5t42 73.5t65.5 58t92.5 38.5t123.5 14q50 0 90 -6t74 -17q18 0 32 5.5t25 13.5t18 18t11 20 q6 14 17 25.5t25 17t30 3.5t33 -13q12 -8 19 -20t8.5 -25.5t-1.5 -27.5q-3 -12 -11 -24q-14 -20 -38 -37t-58 -25q22 -24 37 -52.5t24 -62t13 -71t4 -78.5v-444q0 -16 -5 -28.5t-15 -21t-22 -13.5t-26 -5t-27 5t-22 13t-14.5 21t-5.5 29v462q0 26 -4.5 52t-14.5 51t-27 46.5 t-41 37.5t-55.5 25.5t-72.5 9.5t-73 -9.5t-56 -25.5t-40.5 -37.5t-27.5 -46.5t-15.5 -51t-4.5 -52v-188q36 70 90.5 111t130.5 50q12 2 23.5 -1.5t20 -10.5t13.5 -17.5t6 -22.5t-2.5 -22.5t-10.5 -19t-17 -14t-22 -6.5z" />
<glyph unicode="&#xe29;" horiz-adv-x="860" d="M465 408q-14 0 -26.5 5t-21.5 14t-14 21.5t-5 26.5v53q0 14 5 26t14 20.5t21.5 13t26.5 4.5t26.5 -4.5t21.5 -13t14 -20.5t5 -26v-14h109v268q0 16 5.5 28.5t14.5 21t22 13.5t27 5t26 -5t21.5 -14t15 -21t5.5 -28v-268h34q22 0 37 -16t15 -38t-15 -37t-37 -15h-34v-70 q0 -45 -6.5 -89t-22 -83.5t-41.5 -73.5t-64 -58.5t-91 -38t-123 -13.5t-123 13.5t-92 38t-64.5 58.5t-41 73.5t-21.5 83.5t-6 89v444q0 16 5.5 28.5t15 21t21.5 13.5t26 5t27 -5t22 -14t14.5 -21t5.5 -28v-460q0 -26 4.5 -53t14 -52t25.5 -46.5t39.5 -37.5t55 -25.5 t72.5 -9.5t72.5 9.5t55 25.5t39.5 37.5t25.5 46.5t14 52t4.5 53v86h-176z" />
<glyph unicode="&#xe2a;" horiz-adv-x="839" d="M621 434q-20 -14 -49.5 -22.5t-63 -14t-69.5 -9.5t-70.5 -10t-66 -16t-55 -27.5t-37.5 -44t-14 -64.5q0 -40 18.5 -66.5t47.5 -41t64 -18.5q36 -4 72 0q11 2 21.5 -1t18.5 -9t13.5 -16t6.5 -22t-2 -22.5t-9.5 -19t-15.5 -14t-19 -7.5q-19 -4 -37.5 -5.5t-40.5 -1.5 q-56 0 -106 12t-88 40t-60 72.5t-22 108.5q0 48 11 84t30.5 62.5t46 45t58.5 31t66 21.5t70 16q31 6 64.5 9.5t64.5 8.5t59 11.5t49 18t33 30t12 45.5q0 32 -7.5 55t-21 39t-31.5 25.5t-38.5 15t-43 7.5t-44.5 2q-38 0 -71.5 -6.5t-59.5 -21t-44 -37.5t-26 -58 q-4 -14 -12.5 -24.5t-20.5 -17.5t-25 -9t-27 2t-25 12.5t-18 20t-9 25.5t2 28q16 56 49 94t79 61.5t102 34t116 10.5q38 0 76 -5t74 -17v1q18 0 32.5 5.5t25 13.5t17.5 18t11 20q6 14 17.5 25.5t26 17t30.5 3.5t32 -13q12 -8 19 -20t9 -25.5t-2 -27.5q-4 -12 -12 -24 q-14 -20 -38 -37q-22 -17 -56 -25h-2q24 -28 38 -66t14 -88v-554q0 -16 -5.5 -28.5t-15 -21t-21.5 -13.5t-26 -5t-27 5t-22 13t-14.5 21t-5.5 29v376z" />
<glyph unicode="&#xe2b;" horiz-adv-x="841" d="M760 58q0 -16 -5.5 -28.5t-15 -21t-21.5 -13.5t-26 -5t-27 5t-22 13t-14.5 21t-5.5 29v342q0 36 -5.5 65t-17.5 51.5t-32 37.5q-20 14 -48 22l-301 -218v-300q0 -16 -5.5 -28.5t-14.5 -21t-22 -13.5t-27 -5t-26 5t-21.5 13t-15 21t-5.5 29v724q0 16 5.5 28.5t15 21 t21.5 13.5t26 5t27 -5t22 -14t14.5 -21t5.5 -28v-270l449 325q10 8 23 10.5t25.5 1t24 -8t19.5 -16.5q8 -11 10.5 -23.5t0 -23.5t-9.5 -22t-17 -18l-110 -79q38 -18 62 -44.5t38.5 -61.5t20 -77.5t5.5 -91.5v-325z" />
<glyph unicode="&#xe2c;" horiz-adv-x="1073" d="M766 158l84 397q9 41 12 75t-2.5 59.5t-20.5 42t-43 21.5q-19 4 -32.5 15.5t-13.5 29.5q0 19 13 31.5t33 14.5q52 7 86 28.5t52 61.5q8 18 21 30.5t29 17t33 1.5t31 -17q12 -10 18 -22.5t7 -26.5t-3 -27.5t-14 -25.5q-28 -31 -65 -47.5t-77 -22.5q26 -8 46 -25t31 -44 t12 -63t-11 -80l-132 -520q-8 -34 -32.5 -53t-56.5 -19t-55.5 19t-33.5 53l-148 490l-154 -490q-10 -33 -33 -52.5t-55 -19.5t-57 19t-32 53l-153 700q-3 14 -0.5 28.5t9 26t17.5 19.5q12 9 26 12t28 1.5t26 -8.5t21 -19t13 -30l106 -634l144 468q5 16 13.5 30t21 24t27 16 t32.5 6q17 0 32 -6t27.5 -16t21.5 -24t13 -30z" />
<glyph unicode="&#xe2d;" horiz-adv-x="827" d="M53 412q0 11 4 20.5t11.5 16.5t16.5 11.5t21 4.5h267q11 0 20.5 -4.5t16.5 -11.5t11.5 -16t4.5 -21q0 -11 -4.5 -20.5t-11.5 -16.5t-16.5 -11t-20.5 -4h-179q0 -59 16 -107.5t45.5 -83.5t70 -54t90.5 -19q52 0 94 22t71 63t44.5 100.5t15.5 136.5q0 78 -14.5 138.5 t-42.5 101.5t-71 62.5t-99 21.5q-37 0 -69.5 -9t-59.5 -24.5t-46 -38t-30 -50.5q-11 -30 -34 -44t-53 -6q-15 4 -25.5 13t-16.5 20t-7 25t5 28q18 47 48 84.5t72 64.5t96 41t120 14q100 0 170 -34t114 -93.5t63 -140t19 -174.5q0 -58 -8.5 -113t-27 -104t-47.5 -89 t-69.5 -69t-93 -45t-118.5 -16t-119 16t-93.5 45t-69 69t-46.5 88t-26.5 101.5t-8.5 110.5z" />
<glyph unicode="&#xe2e;" horiz-adv-x="823" d="M53 412q0 11 4 20.5t11.5 16.5t16.5 11.5t21 4.5h267q11 0 20.5 -4.5t16.5 -11.5t11.5 -16t4.5 -21q0 -11 -4.5 -20.5t-11.5 -16.5t-16.5 -11t-20.5 -4h-179q0 -59 16 -107.5t45.5 -83.5t70 -54t90.5 -19q52 0 94 22t71 63t44.5 100.5t15.5 136.5q0 78 -14.5 138.5 t-42.5 101.5t-71 62.5t-99 21.5q-37 0 -69.5 -9t-59.5 -24.5t-46 -38t-30 -50.5q-11 -30 -34 -44t-53 -6q-15 4 -25.5 13t-16.5 20t-7 25t5 28q18 47 48 84.5t72 64.5t96 41t120 14q42 0 79 -6t68 -18q16 2 28.5 7t22 13t16 17t10.5 19q6 14 17 25.5t25 17t30 3.5t33 -13 q12 -8 19 -20t8.5 -25.5t-1.5 -27.5q-3 -12 -11 -24q-14 -19 -36 -36q-22 -16 -54 -24q30 -30 51 -68t35 -83t20 -95t6 -104q0 -58 -8.5 -113t-27 -104t-47.5 -89t-69.5 -69t-93 -45t-118.5 -16t-119 16t-93.5 45t-69 69t-46.5 88t-26.5 101.5t-8.5 110.5z" />
<glyph unicode="&#xe2f;" horiz-adv-x="844" d="M762 58q0 -16 -5.5 -28.5t-15 -21t-21.5 -13.5t-26 -5t-27 5t-22 13t-14.5 21t-5.5 29v372q-18 -22 -43 -40t-55.5 -30t-64.5 -18q-36 -6 -72 -6q-82 0 -143 19t-102 54.5t-61 85t-20 111.5q0 44 11 78.5t30.5 60.5t46 44t55.5 29.5t61 16.5t62 5h71q12 0 22.5 -5 t18.5 -13t12 -18t4 -22t-4 -22t-12 -18t-18.5 -12.5t-22.5 -4.5h-71q-65 0 -95 -29.5t-30 -91.5q0 -28 8.5 -56t29.5 -50t56 -36t90 -14q115 0 175.5 45t60.5 142v147q0 16 5.5 28.5t14.5 21t22 13.5t27 5t26 -5t21.5 -14t15 -21t5.5 -28v-724z" />
<glyph unicode="&#xe30;" horiz-adv-x="481" d="M148 559q-14 0 -26 5.5t-21 14t-14 20.5q-5 11 -5 25v52q0 14 5 26t14 21t21 14t26 5t25.5 -5t20 -14t14 -21t5.5 -26v-10h157q11 0 20.5 -4.5t17 -12t12 -17t4.5 -20.5t-4.5 -20.5t-12 -16.5t-17 -11.5t-20.5 -4.5h-222zM148 144q-14 0 -26 5t-21 14t-14 21t-5 25v52 q0 14 5 25.5t14 20.5t21 14t26 5t25.5 -5t20 -14t14 -21t5.5 -25v-11h157q11 0 20.5 -4t17 -11.5t12 -17t4.5 -21.5q0 -11 -4.5 -20.5t-12 -16.5t-17 -11t-20.5 -4h-222z" />
<glyph unicode="&#xe31;" d="M-438 981q-14 0 -26 5.5t-21 14t-14 20.5q-5 11 -5 25v62q0 14 5 26t14 21t21 14t26 5t25.5 -5t20 -14t14 -21t5.5 -26v-20h365q11 0 20.5 -4.5t17 -12t12 -17t4.5 -20.5t-4.5 -20.5t-12 -16.5t-17 -11.5t-20.5 -4.5h-430z" />
<glyph unicode="&#xe32;" horiz-adv-x="675" d="M594 58q0 -16 -6 -28.5t-15 -21t-21.5 -13.5t-26.5 -5t-26.5 5t-21.5 13t-15 21t-6 29v493q0 100 -38 145.5t-112 45.5q-56 0 -93 -26t-51 -78q-4 -14 -13 -25t-21 -18t-26 -9t-28 2t-26 13t-19 21t-9 26q0 14 4 28q14 45 42.5 78.5t66 56t82.5 34t91 11.5 q62 0 114.5 -17t91 -51t60.5 -86t22 -122v-522z" />
<glyph unicode="&#xe33;" horiz-adv-x="675" d="M-309 1112q0 29 11 55t30.5 45t44.5 30.5t55 11.5q28 0 54 -11.5t45 -30.5t31 -45t12 -55q0 -30 -12 -55t-31 -44.5t-45 -30.5t-54 -11q-30 0 -55 11t-44.5 30.5t-30.5 44.5t-11 55zM-226 1112q0 -12 5 -22t13 -18t18 -13t22 -5t22 5t18 13t13 18t5 22t-5 22t-13 18 t-18 13t-22 5t-22 -5t-18 -13t-13 -18t-5 -22zM594 58q0 -16 -6 -28.5t-15 -21t-21.5 -13.5t-26.5 -5t-26.5 5t-21.5 13t-15 21t-6 29v493q0 100 -38 145.5t-112 45.5q-56 0 -93 -26t-51 -78q-4 -14 -13 -25t-21 -18t-26 -9t-28 2t-26 13t-19 21t-9 26q0 14 4 28 q14 45 42.5 78.5t66 56t82.5 34t91 11.5q62 0 114.5 -17t91 -51t60.5 -86t22 -122v-522z" />
<glyph unicode="&#xe34;" d="M-734 981q-22 0 -38 14.5t-16 37.5q0 11 4 20.5t11.5 17t17 11.5t21.5 4h608q11 0 21 -4t17.5 -11.5t11.5 -17t4 -20.5q0 -22 -16 -37t-38 -15h-608z" />
<glyph unicode="&#xe35;" d="M-734 981q-22 0 -38 14.5t-16 37.5q0 11 4 20.5t11.5 17t17 11.5t21.5 4h521v73q0 14 5.5 25.5t14 20.5t20.5 14q11 5 25 5t26 -5t21 -14t14 -21t5 -25v-126q0 -22 -16 -37t-38 -15h-598z" />
<glyph unicode="&#xe36;" d="M-248 1114q0 -10 4 -20t12 -16.5t18 -10.5t20 -4t20 4t17 10.5t11 16.5t4 20q0 12 -4 21.5t-11 17t-17 11.5t-20 4t-20 -4t-18 -11.5t-12 -17t-4 -21.5zM-734 981q-22 0 -38 14.5t-16 37.5q0 11 4 20.5t11.5 17t17 11.5t21.5 4h408q-2 8 -2 15v13q0 28 10.5 52t28.5 42 t42.5 28.5t52.5 10.5t52 -10.5t42 -28.5t28 -42t10 -52t-10 -52t-28 -42t-42 -28q-24 -11 -52 -11h-540z" />
<glyph unicode="&#xe37;" d="M-82 1033q0 -22 -16 -37t-38 -15h-598q-22 0 -38 14.5t-16 37.5q0 11 4 20.5t11.5 17t17 11.5t21.5 4h304v73q0 14 5 25.5t14 20.5t21 14q10 5 24 5t26 -5t20.5 -14t13.5 -21t5 -25v-73h90v73q0 14 5 25.5t13.5 20.5t20.5 14t26 5t25 -5t20 -14t14 -21t5 -25v-126z" />
<glyph unicode="&#xe38;" d="M-82 -356q0 -14 -5 -26t-14 -20t-21 -13q-10 -5 -24 -5t-26 5t-20.5 13t-13.5 20t-5 26v145h-38q-10 0 -19.5 4t-16.5 11t-11 16q-4 10 -4 20t4 19t11 16t16 11t20 4h117q10 0 19 -4t16 -11t11 -16t4 -19v-196z" />
<glyph unicode="&#xe39;" d="M-211 -165q0 14 5 25.5t13.5 20.5t20.5 14t26 5t25 -5t20 -14t14 -21t5 -25v-46q0 -40 -11 -76.5t-36 -63.5t-66 -43t-100 -16q-58 0 -99 14.5t-66.5 41t-37.5 62.5t-12 81h-38q-10 0 -19 4t-16 11t-11 16q-4 10 -4 20t4 19t11 16t16 11t19 4h118q10 0 19.5 -4t16.5 -11 t11 -16t4 -19v-51q0 -48 20.5 -72t63.5 -24q84 0 84 96v46z" />
<glyph unicode="&#xe3a;" d="M-252 -174q0 20 8 38.5t21.5 32t32 21.5t38.5 8t38 -8t31.5 -21.5t21.5 -32t8 -38.5t-8 -38t-21.5 -31.5t-31.5 -21t-38 -7.5q-21 0 -39 7.5t-31.5 21t-21.5 31.5t-8 38z" />
<glyph unicode="&#xe3e;" />
<glyph unicode="&#xe3f;" horiz-adv-x="952" d="M491 0v-120q0 -14 -9 -25q-10 -11 -24 -11q-15 0 -23.5 11t-8.5 25v120h-248q-14 0 -27 5.5t-22 15t-15 22.5t-6 27v860q0 14 6 27t15 22t22 15t27 6h248v108q0 14 9 26t23 12q16 0 24 -12q9 -12 9 -26v-108h19q81 0 143.5 -10t105.5 -37t65 -77t22 -128q0 -80 -34 -133 t-102 -85q44 -12 77.5 -34t56 -53t34 -70t11.5 -84q0 -54 -20 -105.5t-58.5 -92.5t-95.5 -66t-131 -25h-93zM491 452v-333h74q44 0 78.5 12t58.5 34.5t36 55.5t12 74q0 47 -19 77.5t-49 48t-68 24.5t-76 7h-47zM426 119v333h-178v-333h178zM491 878v-304h9q56 0 95 11t64 32 t37 51t12 70q0 35 -7 58.5t-19 39.5t-30 24.5t-40.5 12.5t-48 4.5t-53.5 0.5h-19zM426 574v304h-178v-304h178z" />
<glyph unicode="&#xe40;" horiz-adv-x="342" d="M240 58q0 -16 -6 -28.5t-15 -21t-21.5 -13.5t-26.5 -5t-26.5 5t-21.5 13t-15 21t-6 29v724q0 16 6 28.5t15 21t21.5 13.5t26.5 5t26.5 -5t21.5 -14t15 -21t6 -28v-724z" />
<glyph unicode="&#xe41;" horiz-adv-x="583" d="M219 58q0 -16 -5.5 -28.5t-14.5 -21t-22 -13.5t-27 -5t-26 5t-21.5 13t-15 21t-5.5 29v724q0 16 5.5 28.5t15 21t21.5 13.5t26 5t27 -5t22 -14t14.5 -21t5.5 -28v-724zM502 58q0 -16 -5.5 -28.5t-15 -21t-21.5 -13.5t-26 -5t-27 5t-22 13t-14.5 21t-5.5 29v724 q0 16 5.5 28.5t14.5 21t22 13.5t27 5t26 -5t21.5 -14t15 -21t5.5 -28v-724z" />
<glyph unicode="&#xe42;" horiz-adv-x="401" d="M306 104q11 0 20.5 -4t16.5 -11t11 -16.5t4 -20.5t-4 -20.5t-11 -16.5t-17 -11t-20 -4h-128q-11 0 -20.5 4t-17 11t-11.5 16.5t-4 20.5v921q0 26 -6.5 46.5t-17 36.5t-25.5 26q-14 11 -32 17q-17 6 -28.5 21.5t-11.5 34.5q0 12 5 23t13 19t19 12.5t23 4.5h344 q11 0 21.5 -4t17.5 -11.5t11.5 -17.5t4.5 -21q0 -12 -4.5 -21.5t-11.5 -17t-17 -11.5t-22 -4h-203q13 -10 23 -25t17 -32t11 -36t4 -36v-873h46z" />
<glyph unicode="&#xe43;" horiz-adv-x="401" d="M125 807q0 34 2.5 59.5t9.5 47t21 42t38 44.5q9 9 20.5 19.5t21 22.5t16 24t6.5 25q0 11 -4 22t-13 19t-24 13.5t-39 5.5q-39 0 -61.5 -22.5t-29.5 -63.5q-2 -13 -9.5 -23t-18 -16.5t-23 -9t-25.5 1.5q-13 3 -23 10t-17 17.5t-9 22.5t0 26q9 40 30.5 70t50.5 50t63.5 30 t71.5 10q39 0 75.5 -9t64.5 -28t44.5 -50t16.5 -73q0 -22 -6.5 -39t-17.5 -32.5t-27.5 -32t-36.5 -40.5q-12 -14 -19 -32t-10 -37.5t-3.5 -38.5t-0.5 -35v-703h46q11 0 20.5 -4t16.5 -11t11 -16.5t4 -20.5t-4 -20.5t-11 -16.5t-17 -11t-20 -4h-128q-11 0 -20.5 4t-17 11 t-11.5 16.5t-4 20.5v755z" />
<glyph unicode="&#xe44;" horiz-adv-x="401" d="M306 104q11 0 20.5 -4t16.5 -11t11 -16.5t4 -20.5t-4 -20.5t-11 -16.5t-17 -11t-20 -4h-128q-11 0 -20.5 4t-17 11t-11.5 16.5t-4 20.5v925q0 18 3.5 36.5t10.5 35.5t17.5 32t23.5 25h-204q-12 0 -21 4t-17 11.5t-12 17t-4 21.5q0 11 4 21t12 17.5t18 11.5q8 4 20 4h345 q12 0 23 -4.5t19 -12.5t12.5 -19t4.5 -23q0 -19 -11 -34t-27 -22q-18 -6 -33 -16.5t-26 -26.5t-17 -37t-6 -46v-869h46z" />
<glyph unicode="&#xe45;" horiz-adv-x="675" d="M594 -215q0 -16 -6 -28.5t-15 -21t-21.5 -13t-26.5 -4.5t-26.5 4.5t-21.5 13t-15 21t-6 28.5v766q0 100 -38 145.5t-112 45.5q-56 0 -93 -26t-51 -78q-4 -14 -13 -25t-21 -18t-26 -9t-28 2t-26 13t-19 21t-9 26q0 14 4 28q14 45 42.5 78.5t66 56t82.5 34t91 11.5 q62 0 114.5 -17t91 -51t60.5 -86t22 -122v-795z" />
<glyph unicode="&#xe46;" horiz-adv-x="794" d="M708 -215q0 -16 -5 -28.5t-14.5 -21t-22 -13t-26.5 -4.5t-26.5 4.5t-22 13t-14.5 21t-5 28.5v757q0 26 -2 56t-8.5 57t-21 46t-40.5 23l-96 -100q-7 -7 -17.5 -7.5t-18.5 7.5l-98 100q-26 -10 -42 -27t-25 -40t-11 -49q-4 -27 -2 -56q0 -20 4 -39t12.5 -35t23.5 -26 t39 -10q29 -1 42 -18.5t11 -43.5q-1 -15 -7 -25.5t-15.5 -17.5t-21.5 -11t-24 -4q-40 -1 -76 14.5t-63 44.5t-43 71.5t-16 97.5q0 52 7 98t27.5 84t56 66t92.5 44q6 2 15.5 3.5t20.5 1t22 -4.5q11 -6 21 -16l69 -72l63 74q10 12 23 16t25 4t24 -2q10 -3 18 -5 q56 -16 90 -47.5t51 -74t22 -92t5 -102.5v-740z" />
<glyph unicode="&#xe47;" d="M-442 1231q-34 0 -54.5 -8t-30.5 -19.5t-12.5 -25.5t-2.5 -25q0 -8 2 -18t8 -19.5t18 -15.5t32 -6q26 0 42 14q15 14 20 36q4 16 17 27t30 11q18 0 31 -11q12 -11 16 -28q5 -22 20 -35.5t40 -13.5q50 0 53 42q2 22 18 34.5t40 10.5t35.5 -18.5t11.5 -42.5 q-1 -34 -13.5 -58t-31.5 -40t-44 -23.5t-51 -7.5t-47 8.5t-37 22.5t-26 30t-12 32q-2 -16 -13.5 -32t-29.5 -30t-41.5 -22.5t-47.5 -8.5q-46 0 -78 16t-51.5 40.5t-28 52.5t-8.5 53q0 48 18 81t47 53.5t67 30.5q40 9 80 9h354q22 0 35 -14t13 -34t-14 -34q-12 -14 -34 -14 h-340z" />
<glyph unicode="&#xe48;" d="M-82 1364q0 -14 -5 -26t-14 -21t-21 -14t-26 -5t-25.5 5t-20 14t-14 21t-5.5 26v110q0 14 5.5 26.5t14 21t20.5 13.5q11 5 25 5t26 -5t21 -13.5t14 -20.5q5 -13 5 -27v-110z" />
<glyph unicode="&#xe49;" d="M-63 1507q4 12 12.5 20.5t19 13.5t22 5t23.5 -4t20 -12t13 -18.5t5 -22t-4 -23.5q-13 -32 -38.5 -61t-64 -50t-90 -33t-115.5 -12h-60q-10 0 -19 4t-16 11t-11 16t-4 19v76h-32q-10 0 -19 3.5t-16 10t-11 16.5t-4 20t4 19t11 16t16 11t19 4h96q10 0 19 -4t16 -11t11 -16 t4 -19v-75q78 0 126 25t67 71z" />
<glyph unicode="&#xe4a;" d="M3 1503q2 12 9 20.5t16.5 13.5t20.5 6.5t21 -1.5q11 -3 19.5 -9.5t14 -16.5t7 -21t-0.5 -21q-7 -30 -22 -58t-35.5 -50t-44.5 -37t-49 -21h-53q-16 0 -29 10.5t-17 26.5q-2 10 -4.5 19t-7 16.5t-10.5 11.5t-16 4q-13 0 -20.5 -8t-7.5 -28q0 -10 -4 -18t-10.5 -14.5 t-15 -10t-17.5 -3.5q-10 0 -18 3.5t-14.5 10t-10.5 14.5t-4 18q0 6 -2 13t-5.5 12t-9 8t-13.5 3q-16 0 -25 -13t-9 -39q0 -12 -5.5 -21t-14.5 -15t-20.5 -8t-21.5 -1q-22 4 -34 20.5t-12 41.5q0 35 11 62t28.5 45t40 28t44.5 10q31 0 56.5 -15.5t37.5 -40.5q12 23 38 39.5 t60 16.5q19 0 36.5 -7t32 -20t24.5 -31.5t14 -42.5q8 6 15.5 16.5t14.5 23.5t13 27.5t9 30.5z" />
<glyph unicode="&#xe4b;" d="M-82 1361q0 -14 -5 -26.5t-14 -21t-21 -13t-26 -4.5t-25.5 4.5t-20 13t-14 20.5t-5.5 27v54h-85q-11 0 -20.5 4t-16.5 10.5t-11 16.5q-3 10 -3 20q0 21 14 36q15 14 37 14h85v54q0 14 5.5 26t14 21t20.5 13q11 5 25 5t26 -4.5t21 -13.5t14 -21t5 -26v-54h86q11 0 20 -4 t15.5 -11t10.5 -16t4 -20q0 -21 -14 -35.5t-36 -14.5h-86v-54z" />
<glyph unicode="&#xe4c;" d="M-314 1295q8 34 28 61.5t50 47.5t68 31q36 11 80 13q23 1 39 -12q17 -12 19 -34q1 -12 -2.5 -22t-9.5 -17t-15 -12t-20 -5q-49 -2 -79 -23t-36 -60q-2 -13 -10 -22t-18 -15t-23 -8t-25 1q-13 2 -23.5 9t-16.5 17t-8 23t2 27z" />
<glyph unicode="&#xe4d;" d="M-309 1112q0 29 11 55t30.5 45t44.5 30.5t55 11.5q28 0 54 -11.5t45 -30.5t31 -45t12 -55q0 -30 -12 -55t-31 -44.5t-45 -30.5t-54 -11q-30 0 -55 11t-44.5 30.5t-30.5 44.5t-11 55zM-226 1112q0 -12 5 -22t13 -18t18 -13t22 -5t22 5t18 13t13 18t5 22t-5 22t-13 18 t-18 13t-22 5t-22 -5t-18 -13t-13 -18t-5 -22z" />
<glyph unicode="&#xe4e;" d="M-233 1020q-2 -13 -9 -23t-17.5 -16.5t-22.5 -8.5t-25 0q-28 6 -39.5 25.5t-9.5 48.5q2 25 13 47.5t29 40t43 30.5q25 14 57 20q4 26 17 48t34 40t49.5 28t64.5 12q24 1 39.5 -10.5t19.5 -33.5q2 -12 -1 -22t-9 -18t-15 -13t-19 -6q-24 -2 -39 -8t-22.5 -17.5t-10 -28.5 t-2.5 -39q0 -10 -6 -16t-22 -6q-24 0 -42 -5t-29 -14t-17.5 -23t-8.5 -32z" />
<glyph unicode="&#xe4f;" horiz-adv-x="1014" d="M62 418q0 61 15.5 117.5t44.5 105t69.5 89t90 68.5t106 44t118.5 16q60 0 116 -16t105 -44t89 -68.5t68 -89t44 -105t16 -117.5t-16 -117.5t-44 -105.5t-68 -89t-89 -68.5t-105 -44t-116 -15.5q-62 0 -118.5 15.5t-106 44t-90 68.5t-69.5 89t-44.5 105.5t-15.5 117.5z M176 422q0 -45 12 -87t33 -78.5t51 -67t66.5 -52t79 -33.5t88.5 -12q44 0 86 12t78 33.5t66 52t51 67t33 78.5t12 87t-12 86.5t-33 77.5t-51 66t-66 51t-78 33t-86 12q-46 0 -88.5 -12t-79 -33t-66.5 -51t-51 -66t-33 -77.5t-12 -86.5zM270 422q0 47 19 89t51 73.5t75 50.5 t91 19q47 0 88.5 -19t72.5 -50.5t49.5 -73.5t18.5 -89q0 -48 -18.5 -91t-49.5 -74.5t-72.5 -50t-88.5 -18.5q-48 0 -91 18.5t-75 50t-51 74.5t-19 91zM370 422q0 -28 10.5 -53t28.5 -43t42.5 -29t54.5 -11q27 0 50.5 11t41 29t27.5 43t10 53q0 27 -10 50.5t-27.5 41.5 t-41 28.5t-50.5 10.5q-30 0 -54.5 -10.5t-42.5 -28.5t-28.5 -41.5t-10.5 -50.5z" />
<glyph unicode="&#xe50;" horiz-adv-x="887" d="M824 387q0 -76 -14 -135.5t-38.5 -104.5t-59 -75.5t-76.5 -50t-91 -27.5t-101 -8t-100.5 8.5t-91 28t-77.5 50.5t-59.5 75.5t-38 103.5t-13.5 135q0 79 26 144t75 111t120 72t159 26t159 -26t120 -72t75 -111t26 -144zM692 358q0 73 -20 124.5t-54 83.5t-79 46t-95 14 t-95 -14t-79.5 -46t-55 -83t-20.5 -125q0 -57 18 -104.5t51 -82t79 -54t102 -19.5t102 19.5t78 54t50 82t18 104.5z" />
<glyph unicode="&#xe51;" horiz-adv-x="880" d="M147 162q28 -20 56.5 -33.5t58.5 -22t62 -11.5t67 -3q63 0 115 19t89.5 57t58 93t20.5 126q0 56 -14 101.5t-43 78t-74 50.5t-107 18q-50 0 -91 -13.5t-70 -35t-44.5 -49.5t-15.5 -58q0 -25 8 -48t27 -40t50.5 -27t77.5 -8q25 1 40 -13q16 -15 18 -37t-12 -38t-38 -19 q-40 -6 -78.5 -2.5t-74 15.5t-65.5 31t-52 45t-34 59t-12 70q0 49 14 88.5t40 70t60 52.5t74.5 36t85 21t88.5 7q80 0 151 -19.5t123 -62t82.5 -109.5t30.5 -162q0 -90 -29 -163.5t-83.5 -126.5t-133.5 -82t-177 -29q-38 0 -78 1t-80.5 7t-80.5 20q-41 14 -79 39 q-11 8 -18.5 18.5t-10.5 22.5t-1 24t8 24q8 11 18 18.5t22 11t25 1t26 -12.5z" />
<glyph unicode="&#xe52;" horiz-adv-x="999" d="M36 722q-11 4 -18.5 12t-11.5 18t-4 21.5t4 22.5q4 12 12 21t18 14t23 7t25 -2q58 -14 90.5 -65.5t32.5 -139.5v-315q0 -44 19.5 -82t58.5 -66.5t98 -45t137 -16.5q74 0 126.5 15.5t85 41t47.5 58.5t15 68v213q0 28 -7 48t-19.5 35t-29 23t-36.5 12l-106 -96l-106 90 q-13 0 -27.5 -6t-26.5 -19.5t-19 -33.5t-7 -47v-64q-1 -24 -0.5 -48t7 -42.5t21 -30t41.5 -11.5h9q24 0 38 -16q15 -16 15 -38t-14.5 -37.5t-38.5 -15.5h-23q-44 0 -75.5 12t-52.5 31.5t-33 44.5t-18.5 51t-8.5 51q-3 25 -3 45v56q0 41 13.5 77.5t38 67.5t59.5 54t78 35 q6 2 14.5 3t18.5 0t21 -5t22 -14l57 -50l54 50q12 12 24 16.5t23.5 5t21 -1.5t17.5 -4q42 -10 77 -29.5t60.5 -47t40 -61.5t14.5 -74v-204q0 -56 -14 -102t-38 -82t-58 -62.5t-74.5 -44t-87 -25.5t-95.5 -8h-71q-99 0 -176.5 24t-131 69t-80.5 107q-28 64 -28 140v274 q0 51 -7.5 79.5t-30.5 38.5z" />
<glyph unicode="&#xe53;" horiz-adv-x="903" d="M698 463q0 30 -10 57.5t-27 47.5t-39 32t-44 10q-14 -12 -31 -26t-33 -28t-32 -27q-18 -13 -32 -25l-118 106q-20 -2 -42 -12t-41 -35t-31.5 -67t-12.5 -105v-59q0 -26 1 -52t4.5 -51t10 -46.5t18 -37.5t28 -25.5t40.5 -9.5q7 0 18 1t25 2q12 1 23 -2.5t19.5 -11 t14 -17.5t6.5 -22t-2.5 -23t-11 -19.5t-17.5 -14t-22 -7.5q-64 -8 -110.5 2t-79 32t-52.5 55t-30.5 73t-14 84t-3.5 88v59q0 75 14 132t41 98t67 67.5t90 40.5q8 2 20 3.5t26.5 -0.5t30.5 -9q17 -7 33 -21l58 -55l66 55q12 10 24.5 18t27 12t31.5 3.5t39 -6.5 q50 -14 87 -39.5t61 -60.5t36 -77t12 -87v-405q0 -15 -5.5 -27.5t-15 -21.5t-21.5 -14t-26 -5t-26 5t-21.5 14t-15 21t-5.5 28v405z" />
<glyph unicode="&#xe54;" horiz-adv-x="903" d="M391 0q-65 0 -114.5 14t-86 38t-60.5 55.5t-39 67t-21 71.5q-6 38 -6 72v84q0 83 27 143.5t77 100.5t120 60q70 19 158 19h142q26 0 44 5t31 14.5t20 22.5t10 29q3 15 11 26.5t20 18t26 8.5q13 3 27 -1t24.5 -12t17.5 -19t9 -25t0 -30q-6 -31 -22 -58.5t-44 -48.5 t-69 -34t-99 -13h-162q-54 0 -97 -12t-73.5 -35.5t-47 -58t-16.5 -78.5v-100q0 -44 12.5 -83t38 -67t65.5 -44t96 -16h34q-12 10 -23 24.5t-19 32t-13.5 39.5t-5.5 46q0 10 1.5 25t7 32t16 35t28.5 32.5t45 25t65 13.5q24 2 42 -11.5t22 -39.5q3 -24 -11 -42 q-13 -18 -39 -22q-19 -3 -29 -10.5t-14 -17t-4.5 -19t-0.5 -15.5q0 -17 6.5 -33.5t17 -30.5t23.5 -25.5t26 -20t25 -13.5t21 -5h157q13 0 23.5 -4t18 -12t12 -18.5t4.5 -22.5t-4.5 -22.5t-12 -18t-18 -12t-23.5 -4.5h-397z" />
<glyph unicode="&#xe55;" horiz-adv-x="903" d="M406 758q0 -24 14 -39q12 -15 34 -15q25 0 39.5 15t14.5 39t-14 38.5t-40 14.5q-22 0 -35 -14.5t-13 -38.5zM391 0q-65 0 -114.5 14t-86 38t-60.5 55.5t-39 67t-21 71.5q-6 38 -6 72v84q0 73 19 126.5t54 90.5t83 60q50 23 108 36q-3 6 -6 17q-2 12 -2 22q0 29 10.5 54.5 t29 44.5t43.5 30.5t53 11.5q30 0 56.5 -11.5t45.5 -30.5t29.5 -45t10.5 -54q0 -4 -0.5 -10t-1.5 -10q-1 -5 -2 -9q48 1 70.5 20t28.5 51q3 15 11 26.5t20 18t26 8.5q13 3 27 -1t24.5 -12t17.5 -19t9 -25t0 -30q-6 -31 -22 -58.5t-44 -48.5t-69 -34t-99 -13h-154 q-54 0 -98 -10t-76 -32t-50 -57t-18 -85v-100q0 -44 12.5 -83t38 -67t65.5 -44t96 -16h34q-12 10 -23 24.5t-19 32t-13.5 39.5t-5.5 46q0 10 1.5 25t7 32t16 35t28.5 32.5t45 25t65 13.5q24 2 42 -11.5t22 -39.5q3 -24 -11 -42q-13 -18 -39 -22q-19 -3 -29 -10.5t-14 -17 t-4.5 -19t-0.5 -15.5q0 -17 6.5 -33.5t17 -30.5t23.5 -25.5t26 -20t25 -13.5t21 -5h157q13 0 23.5 -4t18 -12t12 -18.5t4.5 -22.5t-4.5 -22.5t-12 -18t-18 -12t-23.5 -4.5h-397z" />
<glyph unicode="&#xe56;" horiz-adv-x="907" d="M62 698q-6 11 -8 23t0.5 23.5t9.5 21.5q8 10 18 16q11 6 22.5 8t23.5 -0.5t22 -9.5t16 -18l57 -94q24 12 50.5 24t59.5 21.5t72 16t89 8.5q70 2 125 -10.5t95.5 -36t68 -56.5t45 -72.5t25 -84t7.5 -89.5v-53q0 -70 -24.5 -134.5t-73.5 -112.5t-122.5 -75t-170.5 -24 q-72 2 -131 20t-101.5 49.5t-65.5 75.5q-23 45 -23 99q0 50 17 87t48 60.5t74.5 35t97.5 11.5h10q11 0 21 -4t17 -11.5t11.5 -17.5t4.5 -21q0 -12 -4.5 -21.5t-11.5 -16.5t-17 -11.5t-21 -4.5h-4q-33 0 -54 -6t-33 -18t-17 -30q-5 -16 -5 -38q0 -26 14 -48t40 -39t62 -27 t79 -10q48 -1 92.5 13.5t78.5 43.5t54.5 72.5t20.5 100.5v51q0 62 -15.5 106.5t-44.5 73.5t-70 43q-41 12 -93 12q-70 -1 -137 -19.5t-136 -59.5q-6 -4 -15.5 -9t-19.5 -6t-22 5.5t-23 24.5z" />
<glyph unicode="&#xe57;" horiz-adv-x="1065" d="M996 370q0 -76 -18.5 -142t-57 -116t-98.5 -81t-142 -39q-18 -2 -33 4t-26 17.5t-17 26t-6 31.5q0 24 14 45q16 24 24.5 49t13 51t5.5 53t1 57v63q0 53 -9 92t-24.5 65t-35.5 40t-42 18l-105 -106l-100 108q-19 -1 -40.5 -13.5t-40 -38.5t-30.5 -68t-12 -101v-53 q0 -26 0.5 -52.5t4.5 -51t10 -46.5t17.5 -38t28.5 -25q18 -9 42 -9q4 0 6 0.5l4 1t6 0.5t11 1q12 1 23.5 -2.5t19.5 -11t14 -17.5t6 -22q1 -12 -2.5 -23t-10.5 -19.5t-17 -14t-22 -7.5q-59 -6 -102.5 4t-74 32t-50 55t-30.5 72t-15 83t-4 88v53q0 142 55 226q55 83 157 113 q8 2 19 4t25 0t29 -9.5t31 -24.5l42 -47l47 47q16 16 30.5 24t27.5 9.5t23 0t16 -3.5q58 -16 97 -47t62 -74.5t32 -97t9 -114.5v-59q-1 -24 -2.5 -54t-5 -58.5t-10.5 -53.5q-6 -26 -18 -41q30 9 52 32.5t36 56t20 70.5q6 36 6 74v280q0 88 32 140t91 66q12 3 24.5 1.5 t23.5 -6.5t19 -14t12 -21q4 -11 3 -22.5t-4.5 -21.5t-11 -18t-18.5 -12q-23 -10 -30 -39t-7 -79v-240z" />
<glyph unicode="&#xe58;" horiz-adv-x="901" d="M416 606q-53 0 -91.5 -15t-62.5 -40t-35.5 -58t-11.5 -67v-160q0 -30 10.5 -56t28 -46.5t38.5 -33t42 -14.5q29 26 62 54q32 28 60 55l132 -109q23 0 42.5 8t34.5 24.5t23 44t8 67.5q0 18 -1.5 36.5t-9 34t-21.5 25.5t-39 10q-24 0 -38.5 15t-14.5 38q0 11 4 21t11 17 t17 11t21 5q45 2 78 -6.5t55.5 -24.5t36.5 -37t21.5 -45.5t10.5 -50t3 -49.5q0 -110 -43 -177t-135 -85q-10 -2 -24 -3.5t-31 0t-34 7.5t-31 18l-76 62l-68 -62q-12 -12 -25.5 -17t-25.5 -7t-22.5 -1t-16.5 3q-54 12 -95 37t-68 60.5t-41 79t-14 91.5v138q0 75 22 134.5 t66 101.5t109.5 64.5t152.5 22.5h183q26 0 44.5 4.5t30.5 13.5t19.5 22t10.5 29q3 15 11 26.5t19.5 18t25.5 8.5q14 3 28 -1t25 -12t17.5 -19t9 -25t-1.5 -30q-6 -31 -21.5 -59t-43 -49.5t-69.5 -34.5t-99 -13h-203z" />
<glyph unicode="&#xe59;" horiz-adv-x="884" d="M469 504q-28 57 -61.5 86.5t-79.5 29.5q-27 0 -50 -10.5t-39.5 -37t-26 -70.5t-9.5 -111v-59q0 -26 1.5 -52.5t5.5 -51t11.5 -46.5t19.5 -38t29.5 -25t41.5 -9q4 0 6 0.5t5 1t6.5 0.5t10.5 1q24 2 41.5 -13.5t19.5 -39.5q1 -12 -2.5 -23t-11 -19.5t-17.5 -14t-22 -7.5 q-59 -6 -102.5 4t-74.5 32t-51 55t-32 72t-16 83t-4 88v55q0 87 13 153t44 110t81 67t124 23q14 0 30 -0.5t32.5 -2t31.5 -4.5q14 -3 26 -8q22 -11 38 -27t32 -40l70 69q3 3 10 8q6 5 16 5h32q28 0 47.5 3t33 9.5t20.5 18t10 27.5q3 15 11 26.5t19 17.5t24 8t28 0 q15 -3 26 -11t17 -19.5t8 -25.5t-2 -30q-7 -31 -21.5 -56.5t-40.5 -44.5t-66 -30t-98 -11q-14 0 -20.5 -4t-12.5 -10l-47 -49l224 -477q12 -27 4 -50.5t-34 -33.5t-50 -2.5t-35 31.5z" />
<glyph unicode="&#xe5a;" horiz-adv-x="1128" d="M762 58q0 -16 -5.5 -28.5t-15 -21t-21.5 -13.5t-26 -5t-27 5t-22 13t-14.5 21t-5.5 29v372q-18 -22 -43 -40t-55.5 -30t-64.5 -18q-36 -6 -72 -6q-82 0 -143 19t-102 54.5t-61 85t-20 111.5q0 44 11 78.5t30.5 60.5t46 44t55.5 29.5t61 16.5t62 5h71q12 0 22.5 -5 t18.5 -13t12 -18t4 -22t-4 -22t-12 -18t-18.5 -12.5t-22.5 -4.5h-71q-65 0 -95 -29.5t-30 -91.5q0 -28 8.5 -56t29.5 -50t56 -36t90 -14q115 0 175.5 45t60.5 142v147q0 16 5.5 28.5t14.5 21t22 13.5t27 5t26 -5t21.5 -14t15 -21t5.5 -28v-724zM910 782q0 16 5 28.5t14.5 21 t22 13.5t26.5 5t26.5 -5t22 -14t14.5 -21t5 -28v-724q0 -16 -5 -28.5t-14.5 -21t-22 -13.5t-26.5 -5t-26.5 5t-22 13t-14.5 21t-5 29v724z" />
<glyph unicode="&#xe5b;" horiz-adv-x="1775" d="M1664 576q14 0 26 -5.5t21 -14.5t14.5 -21.5t5.5 -25.5q0 -14 -5.5 -26t-14.5 -21t-21 -14.5t-26 -5.5h-240q-19 -28 -39 -57t-39 -61q-6 -13 -16 -19.5t-21 -6.5t-21 6q-10 8 -18 22q-20 37 -39.5 70.5t-38.5 59.5q-22 -28 -44.5 -67t-46.5 -93q-7 -13 -17 -18.5 t-21 -5.5t-21 7q-8 7 -14 19q-24 54 -49 96t-49 75q-4 -66 -22 -126t-47 -111.5t-68 -93t-87 -71t-103 -45.5t-115 -16q-66 0 -123 17t-103 47.5t-81 71.5t-59 88.5t-36 99.5t-12 104q0 46 10.5 93.5t31 92t51.5 83.5t70.5 68t88 46t106.5 17q70 0 124 -21.5t91.5 -57 t59 -81.5t26.5 -96q2 -13 -1.5 -25t-11.5 -21.5t-18.5 -16.5t-23.5 -8q-13 -2 -25.5 1.5t-22 11t-16 18t-8.5 24.5q-10 68 -50 102t-108 38q-56 0 -99.5 -22t-74 -59.5t-46 -88t-15.5 -108.5q0 -56 20.5 -107t57 -90t88 -62t115.5 -23q58 0 104.5 17t82 48t61.5 73t43 93 t25 108t10 117q0 15 6 28t16 22.5t23 15.5t27 6q16 0 30.5 -7t24.5 -19q18 -22 35.5 -45t32.5 -45t28 -43t22 -38q16 26 36.5 57.5t42.5 64.5q8 12 20 18.5t24.5 7.5t25 -5t21.5 -19q22 -34 41 -67q18 -32 32 -57l76 103h280z" />
<glyph unicode="&#x2000;" horiz-adv-x="817" />
<glyph unicode="&#x2001;" horiz-adv-x="1635" />
<glyph unicode="&#x2002;" horiz-adv-x="817" />
<glyph unicode="&#x2003;" horiz-adv-x="1635" />
<glyph unicode="&#x2004;" horiz-adv-x="545" />
<glyph unicode="&#x2005;" horiz-adv-x="408" />
<glyph unicode="&#x2006;" horiz-adv-x="272" />
<glyph unicode="&#x2007;" horiz-adv-x="272" />
<glyph unicode="&#x2008;" horiz-adv-x="204" />
<glyph unicode="&#x2009;" horiz-adv-x="327" />
<glyph unicode="&#x200a;" horiz-adv-x="90" />
<glyph unicode="&#x200b;" />
<glyph unicode="&#x2010;" horiz-adv-x="643" d="M534 430q11 0 20.5 -4t17 -12t12 -18t4.5 -20q0 -12 -4.5 -22t-12 -17t-17.5 -11t-20 -4h-424q-12 0 -21 4t-16.5 11t-12 17t-4.5 22q0 11 4.5 20.5t12 17.5t17.5 12q8 4 20 4h424z" />
<glyph unicode="&#x2011;" horiz-adv-x="643" d="M534 430q11 0 20.5 -4t17 -12t12 -18t4.5 -20q0 -12 -4.5 -22t-12 -17t-17.5 -11t-20 -4h-424q-12 0 -21 4t-16.5 11t-12 17t-4.5 22q0 11 4.5 20.5t12 17.5t17.5 12q8 4 20 4h424z" />
<glyph unicode="&#x2012;" horiz-adv-x="643" d="M534 430q11 0 20.5 -4t17 -12t12 -18t4.5 -20q0 -12 -4.5 -22t-12 -17t-17.5 -11t-20 -4h-424q-12 0 -21 4t-16.5 11t-12 17t-4.5 22q0 11 4.5 20.5t12 17.5t17.5 12q8 4 20 4h424z" />
<glyph unicode="&#x2013;" horiz-adv-x="702" d="M642 446q12 0 21.5 -5t17 -12t11.5 -17q5 -10 5 -22t-4.5 -22t-12 -17.5t-17.5 -12.5q-9 -4 -21 -4h-582q-12 0 -21.5 4.5t-17 12t-12 17.5t-4.5 22t4.5 22t12 17t17.5 12q9 5 21 5h582z" />
<glyph unicode="&#x2014;" horiz-adv-x="1388" d="M1323 446q12 0 21.5 -5t17.5 -12t12 -17t4 -22t-4 -22t-12 -17.5t-18 -12t-21 -4.5h-1257q-12 0 -22 4.5t-17.5 12t-12 17.5t-4.5 22t4.5 22t12 17t17.5 12t22 5h1257z" />
<glyph unicode="&#x2018;" horiz-adv-x="385" d="M290 722q0 -18 -7 -34.5t-19 -29t-28 -19.5q-18 -7 -36 -7q-28 0 -48 10.5t-33 29t-20 43.5t-7 55q0 52 13 95t45 81q10 12 23.5 23.5t27.5 20t28.5 13.5t26.5 5q14 0 21 -7t9 -17q2 -12 -8 -22q-10 -11 -26 -21q-14 -8 -28 -19.5t-26 -28.5t-19 -40.5t-8 -55.5 q12 7 23 8q10 1 18 1q18 0 33 -7t25 -18t15 -27t5 -32z" />
<glyph unicode="&#x2019;" horiz-adv-x="385" d="M94 918q0 18 7 35t19.5 29t29 19t34.5 7q28 0 48 -10t34 -29t20 -44t6 -54q0 -52 -13 -95q-13 -44 -45 -82q-10 -12 -23 -23t-27 -20t-28 -14t-27 -5q-14 0 -21 8q-6 6 -8 16q-2 12 7 23t25 21q14 8 29 19.5t26 28t19 40.5q7 24 8 56q-12 -7 -23 -8.5t-19 -1.5 q-18 0 -32.5 7t-24.5 18.5t-15.5 27t-5.5 31.5z" />
<glyph unicode="&#x201c;" horiz-adv-x="592" d="M517 722q0 -18 -7 -34.5t-19.5 -29t-28.5 -19.5t-35 -7q-28 0 -48 10.5t-33.5 29t-20 43.5t-6.5 55q0 52 13 95t45 81q10 12 23.5 23.5t27.5 20t28 13.5t26 5q14 0 21 -7t9 -17q2 -12 -7 -22.5t-26 -20.5q-14 -8 -28.5 -19.5t-26 -28.5t-19 -40.5t-7.5 -55.5q12 7 23 8 t18 1q18 0 32.5 -7t24.5 -18t15.5 -27t5.5 -32zM268 722q0 -18 -7 -34.5t-19.5 -29t-29 -19.5t-34.5 -7q-28 0 -48 10.5t-34 29t-20 43.5t-6 55q0 52 13 95t45 81q10 12 23 23.5t27 20t28 13.5t27 5q14 0 21 -7q6 -7 8 -17q2 -12 -7 -22.5t-25 -20.5q-14 -8 -29 -19.5 t-26 -28.5t-18.5 -40.5t-8.5 -55.5q12 7 23 8t19 1q18 0 32.5 -7t24.5 -18t15.5 -27t5.5 -32z" />
<glyph unicode="&#x201d;" horiz-adv-x="592" d="M75 918q0 18 7 35t19.5 29t28.5 19t35 7q28 0 48 -10t33.5 -29t20 -44t6.5 -54q0 -52 -13 -95q-13 -44 -45 -82q-10 -12 -23.5 -23t-27.5 -20t-28 -14t-26 -5q-14 0 -21 8q-7 6 -9 16q-2 12 7 23t26 21q14 8 28.5 19.5t26 28t18.5 40.5q8 24 8 56q-12 -7 -23 -8.5 t-18 -1.5q-18 0 -32.5 7t-24.5 18.5t-15.5 27t-5.5 31.5zM324 918q0 18 7 35t19.5 29t29 19t34.5 7q28 0 48 -10t34 -29t20 -44t6 -54q0 -52 -13 -95q-13 -44 -45 -82q-10 -12 -23 -23t-27 -20t-28 -14t-27 -5q-14 0 -21 8q-6 6 -8 16q-2 12 7 23t25 21q14 8 29 19.5t26 28 t19 40.5q7 24 8 56q-12 -7 -23 -8.5t-19 -1.5q-18 0 -32.5 7t-24.5 18.5t-15.5 27t-5.5 31.5z" />
<glyph unicode="&#x2022;" horiz-adv-x="504" d="M37 430q0 40 16.5 77t45.5 65t68 44.5t83 16.5t84 -16.5t69 -44.5t46.5 -65t17.5 -77q0 -43 -17.5 -80.5t-46.5 -65.5t-69 -44.5t-84 -16.5t-83 16.5t-68 44.5t-45.5 65.5t-16.5 80.5z" />
<glyph unicode="&#x202f;" horiz-adv-x="327" />
<glyph unicode="&#x205f;" horiz-adv-x="408" />
<glyph unicode="&#x20ac;" horiz-adv-x="1075" d="M289 388q12 -62 36.5 -116t64.5 -93t94 -61t124 -22q58 0 104.5 18t81 50t56.5 76t32 96q2 14 10 25t19 18.5t24 10t27 0.5q14 -3 25 -11t18 -18.5t10 -24.5q3 -12 1 -26q-16 -80 -51 -141.5t-87.5 -103.5t-123 -63.5t-156.5 -21.5q-100 0 -178.5 30t-135 84.5 t-90.5 129.5q-34 76 -47 164h-87q-16 0 -24.5 10t-8.5 23t9.5 23t23.5 10h80v20v22q0 34 2 66h-82q-15 0 -24 10t-9 24t9.5 23t23.5 9h92q16 86 53 159t94 125.5t135 82t174 29.5q68 0 130 -16t113 -48t88 -78.5t59 -107.5q4 -14 3 -27t-7 -25t-16 -21t-24 -13t-28 -3 t-25.5 7t-20.5 16t-13 24q-14 44 -38.5 76t-58 54t-75 32.5t-89.5 10.5q-68 0 -121 -21.5t-92 -59.5t-64 -88t-38 -108h311q14 0 24 -9t10 -23t-10 -24t-24 -10h-321q-2 -14 -2.5 -28t-0.5 -28t1 -27t1 -25h322q15 0 24.5 -10.5t9.5 -22.5t-9.5 -22.5t-24.5 -10.5h-313z" />
<glyph unicode="&#x2122;" horiz-adv-x="1276" d="M260 924h-92q-10 0 -17.5 3.5t-12 9t-7 12.5t-2.5 13t2.5 12.5t7 12t12 9.5t17.5 4h286q10 0 17 -4t12 -9t7 -12t2 -13t-2 -13t-7 -12.5t-12 -9t-17 -3.5h-94v-376q0 -18 -5.5 -29t-13 -17t-16.5 -8.5t-14 -2.5q-6 0 -14.5 2.5t-16.5 8.5t-14 17t-6 29v376zM1026 903 l-22 -63l-105 -300q-8 -24 -21.5 -36.5t-30.5 -12.5q-16 0 -29 13q-14 12 -22 36l-106 300l-21 63v-355q0 -18 -5.5 -29t-13.5 -17t-16 -8q-10 -3 -16 -3q-7 0 -15.5 2.5t-16.5 8.5t-13 17t-5 29v373q0 26 7.5 42.5t19 26t25.5 13t26 3.5q38 0 66 -19t40 -59l95 -282l95 283 q13 39 41 58q27 19 65 19q12 0 26 -3.5t25.5 -13t19 -26.5t7.5 -42v-373q0 -18 -5 -29t-13 -17t-17 -8.5t-15 -2.5q-7 0 -16 2.5t-16.5 8.5t-12.5 17t-5 29v355z" />
<glyph unicode="&#x25cc;" horiz-adv-x="934" d="M284 228l34 79q11 -17 23.5 -31t28.5 -24zM467 652l37 -78q-20 4 -41 3t-37 -5zM467 152l-37 76q18 -5 34 -5q16 1 38 7zM717 402l-78 -36q6 17 6.5 35.5t-4.5 38.5zM217 404l80 38q-3 -18 -4 -38t4 -40zM299 580l82 -29q-22 -11 -37 -23q-14 -12 -24 -28zM637 226 l-76 24q17 10 30 23t23 28zM649 580l-35 -82q-11 17 -25.5 30.5t-29.5 24.5z" />
<glyph unicode="&#x25fc;" horiz-adv-x="737" d="M0 738h738v-738h-738v738z" />
<glyph unicode="&#xf700;" horiz-adv-x="782" d="M272 492q18 0 30 -10t18 -26l112 -335q13 30 28 66t30 74.5t29.5 78t25.5 77.5t17 73q8 35 8 65q2 93 -45 140t-142 47q-66 0 -109 -28q-44 -30 -64 -84q-6 -14 -16 -24t-24 -15t-29.5 -4.5t-30.5 7.5q-14 6 -23 17t-12.5 24.5t-2.5 28t8 27.5q20 38 50 68.5t70.5 51.5 t90.5 33q51 12 109 12q34 0 69 -5t69 -15q34 2 53 18t27 38q6 14 17.5 25.5t26 17t30.5 3.5t32 -13q12 -8 19 -20t9 -25.5t-2 -27.5q-4 -12 -12 -24q-14 -20 -36 -36t-54 -24q32 -34 50 -83t17 -117q-1 -50 -14 -107t-34 -119t-48 -126t-55 -128q-10 -22 -22 -40t-28 -31 t-36 -20t-44 -7t-44 7t-36.5 21t-28.5 32q-11 18 -19 40l-103 297h-67q-22 0 -37 15t-15 37q0 11 4 20.5t11 16.5t16.5 11.5t20.5 4.5h136z" />
<glyph unicode="&#xf701;" d="M-821 981q-22 0 -37.5 14.5t-15.5 37.5q0 11 4 20.5t11 17t17 11.5t21 4h441q11 0 21 -4t17.5 -11.5t11.5 -17t4 -20.5q0 -22 -16 -37t-38 -15h-441z" />
<glyph unicode="&#xf702;" d="M-821 981q-22 0 -37.5 14.5t-15.5 37.5q0 11 4 20.5t11 17t17 11.5t21 4h354v73q0 14 5.5 25.5t14 20.5t20.5 14q11 5 25 5t26 -5t21 -14t14 -21t5 -25v-126q0 -22 -16 -37t-38 -15h-431z" />
<glyph unicode="&#xf703;" d="M-508 1114q0 -22 15 -36.5t39 -14.5q22 0 36 14.5t14 36.5q0 24 -14 39t-36 15q-24 0 -39 -15t-15 -39zM-821 981q-22 0 -37.5 14.5t-15.5 37.5q0 11 4 20.5t11 17t17 11.5t21 4h235q-2 8 -2 15v13q0 28 10.5 52t28.5 42t42.5 28.5t52.5 10.5t51.5 -10.5t41 -28.5 t27.5 -42t10 -52t-10 -52t-27.5 -42t-41.5 -28q-23 -11 -51 -11h-367z" />
<glyph unicode="&#xf704;" d="M-336 1033q0 -22 -16 -37t-38 -15h-431q-22 0 -37.5 14.5t-15.5 37.5q0 11 4 20.5t11 17t17 11.5t21 4h137v73q0 14 5 25.5t14 20.5t21 14q10 5 24 5t26 -5t20.5 -14t13.5 -21t5 -25v-73h90v73q0 14 5 25.5t13.5 20.5t20.5 14t26 5t25 -5t20 -14t14 -21t5 -25v-126z" />
<glyph unicode="&#xf705;" d="M-336 1034q0 -15 -5 -26.5t-14 -20.5t-21 -13.5t-26 -4.5t-25.5 4.5t-20 13.5t-14 21t-5.5 26v158q0 15 5.5 26.5t14 20.5t20.5 13q11 5 25 5t26 -4.5t21 -13.5t14 -21t5 -26v-158z" />
<glyph unicode="&#xf706;" d="M-382 1178q4 12 12 20t19 13t23 5q11 0 23 -4t20 -12t12.5 -18t4.5 -22t-4 -24q-13 -32 -38.5 -60.5t-63.5 -49.5t-90 -33t-116 -12h-60q-10 0 -19 3.5t-16 10.5t-11 16t-4 20v75h-32q-10 0 -19 4t-16 10.5t-11 16t-4 19.5t4 19.5t11 16t16 10.5t19 4h96q10 0 19 -4 t16 -10.5t11 -16t4 -19.5v-74q78 0 126.5 25t67.5 71z" />
<glyph unicode="&#xf707;" d="M-343 1175q2 12 8.5 20.5t15.5 13.5t19 7q12 2 22 -2q11 -3 19 -9.5t13 -16t6.5 -21t-0.5 -21.5q-7 -30 -21.5 -57.5t-33.5 -50t-43 -37.5t-48 -19h-51q-16 0 -28.5 10t-14.5 26q-2 10 -5 19t-6.5 16t-9.5 11.5t-15 4.5q-13 0 -21.5 -9.5t-8.5 -23.5q-2 -19 -14 -32.5 t-31 -13.5q-18 0 -30 14q-11 13 -13 32q-1 14 -8.5 23.5t-22.5 9.5q-12 0 -22.5 -13.5t-10.5 -38.5q0 -12 -5 -21.5t-14 -15t-19 -8.5q-12 -2 -22 0q-22 4 -33 20t-11 42q0 34 10.5 61t27.5 45.5t38.5 28t43.5 9.5q15 0 28.5 -4t25.5 -12t21 -18t15 -22q6 11 16 21.5t22 18 t27 12t31 4.5q18 0 35 -7t31 -20t23.5 -31t13.5 -42q15 13 29.5 39t20.5 58z" />
<glyph unicode="&#xf708;" d="M-436 1033q0 -14 -5.5 -26.5t-14 -21t-20.5 -13t-26 -4.5t-26 4.5t-20.5 13t-14 20.5t-5.5 27v54h-85q-11 0 -20 4t-16 10.5t-11 16.5t-4 20q0 21 14 35.5t37 14.5h85v54q0 14 5.5 26t14 21t20.5 13.5t26 4.5t26 -4.5t20.5 -13.5t14 -21t5.5 -26v-54h85q11 0 20 -4 t16 -11t11 -16t4 -20q0 -21 -14 -35.5t-37 -14.5h-85v-54z" />
<glyph unicode="&#xf709;" d="M-608 1049q8 34 27.5 61.5t49 47.5t67.5 31t82 13q23 1 38.5 -11.5t17.5 -34.5q1 -12 -2 -22t-9.5 -17t-15.5 -12t-19 -5q-49 -2 -79 -23q-31 -21 -37 -60q-2 -13 -9 -22t-18 -15t-23 -8q-14 -2 -26 1q-13 2 -22.5 9t-15.5 17t-8 23t2 27z" />
<glyph unicode="&#xf70a;" d="M-82 1034q0 -15 -5 -26.5t-14 -20.5t-21 -13.5t-26 -4.5t-25.5 4.5t-20 13.5t-14 21t-5.5 26v158q0 15 5.5 26.5t14 20.5t20.5 13q11 5 25 5t26 -4.5t21 -13.5t14 -21t5 -26v-158z" />
<glyph unicode="&#xf70b;" d="M-154 1180q4 12 13 20t19 13t22 5t24 -4t20 -12t12.5 -18t5 -22t-3.5 -24q-13 -32 -38.5 -60.5t-64.5 -49.5t-90 -33t-115 -12h-60q-10 0 -19.5 3.5t-16.5 10.5t-11 16t-4 20v75h-31q-10 0 -19.5 4t-16.5 10.5t-11 16t-4 19.5t4 19.5t11 16t16 10.5q10 4 20 4h95 q10 0 19.5 -4t16.5 -10.5t11 -16t4 -19.5v-74q78 0 125.5 25t66.5 71z" />
<glyph unicode="&#xf70c;" d="M-152 1195q2 13 10 22.5t18 15t22 7t24 -1.5q12 -4 22 -11t15.5 -17.5t7.5 -22.5q2 -13 -1 -25q-8 -32 -24 -62.5t-38.5 -55t-49 -41.5t-54.5 -21h-59q-18 0 -32 11t-18 29q-2 10 -4.5 20t-7.5 18t-11 13t-17 5q-16 0 -25 -10t-10 -26q-2 -21 -16 -36q-12 -16 -34 -16 q-10 0 -19 4t-16 11t-11 17t-4 20q-1 16 -9.5 26t-25.5 10q-14 0 -26 -15t-12 -43q0 -13 -6.5 -23t-16 -16.5t-22 -9t-24.5 -0.5q-25 4 -37.5 22.5t-12.5 46.5q0 38 12 67.5t31.5 49.5t44 30.5t48.5 10.5q17 0 33.5 -4.5t29.5 -13t24 -19.5t17 -25q6 12 17.5 24t25.5 20 t30.5 13t36.5 5q21 0 40 -7.5t34.5 -22t26.5 -34.5t16 -46q8 7 17 18t16.5 25t13.5 30t10 34z" />
<glyph unicode="&#xf70d;" d="M-82 1032q0 -14 -5 -26.5t-14 -21t-21 -13.5t-26 -5t-25.5 5t-20 13.5t-14.5 20.5q-5 13 -5 27v54h-85q-11 0 -20.5 4t-16.5 10.5t-10.5 16t-3.5 19.5q0 21 14 36q15 14 37 14h85v54q0 14 5.5 26t14 21t20.5 14q11 5 25 5t26 -5t21 -14t14 -21t5 -26v-54h86q11 0 20 -4 t15.5 -11t10.5 -16t4 -19q0 -21 -14 -35.5t-36 -14.5h-86v-54z" />
<glyph unicode="&#xf70e;" d="M-314 1049q8 34 28 61.5t49.5 47.5t67 31t81.5 13q23 1 38.5 -11.5t18.5 -34.5q1 -12 -2 -22t-9.5 -17t-15.5 -12q-10 -5 -20 -5q-49 -2 -78.5 -23t-36.5 -60q-2 -13 -9.5 -22t-18 -15t-23 -8t-25.5 1q-13 2 -23 9t-16 17t-8 23t2 27z" />
<glyph unicode="&#xf70f;" horiz-adv-x="1300" d="M744 274q0 -44 14 -78t38 -57t55 -35t65 -12q33 0 62.5 11t52.5 33t37 56t14 82v508q0 16 5 28.5t14.5 21t22 13.5t26.5 5t26.5 -5t22 -14t14.5 -21t5 -28v-522q0 -72 -25 -125t-67.5 -87.5t-97 -51t-112.5 -16.5q-61 0 -117 18t-99 53t-68.5 87.5t-25.5 121.5v264 q0 39 -11 77.5t-36 69.5t-67 50t-103 21q-52 0 -91.5 -13t-67 -34t-42.5 -47t-18 -52q14 -8 26 -22.5t19.5 -33t12.5 -40.5q4 -24 4 -48v-348h52q11 0 20.5 -4t16.5 -11t11 -16.5t4 -20.5t-4 -20.5t-11 -16.5t-16.5 -11t-20.5 -4h-135q-11 0 -20.5 4t-17 11t-11.5 16.5 t-4 20.5v402q0 27 -5.5 54.5t-22.5 51.5q-10 13 -17 21.5t-11 16.5t-4 18t6 25q16 42 45 81.5t71 69.5t99 48t131 18q68 0 121 -13.5t92.5 -37t67 -56.5t44 -72t24 -82.5t7.5 -88.5v-234z" />
<glyph unicode="&#xf710;" d="M-526 981q-14 0 -26 5.5t-21 14t-14 20.5q-5 11 -5 25v62q0 14 5 26t14 21t21 14t26 5t25.5 -5t20 -14t14 -21t5.5 -26v-20h499q11 0 21 -4.5t17.5 -12t11.5 -17t4 -20.5t-4 -20.5t-11.5 -16.5t-17 -11.5t-21.5 -4.5h-564z" />
<glyph unicode="&#xf711;" d="M-608 1112q0 29 11 55t30 45t45 30.5t55 11.5q28 0 54 -11.5t45.5 -30.5t30.5 -45t11 -55q0 -30 -11 -55t-30.5 -44.5t-45 -30.5t-54.5 -11q-30 0 -55.5 11t-44.5 30.5t-30 44.5t-11 55zM-524 1112q0 -12 4.5 -22t12 -18t18.5 -13t22 -5q12 0 22.5 5t18 13t12 18t4.5 22 t-4.5 22t-12 18t-18.5 13t-22 5q-12 0 -22.5 -5t-18 -13t-12 -18t-4.5 -22z" />
<glyph unicode="&#xf712;" d="M-603 1231q-34 0 -54.5 -8t-30.5 -19.5t-12.5 -25.5t-2.5 -25q0 -8 2 -18t8.5 -19.5t18.5 -15.5t32 -6q26 0 41 14t21 36q4 16 16 27t30 11t31 -11t17 -28q5 -22 19.5 -35.5t40.5 -13.5q50 0 52 42q2 22 18 34.5t40 10.5t36 -18.5t11 -42.5q-1 -34 -13 -58t-31.5 -40 t-44 -23.5t-50.5 -7.5t-47.5 8.5t-37 22.5t-25.5 30t-13 32q-2 -16 -13.5 -32t-29.5 -30t-41 -22.5t-47 -8.5q-46 0 -78 16t-52 40.5t-28 52.5t-8 53q0 48 18 81t47 53.5t67 30t79 9.5h354q22 0 35 -14t13 -34t-13.5 -34t-34.5 -14h-340z" />
<glyph unicode="&#xf713;" d="M-336 1364q0 -14 -5 -26t-14 -21t-21 -14t-26 -5t-25.5 5t-20 14t-14 21t-5.5 26v110q0 14 5.5 26.5t14 21t20.5 13.5q11 5 25 5t26 -5t21 -13.5t14 -20.5q5 -13 5 -27v-110z" />
<glyph unicode="&#xf714;" d="M-305 1507q4 12 12.5 20.5t19 13.5t22 5t23.5 -4t20 -12t13 -18.5t5 -22t-4 -23.5q-13 -32 -38.5 -61t-64 -50t-90 -33t-115.5 -12h-60q-10 0 -19 4t-16 11t-11 16t-4 19v76h-32q-10 0 -19 3.5t-16 10t-11 16.5t-4 20t4 19t11 16t16 11t19 4h96q10 0 19 -4t16 -11t11 -16 t4 -19v-75q78 0 126 25t67 71z" />
<glyph unicode="&#xf715;" d="M-234 1503q2 12 9 20.5t16 13.5t20 6.5t23 -1.5q11 -3 19.5 -9.5t13.5 -16.5t7 -21q0 -11 -2 -21q-7 -30 -21.5 -58t-34.5 -50t-44 -37t-50 -21h-53q-16 0 -29 10q-12 11 -16 27q-2 10 -5 19t-7 16.5t-11 11.5t-15 4q-13 0 -20.5 -8t-9.5 -28q0 -10 -4 -18t-10 -14.5 t-14 -10t-18 -3.5t-18 3.5t-14 10t-10 14.5t-4 18q0 6 -2 13t-6 12t-10 8t-14 3q-16 0 -24.5 -13t-8.5 -39q0 -12 -5.5 -21t-14.5 -15t-20 -8t-23 -1q-22 4 -34 20.5t-12 41.5q0 35 11.5 62t29 45t39.5 28t45 10q31 0 56 -15.5t38 -40.5q12 23 38.5 39.5t60.5 16.5 q19 0 36.5 -7t31.5 -20t24 -31.5t14 -42.5q8 6 16 16.5t15 23.5t12.5 27.5t8.5 30.5z" />
<glyph unicode="&#xf716;" d="M-336 1361q0 -14 -5 -26.5t-14 -21t-21 -13t-26 -4.5t-25.5 4.5t-20 13t-14 20.5t-5.5 27v54h-85q-11 0 -20.5 4t-16.5 10.5t-11 16.5q-3 10 -3 20q0 21 14 36q15 14 37 14h85v54q0 14 5.5 26t14 21t20.5 13q11 5 25 5t26 -4.5t21 -13.5t14 -21t5 -26v-54h86q11 0 20 -4 t15.5 -11t10.5 -16t4 -20q0 -21 -14 -35.5t-36 -14.5h-86v-54z" />
<glyph unicode="&#xf717;" d="M-436 1295q8 34 28 61.5t49.5 47.5t67 31t81.5 13q23 1 38.5 -11.5t18.5 -34.5q1 -12 -2 -22t-9.5 -17t-15.5 -12q-10 -5 -20 -5q-49 -2 -78.5 -23t-36.5 -60q-2 -13 -9.5 -22t-18 -15t-23 -8t-25.5 1q-13 2 -23 9t-16 17t-8 23t2 27z" />
<glyph unicode="&#xf718;" d="M-82 -587q0 -14 -5 -26t-14 -20.5t-21 -13.5q-10 -5 -24 -5t-26 5t-20.5 13.5t-13.5 20t-5 26.5v145h-38q-10 0 -19.5 4t-16.5 11t-11 16t-4 19t4 19t11 16t16 11t20 4h117q10 0 19 -4t16 -11t11 -16t4 -19v-195z" />
<glyph unicode="&#xf719;" d="M-211 -396q0 14 5 25t13.5 20t20.5 14t26 5t25 -5t20 -14t14 -21q5 -10 5 -24v-46q0 -40 -11 -77t-36 -64t-66 -42.5t-100 -15.5q-58 0 -99 14.5t-66.5 40.5t-37.5 62q-12 38 -12 82h-38q-10 0 -19 4t-16 11t-11 16t-4 19t4 19t11 16t16 11t19 4h118q10 0 19.5 -4 t16.5 -11t11 -16t4 -19v-50q0 -48 20.5 -72t63.5 -24q84 0 84 96v46z" />
<glyph unicode="&#xf71a;" d="M-252 -428q0 21 8 39t21.5 31.5t32 20.5t38.5 7t38 -7t31.5 -20.5t21.5 -31.5t8 -39t-8 -39t-21.5 -31.5t-31.5 -20.5t-38 -7q-21 0 -39 7t-31.5 20.5t-21.5 31.5t-8 39z" />
<glyph unicode="&#xf71d;" horiz-adv-x="1073" d="M766 158l84 397q9 41 12 75t-2.5 59.5t-20.5 42t-43 21.5q-19 4 -32.5 15.5t-13.5 29.5q0 19 13 31.5t33 14.5q52 7 86 28.5t52 61.5q8 18 21 30.5t29 17t33 1.5t31 -17q12 -10 18 -22.5t7 -26.5t-3 -27.5t-14 -25.5q-28 -31 -65 -47.5t-77 -22.5q26 -8 46 -25t31 -44 t12 -63t-11 -80l-132 -520q-8 -34 -32.5 -53t-56.5 -19t-55.5 19t-33.5 53l-148 490l-154 -490q-10 -33 -33 -52.5t-55 -19.5t-57 19t-32 53l-153 700q-3 14 -0.5 28.5t9 26t17.5 19.5q12 9 26 12t28 1.5t26 -8.5t21 -19t13 -30l106 -634l144 468q5 16 13.5 30t21 24t27 16 t32.5 6q17 0 32 -6t27.5 -16t21.5 -24t13 -30z" />
<glyph unicode="&#xf881;" horiz-adv-x="1276" d="M96 454q0 27 -5.5 54.5t-22.5 51.5q-10 14 -18 23t-11.5 16.5t-3 17t6.5 24.5q16 42 44 81.5t71 69.5t102 48t139 18q98 0 166.5 -26t111.5 -70q20 24 46 41.5t56 29t63 17.5t67 6q62 0 114 -17t90 -51t60 -86t22 -122v-795q0 -16 -5 -28.5t-14.5 -21t-22 -13t-26.5 -4.5 t-26.5 4.5t-22 13t-14.5 21t-5 28.5v766q0 100 -38 145q-38 46 -112 46q-67 0 -107.5 -36.5t-44.5 -107.5q2 -23 4 -45t2 -45v-723q0 -16 -5 -28.5t-14.5 -21t-22 -13t-26.5 -4.5t-26.5 4.5t-22 13t-14.5 21t-5 28.5v739q0 39 -11 77.5t-37 69.5t-70 50t-110 21 q-62 0 -104.5 -14t-69 -35.5t-39.5 -47.5t-15 -49q14 -8 26 -22.5t20 -33t12 -40.5q4 -24 4 -48v-348h52q11 0 20.5 -4t16.5 -11t11 -16.5t4 -20.5t-4 -20.5t-11 -16.5t-16.5 -11t-20.5 -4h-135q-11 0 -20.5 4t-17 11t-11.5 16.5t-4 20.5v402z" />
<glyph unicode="&#xf882;" horiz-adv-x="1325" d="M131 454q0 27 -5.5 54.5t-23.5 51.5q-10 14 -17.5 23t-11 16.5t-3.5 17t6 24.5q16 42 46 81.5t74 69.5t105 48t139 18q50 0 93 -7t78 -20t63 -31t51 -40q21 24 47 42t56 30t62 18t66 6q62 0 114.5 -17t91 -51t60 -86t21.5 -122v-795q0 -16 -5.5 -28.5t-14.5 -21 t-21.5 -13t-26.5 -4.5t-26.5 4.5t-21.5 13t-14.5 21t-5.5 28.5v766q0 100 -38.5 145.5t-112.5 45.5q-66 0 -106 -37t-45 -107q4 -22 6 -44.5t2 -45.5v-723q0 -16 -5.5 -28.5t-14.5 -21t-22 -13t-27 -4.5t-26 4.5t-21.5 13t-15 21t-5.5 28.5v739q0 48 -17.5 88t-49 68.5 t-74.5 44t-95 17.5q-39 0 -71 -7t-57.5 -19t-45 -28t-32.5 -32t-20.5 -32t-8.5 -28q14 -8 25.5 -22.5t19.5 -33t12 -40.5q4 -24 4 -48v-400q0 -11 -4 -20.5t-11 -16.5t-17 -11t-20 -4h-128q-11 0 -20.5 4t-16.5 11t-11 16.5t-4 20.5t4 20.5t11 16.5t17 11t20 4h45v350z" />
<glyph d="M-490 1020q-2 -13 -9 -23t-17 -16.5t-22 -8.5q-14 -2 -26 0q-28 6 -39.5 25.5t-8.5 48.5q2 25 13 47.5t29 40t43 30.5q25 14 56 20q4 26 17.5 48t34.5 40t49 28t64 12q24 1 40 -10.5t19 -33.5q2 -12 -1 -22t-9 -18t-14.5 -13t-19.5 -6q-24 -2 -38.5 -8t-22.5 -17.5 t-10 -28.5t-2 -39q0 -10 -6.5 -16t-22.5 -6q-24 0 -41.5 -5t-29 -14t-18 -23t-8.5 -32z" />
<glyph horiz-adv-x="675" d="M-608 1112q0 29 11 55t30 45t45 30.5t55 11.5q28 0 54 -11.5t45.5 -30.5t30.5 -45t11 -55q0 -30 -11 -55t-30.5 -44.5t-45 -30.5t-54.5 -11q-30 0 -55.5 11t-44.5 30.5t-30 44.5t-11 55zM-524 1112q0 -12 4.5 -22t12 -18t18.5 -13t22 -5q12 0 22.5 5t18 13t12 18t4.5 22 t-4.5 22t-12 18t-18.5 13t-22 5q-12 0 -22.5 -5t-18 -13t-12 -18t-4.5 -22zM594 58q0 -16 -6 -28.5t-15 -21t-21.5 -13.5t-26.5 -5t-26.5 5t-21.5 13t-15 21t-6 29v493q0 100 -38 145.5t-112 45.5q-56 0 -93 -26t-51 -78q-4 -14 -13 -25t-21 -18t-26 -9t-28 2t-26 13t-19 21 t-9 26q0 14 4 28q14 45 42.5 78.5t66 56t82.5 34t91 11.5q62 0 114.5 -17t91 -51t60.5 -86t22 -122v-522z" />
<glyph horiz-adv-x="675" d="M-608 1112q0 29 11 55t30 45t45 30.5t55 11.5q28 0 54 -11.5t45.5 -30.5t30.5 -45t11 -55q0 -30 -11 -55t-30.5 -44.5t-45 -30.5t-54.5 -11q-30 0 -55.5 11t-44.5 30.5t-30 44.5t-11 55zM-524 1112q0 -12 4.5 -22t12 -18t18.5 -13t22 -5q12 0 22.5 5t18 13t12 18t4.5 22 t-4.5 22t-12 18t-18.5 13t-22 5q-12 0 -22.5 -5t-18 -13t-12 -18t-4.5 -22zM594 58q0 -16 -6 -28.5t-15 -21t-21.5 -13.5t-26.5 -5t-26.5 5t-21.5 13t-15 21t-6 29v493q0 100 -38 145.5t-112 45.5q-56 0 -93 -26t-51 -78q-4 -14 -13 -25t-21 -18t-26 -9t-28 2t-26 13t-19 21 t-9 26q0 14 4 28q14 45 42.5 78.5t66 56t82.5 34t91 11.5q62 0 114.5 -17t91 -51t60.5 -86t22 -122v-522z" />
<glyph d="M-598 981q-22 0 -38 14.5t-16 37.5q0 11 4 20.5t11.5 17t17 11.5t21.5 4h472q11 0 21 -4t17.5 -11.5t11.5 -17t4 -20.5q0 -22 -16 -37t-38 -15h-472z" />
<glyph d="M-598 981q-22 0 -38 14.5t-16 37.5q0 11 4 20.5t11.5 17t17 11.5t21.5 4h385v73q0 14 5.5 25.5t14 20.5t20.5 14q11 5 25 5t26 -5t21 -14t14 -21t5 -25v-126q0 -22 -16 -37t-38 -15h-462z" />
<glyph d="M-248 1114q0 -10 4 -20t12 -16.5t18 -10.5t20 -4t20 4t17 10.5t11 16.5t4 20q0 12 -4 21.5t-11 17t-17 11.5t-20 4t-20 -4t-18 -11.5t-12 -17t-4 -21.5zM-598 981q-22 0 -38 14.5t-16 37.5q0 11 4 20.5t11.5 17t17 11.5t21.5 4h272q-2 8 -2 15v13q0 28 10.5 52t28.5 42 t42.5 28.5t52.5 10.5t52 -10.5t42 -28.5t28 -42t10 -52t-10 -52t-28 -42t-42 -28q-24 -11 -52 -11h-404z" />
<glyph d="M-82 1033q0 -22 -16 -37t-38 -15h-462q-22 0 -38 14.5t-16 37.5q0 11 4 20.5t11.5 17t17 11.5t21.5 4h168v73q0 14 5 25.5t14 20.5t21 14q10 5 24 5t26 -5t20.5 -14t13.5 -21t5 -25v-73h90v73q0 14 5 25.5t13.5 20.5t20.5 14t26 5t25 -5t20 -14t14 -21t5 -25v-126z" />
<glyph d="M-986 981q-22 0 -38 14.5t-16 37.5q0 11 4 20.5t11.5 17t17 11.5t21.5 4h648q11 0 20.5 -4t17 -11.5t12 -17t4.5 -20.5q0 -22 -16 -37t-38 -15h-648z" />
<glyph d="M-986 981q-22 0 -38 14.5t-16 37.5q0 11 4 20.5t11.5 17t17 11.5t21.5 4h560v73q0 14 5.5 25.5t14 20.5t20.5 14t26 5t26 -5t20.5 -14t14 -21t5.5 -25v-126q0 -22 -16 -37t-38 -15h-638z" />
<glyph d="M-446 1114q0 -22 15 -36.5t38 -14.5q22 0 36.5 14.5t14.5 36.5q0 24 -15 39t-36 15q-24 0 -38.5 -15t-14.5 -39zM-986 981q-22 0 -38 14.5t-16 37.5q0 11 4 20.5t11.5 17t17 11.5t21.5 4h462q-2 8 -2 15v13q0 28 10 52t28 42t42.5 28.5t52.5 10.5t51.5 -10.5t41.5 -28.5 t28 -42t10 -52t-10 -52t-28 -42t-42 -28.5t-51 -10.5h-593z" />
<glyph d="M-295 1033q0 -22 -15.5 -37t-37.5 -15h-638q-22 0 -38 14.5t-16 37.5q0 11 4 20.5t11.5 17t17 11.5t21.5 4h343v73q0 14 5 25.5t13.5 20.5t20.5 14t26 5t25 -5t20 -14t14 -21t5 -25v-73h90v73q0 14 5 25.5t14 20.5t21 14q10 5 24 5t26 -5t20.5 -14t13.5 -21t5 -25v-126z " />
<glyph d="M-295 1364q0 -14 -5.5 -26t-14 -21t-20.5 -14q-11 -5 -25 -5t-26 5t-21 14t-14 21t-5 26v110q0 14 5 26.5t14 21t21 13.5t26 5t25.5 -5t20 -13.5t14.5 -20.5q5 -13 5 -27v-110z" />
<glyph d="M-243 1507q4 12 12.5 20.5t19 13.5t22 5t23.5 -4t20 -12t13 -18.5t5 -22t-4 -23.5q-13 -32 -38.5 -61t-64 -50t-90 -33t-115.5 -12h-60q-10 0 -19 4t-16 11t-11 16t-4 19v76h-32q-10 0 -19 3.5t-16 10t-11 16.5t-4 20t4 19t11 16t16 11t19 4h96q10 0 19 -4t16 -11t11 -16 t4 -19v-75q78 0 126 25t67 71z" />
<glyph d="M-234 1503q2 12 9 20.5t16 13.5t20 6.5t22 -1.5t19.5 -9.5t14 -16.5t6.5 -21t-1 -21q-7 -30 -21.5 -58t-35 -50t-44.5 -37q-23 -15 -49 -21h-54q-16 0 -29 10.5t-16 26.5q-2 10 -4.5 19t-7 16.5t-11 11.5t-15.5 4q-13 0 -20.5 -8t-8.5 -28q0 -10 -4 -18t-10 -14.5 t-14 -9.5q-8 -4 -18 -4t-18 3.5t-14.5 10t-10 14.5t-4.5 18q0 6 -2 13t-5.5 12t-9.5 8t-14 3q-16 0 -25 -13t-9 -39q0 -12 -5 -21t-14 -15t-20.5 -8t-22.5 -1q-22 4 -34 20.5t-12 41.5q0 35 11 62t29 45t40 28t44 10q31 0 56.5 -15.5t37.5 -40.5q12 23 38.5 39.5t60.5 16.5 q19 0 36.5 -7t32 -20t24.5 -31.5t14 -42.5q8 6 15.5 16.5t14.5 23.5t13 27.5t9 30.5z" />
<glyph d="M-295 1361q0 -14 -5.5 -26.5t-14 -21t-20.5 -13.5q-11 -4 -25 -4t-26 4.5t-21 13t-14 20.5t-5 27v54h-86q-11 0 -20 4t-15.5 10.5t-10.5 16.5t-4 20q0 21 14 35.5t36 14.5h86v54q0 14 5 26t14 21t21 13.5t26 4.5t25.5 -4.5t20 -13.5t14 -21t5.5 -26v-54h85q11 0 20.5 -4 t16.5 -11t10.5 -16t3.5 -20q0 -21 -14 -35q-15 -15 -37 -15h-85v-54z" />
<glyph d="M-972 981q-22 0 -38 14.5t-16 37.5q0 11 4 20.5t11.5 17t17 11.5t21.5 4h846q11 0 21 -4t17.5 -11.5t11.5 -17t4 -20.5q0 -22 -16 -37t-38 -15h-846z" />
<glyph d="M-972 981q-22 0 -38 14.5t-16 37.5q0 11 4 20.5t11.5 17t17 11.5t21.5 4h759v73q0 14 5.5 25.5t14 20.5t20.5 14q11 5 25 5t26 -5t21 -14t14 -21t5 -25v-126q0 -22 -16 -37t-38 -15h-836z" />
<glyph d="M-248 1114q0 -10 4 -20t12 -16.5t18 -10.5t20 -4t20 4t17 10.5t11 16.5t4 20q0 12 -4 21.5t-11 17t-17 11.5t-20 4t-20 -4t-18 -11.5t-12 -17t-4 -21.5zM-972 981q-22 0 -38 14.5t-16 37.5q0 11 4 20.5t11.5 17t17 11.5t21.5 4h646q-2 8 -2 15v13q0 28 10.5 52t28.5 42 t42.5 28.5t52.5 10.5t52 -10.5t42 -28.5t28 -42t10 -52t-10 -52t-28 -42t-42 -28q-24 -11 -52 -11h-778z" />
<glyph d="M-82 1033q0 -22 -16 -37t-38 -15h-836q-22 0 -38 14.5t-16 37.5q0 11 4 20.5t11.5 17t17 11.5t21.5 4h542v73q0 14 5 25.5t14 20.5t21 14q10 5 24 5t26 -5t20.5 -14t13.5 -21t5 -25v-73h90v73q0 14 5 25.5t13.5 20.5t20.5 14t26 5t25 -5t20 -14t14 -21t5 -25v-126z" />
<glyph d="M-82 1282q0 -14 -5 -26t-14 -21t-21 -13.5t-26 -4.5t-25.5 4.5t-20 13.5t-14 21t-5.5 26v111q0 14 5.5 26.5t14 21t20.5 13.5q11 4 25 4t26 -4.5t21 -13t14 -20.5t5 -27v-111z" />
<glyph d="M-63 1426q4 12 12.5 20t19 13t21.5 5q12 0 24 -4t20 -12t13 -18t5 -22t-4 -24q-13 -32 -38.5 -60.5t-64 -49.5t-90 -33t-115.5 -12h-60q-10 0 -19 3.5t-16 10.5t-11 16t-4 20v75h-32q-10 0 -19 4t-16 10.5t-11 16t-4 19.5t4 19.5t11 16t16 10.5t19 4h96q10 0 19 -4 t16 -10.5t11 -16t4 -19.5v-74q78 0 126 25t67 71z" />
<glyph d="M-58 1422q2 12 9 20t16 13.5t20 7t22 -2.5q11 -3 19.5 -9.5t14 -16t6.5 -20.5t-1 -22q-7 -30 -21.5 -57.5t-35 -50t-44.5 -37.5q-23 -15 -49 -20h-54q-16 0 -29 10.5t-16 26.5q-2 10 -4.5 19t-7 16t-11 11.5t-15.5 4.5q-13 0 -20.5 -8.5t-8.5 -28.5q0 -10 -4 -18t-10 -14 t-14 -10t-18 -4t-18 4t-14.5 10t-9.5 14q-4 8 -5 18q0 6 -2 13t-5.5 12t-9.5 8.5t-14 3.5q-16 0 -25 -13.5t-9 -38.5q0 -12 -5 -21.5t-14 -15.5t-20.5 -8t-22.5 0q-22 4 -34 20q-12 18 -12 42q0 35 11 61.5t29 45t40 28t44 9.5q31 0 56.5 -15t37.5 -41q12 23 38.5 39.5 t60.5 16.5q19 0 36.5 -7t32 -20t24.5 -31t14 -42q8 6 15.5 16t14.5 23t13 28t9 31z" />
<glyph d="M-82 1279q0 -14 -5 -26.5t-14 -21t-21 -13t-26 -4.5t-25.5 4.5t-20 13t-14 20.5t-5.5 27v54h-85q-11 0 -20.5 4t-16.5 10.5t-11 16.5q-3 10 -3 20q0 21 14 36q15 14 37 14h85v54q0 14 5.5 26t14 21t20.5 13q11 5 25 5t26 -4.5t21 -13.5t14 -21t5 -26v-54h86q11 0 20 -4 t15.5 -11t10.5 -16t4 -20q0 -21 -14 -35.5t-36 -14.5h-86v-54z" />
<glyph d="M-336 1282q0 -14 -5 -26t-14 -21t-21 -13.5t-26 -4.5t-25.5 4.5t-20 13.5t-14 21t-5.5 26v111q0 14 5.5 26.5t14 21t20.5 13.5q11 4 25 4t26 -4.5t21 -13t14 -20.5t5 -27v-111z" />
<glyph d="M-284 1424q4 12 12.5 20t19 13t22.5 5t24 -4t20 -12t12 -18t5 -22t-4 -24q-13 -32 -38.5 -60.5t-64 -49.5t-89.5 -33t-116 -12h-60q-10 0 -19.5 3.5t-16.5 10.5t-11 16t-4 20v75h-31q-10 0 -19.5 4t-16.5 10.5t-11 16t-4 19.5t4 19.5t11 16t16 10.5t20 4h95q10 0 19.5 -4 t16.5 -10.5t11 -16t4 -19.5v-74q78 0 126 25t67 71z" />
<glyph d="M-276 1422q2 12 9 20t16.5 13.5t20.5 7t22 -2.5q11 -3 19.5 -9.5t13.5 -16t7 -20.5t-1 -22q-7 -30 -22 -57.5t-35 -50t-44 -37.5t-50 -20h-52q-16 0 -29 10.5t-17 26.5q-2 10 -5 19t-7 16t-10.5 11.5t-15.5 4.5q-13 0 -20.5 -8.5t-8.5 -28.5q0 -10 -4 -18t-10.5 -14 t-14.5 -10t-18 -4t-18 4t-14 10t-10 14t-4 18q0 6 -2 13t-6 12t-9.5 8.5t-13.5 3.5q-16 0 -24.5 -13.5t-8.5 -38.5q0 -12 -6 -21.5t-15 -15.5t-20 -8t-22 0q-22 4 -34 20q-12 18 -12 42q0 35 11.5 61.5t28.5 45t39 27.5q24 10 46 10q31 0 56 -15q26 -15 38 -41 q12 23 38 39.5t60 16.5q19 0 36.5 -7t31.5 -20t24 -31t14 -42q8 6 16 16t15 23t12.5 28t8.5 31z" />
<glyph d="M-336 1279q0 -14 -5 -26.5t-14 -21t-21 -13t-26 -4.5t-25.5 4.5t-20 13t-14 20.5t-5.5 27v54h-85q-11 0 -20.5 4t-16.5 10.5t-11 16.5q-3 10 -3 20q0 21 14 36q15 14 37 14h85v54q0 14 5.5 26t14 21t20.5 13q11 5 25 5t26 -4.5t21 -13.5t14 -21t5 -26v-54h86q11 0 20 -4 t15.5 -11t10.5 -16t4 -20q0 -21 -14 -35.5t-36 -14.5h-86v-54z" />
<glyph d="M-219 -356q0 -14 -5 -26t-13.5 -20t-20.5 -13t-26 -5t-25 5t-20 13t-14 20t-5 26v145h-38q-10 0 -19 4t-16 11t-11 16q-4 10 -4 20t4 19t11 16t16 11t19 4h116q10 0 19.5 -4t16.5 -11t11 -16t4 -19v-196z" />
<glyph d="M-240 -165q0 14 5 25.5t14 20.5t21 14t25 5q14 0 25.5 -5t20.5 -14t14 -21t5 -25v-46q0 -40 -11 -76.5t-36.5 -63.5t-66 -43t-100.5 -16q-58 0 -99 14.5t-66.5 41t-37 62.5t-11.5 81h-38q-10 0 -19.5 4t-16.5 11t-11 16q-4 10 -4 20t4 19t11 16t16 11q10 4 20 4h118 q10 0 19 -4t16 -11t11 -16t4 -19v-51q0 -48 20 -72t64 -24q84 0 84 96v46z" />
<glyph d="M-420 -174q0 20 8 38.5t21.5 32t32 21.5t38.5 8t38 -8t32 -21.5t21.5 -32t7.5 -38.5t-7.5 -38t-21.5 -31.5t-32 -21t-38 -7.5q-21 0 -39 7.5t-31.5 21t-21.5 31.5t-8 38z" />
<glyph d="M-205 -356q0 -14 -5 -26t-13.5 -20t-20.5 -13t-26 -5t-25 5t-20 13t-14 20t-5 26v145h-38q-10 0 -19 4t-16 11t-11 16q-4 10 -4 20t4 19t11 16t16 11t19 4h116q10 0 19.5 -4t16.5 -11t11 -16t4 -19v-196z" />
<glyph d="M-354 -165q0 14 5 25.5t13.5 20.5t20 14t25.5 5t25.5 -5t20 -14t13.5 -21t5 -25v-46q0 -40 -11 -76.5t-36 -63.5t-66 -43t-99 -16t-99 14.5t-67 41t-38 62.5t-12 81h-38q-10 0 -19 4t-16 11t-11 16q-4 10 -4 20t4 19t11 16t16 11t19 4h119q10 0 19.5 -4t16.5 -11t11 -16 t4 -19v-51q0 -48 20 -72t64 -24q84 0 84 96v46z" />
<glyph d="M-412 -174q0 20 8 38.5t22 32t32 21.5t38 8t38 -8t32 -21.5t21.5 -32t7.5 -38.5t-7.5 -38t-21.5 -31.5t-32 -21t-38 -7.5t-38 7.5t-32 21t-22 31.5t-8 38z" />
<glyph d="M-547 981q-14 0 -25.5 5.5t-20.5 14t-14 20.5q-5 11 -5 25v62q0 14 5 26t14 21t21 14t25 5q14 0 25.5 -5t20.5 -14t14 -21t5 -26v-20h602q11 0 21 -4.5t17.5 -12t11.5 -17t4 -20.5t-4 -20.5t-11.5 -16.5t-17 -11.5t-21.5 -4.5h-667z" />
<glyph d="M-316 1364q0 -14 -5 -26t-14 -21t-21 -13.5t-25 -4.5q-14 0 -25.5 4.5t-20.5 13.5t-14 21t-5 26v111q0 14 5 26.5t14 21t21 13t25 4.5q14 0 25.5 -4.5t20.5 -13t14 -20.5t5 -27v-111z" />
<glyph d="M-258 1507q4 12 13 20.5t19 13.5t22 5t24 -4t20 -12t12.5 -18.5t5 -22t-3.5 -23.5q-13 -32 -38.5 -61t-64.5 -50t-90 -33t-115 -12h-60q-10 0 -19.5 4t-16.5 11t-11 16t-4 19v76h-31q-10 0 -19.5 3.5t-16.5 10t-11 16.5t-4 20t4 19t11 16t16 11q10 4 20 4h95 q10 0 19.5 -4t16.5 -11t11 -16t4 -19v-75q78 0 125.5 25t66.5 71z" />
<glyph d="M-173 1503q2 12 9 20.5t16.5 13.5t20.5 6.5t21 -1.5q11 -3 19.5 -9.5t14 -16.5t7 -21t-0.5 -21q-7 -30 -22 -58t-35.5 -50t-44.5 -37t-49 -21h-53q-16 0 -29 10.5t-17 26.5q-2 10 -4.5 19t-7 16.5t-10.5 11.5t-16 4q-13 0 -20.5 -8t-7.5 -28q0 -10 -4 -18t-10.5 -14.5 t-15 -10t-17.5 -3.5q-10 0 -18 3.5t-14.5 10t-10.5 14.5t-4 18q0 6 -2 13t-5.5 12t-9 8t-13.5 3q-16 0 -25 -13t-9 -39q0 -12 -5.5 -21t-14.5 -15t-20.5 -8t-21.5 -1q-22 4 -34 20.5t-12 41.5q0 35 11 62t28.5 45t40 28t44.5 10q31 0 56.5 -15.5t37.5 -40.5q12 23 38 39.5 t60 16.5q19 0 36.5 -7t32 -20t24.5 -31.5t14 -42.5q8 6 15.5 16.5t14.5 23.5t13 27.5t9 30.5z" />
<glyph d="M-316 1361q0 -14 -5 -26.5t-14 -21t-21 -13t-25 -4.5q-14 0 -25.5 4.5t-20.5 13t-14 20.5t-5 27v54h-86q-11 0 -20.5 4t-16 10.5t-9.5 16.5q-4 10 -4 20q0 21 14 35.5t36 14.5h86v54q0 14 5 26t14 21t21 13.5t25 4.5q14 0 25.5 -4.5t20.5 -13.5t14 -21t5 -26v-54h86 q11 0 20.5 -4t16 -11t10 -16t3.5 -20q0 -21 -14 -35.5t-36 -14.5h-86v-54z" />
<glyph d="M-526 981q-14 0 -26 5.5t-21 14t-14 20.5q-5 11 -5 25v62q0 14 5 26t14 21t21 14t26 5t25.5 -5t20 -14t14 -21t5.5 -26v-20h499q11 0 21 -4.5t17.5 -12t11.5 -17t4 -20.5t-4 -20.5t-11.5 -16.5t-17 -11.5t-21.5 -4.5h-564z" />
<glyph d="M-198 1497q4 12 12 20.5t19 13.5t22.5 5t23.5 -4t20 -12t12.5 -18.5t4.5 -21.5q0 -12 -4 -24q-13 -32 -38.5 -61t-63.5 -50t-90 -33t-116 -12h-60q-10 0 -19 4t-16 11t-11 16t-4 19v76h-32q-10 0 -19 3.5t-16 10t-11 16.5t-4 20t4 19t11 16t16 11t19 4h96q10 0 19 -4 t16 -11t11 -16t4 -19v-75q78 0 126.5 25t67.5 71z" />
<glyph d="M-79 1493q2 12 9 20.5t16.5 13.5t20.5 6.5t21 -1.5q11 -3 19.5 -9.5t14 -16.5t7 -21t-0.5 -21q-7 -30 -22.5 -60t-36.5 -53t-46 -38t-51 -15h-48q-16 0 -29 10.5t-17 26.5q-2 10 -4.5 19t-7 16.5t-10.5 11.5t-16 4q-13 0 -20.5 -8t-7.5 -28q0 -10 -4 -18t-10.5 -14.5 t-15 -10t-17.5 -3.5q-10 0 -18 3.5t-14.5 10t-10.5 14.5t-4 18q0 6 -2 13t-5.5 12t-9 8t-13.5 3q-16 0 -25 -13t-9 -39q0 -12 -5.5 -21t-14.5 -15t-20.5 -8t-21.5 -1q-22 4 -34 20.5t-12 41.5q0 35 11 62t28.5 45t40 28t44.5 10q31 0 56.5 -15.5t37.5 -40.5q12 23 38 39.5 t60 16.5q19 0 36.5 -7t32 -20t24.5 -31.5t14 -42.5q8 6 15.5 16.5t14.5 23.5t13 27.5t9 30.5z" />
<glyph d="M-684 981q-22 0 -38 14.5t-16 37.5q0 11 4 20.5t11.5 17t17 11.5t21.5 4h558q11 0 21 -4t17.5 -11.5t11.5 -17t4 -20.5q0 -22 -16 -37t-38 -15h-558z" />
<glyph d="M-684 981q-22 0 -38 14.5t-16 37.5q0 11 4 20.5t11.5 17t17 11.5t21.5 4h471v73q0 14 5.5 25.5t14 20.5t20.5 14q11 5 25 5t26 -5t21 -14t14 -21t5 -25v-126q0 -22 -16 -37t-38 -15h-548z" />
<glyph d="M-248 1114q0 -10 4 -20t12 -16.5t18 -10.5t20 -4t20 4t17 10.5t11 16.5t4 20q0 12 -4 21.5t-11 17t-17 11.5t-20 4t-20 -4t-18 -11.5t-12 -17t-4 -21.5zM-684 981q-22 0 -38 14.5t-16 37.5q0 11 4 20.5t11.5 17t17 11.5t21.5 4h358q-2 8 -2 15v13q0 28 10.5 52t28.5 42 t42.5 28.5t52.5 10.5t52 -10.5t42 -28.5t28 -42t10 -52t-10 -52t-28 -42t-42 -28q-24 -11 -52 -11h-490z" />
<glyph d="M-82 1033q0 -22 -16 -37t-38 -15h-548q-22 0 -38 14.5t-16 37.5q0 11 4 20.5t11.5 17t17 11.5t21.5 4h254v73q0 14 5 25.5t14 20.5t21 14q10 5 24 5t26 -5t20.5 -14t13.5 -21t5 -25v-73h90v73q0 14 5 25.5t13.5 20.5t20.5 14t26 5t25 -5t20 -14t14 -21t5 -25v-126z" />
<glyph d="M-386 1364q0 -14 -5 -26t-14 -21t-21 -14t-26 -5t-25.5 5t-20 14t-14 21t-5.5 26v110q0 14 5.5 26.5t14 21t20.5 13.5q11 5 25 5t26 -5t21 -13.5t14 -20.5q5 -13 5 -27v-110z" />
<glyph d="M-386 1361q0 -14 -5 -26.5t-14 -21t-21 -13t-26 -4.5t-25.5 4.5t-20 13t-14 20.5t-5.5 27v54h-85q-11 0 -20.5 4t-16.5 10.5t-11 16.5q-3 10 -3 20q0 21 14 36q15 14 37 14h85v54q0 14 5.5 26t14 21t20.5 13q11 5 25 5t26 -4.5t21 -13.5t14 -21t5 -26v-54h86q11 0 20 -4 t15.5 -11t10.5 -16t4 -20q0 -21 -14 -35.5t-36 -14.5h-86v-54z" />
</font>
</defs>
</svg>
